{"glyphs":{"0":{"ha":644,"x_min":54,"x_max":590,"o":"m 590 306 q 531 57 590 128 q 322 -14 472 -14 q 113 57 172 -14 q 54 306 54 128 l 54 736 q 113 984 54 913 q 322 1056 172 1056 q 531 984 472 1056 q 590 736 590 913 l 590 306 m 393 783 q 376 843 393 825 q 322 861 360 861 q 268 843 285 861 q 251 783 251 825 l 251 258 q 268 199 251 217 q 322 181 285 181 q 376 199 360 181 q 393 258 393 217 l 393 783 z "},"1":{"ha":396,"x_min":4,"x_max":326,"o":"m 135 51 l 135 801 q 130 822 135 817 q 110 826 125 826 l 56 826 q 15 837 25 826 q 4 878 4 847 l 4 990 q 15 1031 4 1021 q 56 1042 25 1042 l 275 1042 q 316 1031 306 1042 q 326 990 326 1021 l 326 51 q 316 10 326 21 q 275 0 306 0 l 186 0 q 145 10 156 0 q 135 51 135 21 z "},"2":{"ha":586,"x_min":29,"x_max":557,"o":"m 272 219 q 289 188 253 188 l 506 188 q 547 177 536 188 q 557 136 557 167 l 557 51 q 547 10 557 21 q 506 0 536 0 l 92 0 q 51 10 61 0 q 40 51 40 21 l 40 151 q 58 231 40 203 l 301 603 q 360 779 360 692 q 344 843 360 825 q 289 861 328 861 q 235 843 251 861 q 218 783 218 825 l 218 708 q 208 667 218 678 q 167 657 197 657 l 81 657 q 40 667 50 657 q 29 708 29 678 l 29 750 q 88 985 29 914 q 289 1056 146 1056 q 494 990 432 1056 q 557 785 557 924 q 471 532 557 665 l 272 219 z "},"3":{"ha":606,"x_min":29,"x_max":557,"o":"m 360 279 l 360 342 q 342 410 360 389 q 283 432 324 432 l 246 432 q 204 442 214 432 q 194 483 194 453 l 194 565 q 204 606 194 596 q 246 617 214 617 l 283 617 q 342 640 324 617 q 360 714 360 663 l 360 763 q 290 861 360 861 q 235 843 253 861 q 218 783 218 825 l 218 757 q 208 716 218 726 q 167 706 197 706 l 81 706 q 40 716 50 706 q 29 757 29 726 l 29 764 q 90 988 29 919 q 293 1056 150 1056 q 493 994 429 1056 q 557 799 557 932 l 557 718 q 486 536 557 594 q 481 528 481 531 q 486 519 481 525 q 542 449 526 490 q 557 343 557 407 l 557 243 q 493 48 557 110 q 293 -14 429 -14 q 90 54 150 -14 q 29 278 29 122 l 29 285 q 40 326 29 315 q 81 336 50 336 l 167 336 q 208 326 197 336 q 218 285 218 315 l 218 258 q 235 199 218 217 q 290 181 253 181 q 360 279 360 181 z "},"4":{"ha":646,"x_min":14,"x_max":640,"o":"m 499 628 q 540 617 529 628 q 550 576 550 607 l 550 371 q 556 352 550 357 q 575 347 561 347 l 589 347 q 630 337 619 347 q 640 296 640 326 l 640 203 q 629 163 640 174 q 589 153 618 153 l 575 153 q 555 148 560 153 q 550 129 550 143 l 550 51 q 540 10 550 21 q 499 0 529 0 l 410 0 q 369 10 379 0 q 358 51 358 21 l 358 128 q 353 147 358 142 q 333 153 347 153 l 65 153 q 24 163 35 153 q 14 204 14 174 l 14 281 q 32 397 14 339 l 228 1001 q 248 1033 235 1025 q 294 1042 261 1042 l 401 1042 q 435 1028 429 1042 q 433 992 442 1015 l 247 372 q 246 352 243 357 q 261 347 249 347 l 333 347 q 353 353 347 347 q 358 372 358 358 l 358 576 q 369 617 358 607 q 410 628 379 628 l 499 628 z "},"5":{"ha":618,"x_min":47,"x_max":581,"o":"m 383 258 l 383 392 q 362 473 383 451 q 283 494 340 494 l 163 494 q 80 511 99 494 q 61 583 61 528 l 61 990 q 72 1031 61 1021 q 113 1042 82 1042 l 510 1042 q 551 1031 540 1042 q 561 990 561 1021 l 561 899 q 551 858 561 868 q 510 847 540 847 l 274 847 q 249 822 249 847 l 249 726 q 256 696 249 703 q 289 689 264 689 l 313 689 q 518 618 456 689 q 581 392 581 547 l 581 258 q 519 53 581 121 q 313 -14 457 -14 q 107 56 167 -14 q 47 292 47 126 l 47 333 q 58 374 47 364 q 99 385 68 385 l 190 385 q 231 374 221 385 q 242 333 242 364 l 242 258 q 258 199 242 217 q 313 181 275 181 q 367 199 350 181 q 383 258 383 217 z "},"6":{"ha":633,"x_min":54,"x_max":590,"o":"m 251 633 q 256 628 251 628 q 265 632 258 628 q 379 661 308 661 q 590 389 590 661 l 590 271 q 528 53 590 119 q 322 -14 467 -14 q 113 57 172 -14 q 54 306 54 128 l 54 736 q 113 984 54 913 q 319 1056 171 1056 q 524 989 463 1056 q 585 771 585 922 l 585 765 q 574 724 585 735 q 533 714 564 714 l 447 714 q 406 724 417 714 q 396 765 396 735 l 396 797 q 324 861 396 861 q 269 843 286 861 q 251 783 251 825 l 251 633 m 393 258 l 393 389 q 376 449 393 431 q 322 467 360 467 q 268 449 285 467 q 251 389 251 431 l 251 258 q 268 199 251 217 q 322 181 285 181 q 376 199 360 181 q 393 258 393 217 z "},"7":{"ha":540,"x_min":13,"x_max":526,"o":"m 64 1042 l 475 1042 q 516 1031 506 1042 q 526 990 526 1021 l 526 876 q 510 776 526 829 l 289 51 q 267 9 279 18 q 221 0 254 0 l 121 0 q 86 51 71 0 l 318 813 q 297 854 331 854 l 222 854 q 203 849 208 854 q 197 829 197 844 l 197 792 q 187 751 197 761 q 146 740 176 740 l 64 740 q 23 751 33 740 q 13 792 13 761 l 13 992 q 24 1031 13 1021 q 64 1042 35 1042 z "},"8":{"ha":631,"x_min":43,"x_max":588,"o":"m 522 47 q 489 17 522 47 q 315 -14 456 -14 q 109 47 175 -14 q 43 233 43 108 l 43 308 q 62 461 43 414 q 138 547 81 508 q 143 556 143 551 q 138 564 143 560 q 51 751 51 615 l 51 821 q 315 1056 51 1056 q 579 821 579 1056 l 579 751 q 493 564 579 615 q 488 556 488 560 q 493 547 488 551 q 569 461 550 508 q 588 308 588 414 l 588 233 q 522 47 588 108 m 382 793 q 315 861 382 861 q 249 793 249 861 l 249 733 q 315 657 249 657 q 382 733 382 657 l 382 793 m 240 256 q 315 181 240 181 q 390 256 390 181 l 390 353 q 315 438 390 438 q 240 353 240 438 l 240 256 z "},"9":{"ha":633,"x_min":43,"x_max":579,"o":"m 382 408 q 378 414 382 414 q 368 410 375 414 q 254 381 325 381 q 43 653 43 381 l 43 771 q 105 989 43 922 q 311 1056 167 1056 q 520 985 461 1056 q 579 736 579 914 l 579 306 q 521 58 579 129 q 314 -14 463 -14 q 110 53 171 -14 q 49 271 49 119 l 49 276 q 59 317 49 307 q 100 328 69 328 l 186 328 q 227 317 217 328 q 238 276 238 307 l 238 244 q 310 181 238 181 q 365 199 347 181 q 382 258 382 217 l 382 408 m 240 783 l 240 653 q 257 593 240 611 q 311 575 274 575 q 365 593 349 575 q 382 653 382 611 l 382 783 q 365 843 382 825 q 311 861 349 861 q 257 843 274 861 q 240 783 240 825 z "},"\u0000":{"ha":0,"x_min":0,"x_max":0,"o":""},"\r":{"ha":0,"x_min":0,"x_max":0,"o":""}," ":{"ha":229,"x_min":0,"x_max":0,"o":""},"!":{"ha":325,"x_min":60,"x_max":265,"o":"m 265 990 l 244 329 q 233 288 243 299 q 193 278 224 278 l 132 278 q 92 288 101 278 q 81 329 82 299 l 60 990 q 69 1031 58 1021 q 111 1042 81 1042 l 214 1042 q 256 1031 244 1042 q 265 990 267 1021 m 265 121 l 265 85 q 181 0 265 0 l 144 0 q 60 85 60 0 l 60 121 q 144 206 60 206 l 181 206 q 265 121 265 206 z "},"\"":{"ha":467,"x_min":38,"x_max":429,"o":"m 214 1004 l 200 785 q 188 744 197 754 q 149 733 178 733 l 103 733 q 64 744 74 733 q 51 785 54 754 l 38 1004 q 46 1044 36 1033 q 83 1056 56 1056 l 168 1056 q 206 1044 196 1056 q 214 1004 215 1033 m 429 1004 l 415 785 q 403 744 413 754 q 364 733 393 733 l 318 733 q 279 744 289 733 q 267 785 269 754 l 253 1004 q 261 1044 251 1033 q 299 1056 271 1056 l 383 1056 q 421 1044 411 1056 q 429 1004 431 1033 z "},"#":{"ha":872,"x_min":42,"x_max":831,"o":"m 210 625 l 175 625 q 137 635 147 625 q 126 676 126 646 l 126 768 q 137 809 126 799 q 178 819 147 819 l 261 819 q 293 842 286 819 l 357 1072 q 374 1104 364 1097 q 411 1111 383 1111 l 508 1111 q 540 1086 540 1111 q 533 1053 540 1075 l 476 842 q 493 819 471 819 l 535 819 q 567 842 560 819 l 631 1072 q 647 1104 638 1097 q 685 1111 657 1111 l 782 1111 q 814 1086 814 1111 q 807 1053 814 1075 l 747 842 q 764 819 742 819 l 779 819 q 820 809 810 819 q 831 768 831 799 l 831 676 q 820 635 831 646 q 782 625 810 625 l 715 625 q 683 603 690 625 l 636 439 q 653 417 631 417 l 694 417 q 735 406 725 417 q 746 365 746 396 l 746 274 q 735 233 746 243 q 697 222 725 222 l 603 222 q 571 200 578 222 l 507 -31 q 490 -62 500 -56 q 453 -69 481 -69 l 356 -69 q 324 -44 324 -69 q 331 -8 324 -31 l 388 200 q 371 222 393 222 l 326 222 q 294 200 300 222 l 233 -31 q 217 -62 228 -56 q 179 -69 207 -69 l 82 -69 q 50 -44 50 -69 q 57 -8 50 -31 l 114 200 q 97 222 119 222 l 90 222 q 52 233 63 222 q 42 274 42 243 l 42 365 q 52 406 42 396 q 93 417 63 417 l 150 417 q 182 439 176 417 l 226 603 q 210 625 232 625 m 363 439 q 379 417 357 417 l 424 417 q 456 439 449 417 l 501 603 q 485 625 507 625 l 440 625 q 408 603 415 625 l 363 439 z "},"$":{"ha":597,"x_min":31,"x_max":567,"o":"m 236 -11 q 76 68 122 -1 q 31 292 31 138 l 31 319 q 41 360 31 350 q 82 371 51 371 l 149 371 q 190 360 179 371 q 200 319 200 350 l 200 258 q 239 192 200 200 q 249 199 249 190 l 249 422 q 232 461 249 447 l 140 535 q 51 633 71 590 q 31 753 31 676 l 31 778 q 78 969 31 901 q 235 1051 125 1038 q 249 1067 249 1053 l 249 1103 q 256 1132 249 1125 q 288 1139 264 1139 l 313 1139 q 344 1132 336 1139 q 351 1103 351 1125 l 351 1067 q 364 1051 351 1053 q 522 969 478 1038 q 567 750 567 900 l 567 722 q 556 681 567 692 q 515 671 546 671 l 449 671 q 408 681 418 671 q 397 722 397 692 l 397 783 q 361 850 397 843 q 351 843 351 851 l 351 614 q 369 576 351 592 l 458 507 q 547 409 526 453 q 567 289 567 365 l 567 264 q 521 69 567 138 q 365 -10 475 1 q 351 -25 351 -11 l 351 -61 q 344 -90 351 -83 q 313 -97 336 -97 l 288 -97 q 256 -90 264 -97 q 249 -61 249 -83 l 249 -26 q 236 -11 249 -12 m 249 844 q 239 851 249 853 q 200 783 200 843 l 200 754 q 205 716 200 729 q 228 689 210 703 l 236 682 q 249 686 249 672 l 249 844 m 364 357 q 351 353 351 369 l 351 199 q 361 192 351 190 q 397 258 397 199 l 397 288 q 392 323 397 311 q 365 356 386 335 l 364 357 z "},"%":{"ha":933,"x_min":21,"x_max":913,"o":"m 396 750 q 353 588 396 635 q 208 540 311 540 q 63 588 106 540 q 21 750 21 635 l 21 907 q 62 1071 21 1024 q 208 1118 103 1118 q 355 1071 314 1118 q 396 907 396 1024 l 396 750 m 151 -8 l 629 1072 q 651 1103 640 1096 q 689 1111 663 1111 l 760 1111 q 792 1086 792 1111 q 782 1053 792 1075 l 304 -31 q 281 -62 293 -54 q 244 -69 269 -69 l 176 -69 q 140 -44 140 -69 q 151 -8 140 -36 m 167 736 q 208 689 167 689 q 250 736 250 689 l 250 921 q 208 969 250 969 q 167 921 167 969 l 167 736 m 913 133 q 870 -29 913 18 q 725 -76 828 -76 q 580 -29 622 -76 q 538 133 538 18 l 538 290 q 578 454 538 407 q 725 501 619 501 q 872 454 831 501 q 913 290 913 407 l 913 133 m 683 119 q 725 72 683 72 q 767 119 767 72 l 767 304 q 725 353 767 353 q 683 304 683 353 l 683 119 z "},"&":{"ha":671,"x_min":38,"x_max":667,"o":"m 582 411 l 582 317 q 521 63 582 139 q 310 -14 460 -14 q 101 56 165 -14 q 38 286 38 125 l 38 333 q 52 463 38 418 q 107 540 67 508 l 135 563 q 140 572 140 568 q 135 581 140 576 l 106 600 q 51 658 65 626 q 38 764 38 690 l 38 797 q 99 992 38 928 q 301 1056 161 1056 q 503 994 444 1056 q 563 792 563 933 l 563 758 q 552 717 563 728 q 511 707 542 707 l 422 707 q 381 717 392 707 q 371 758 371 728 l 371 790 q 303 861 371 861 q 235 783 235 861 l 235 754 q 280 649 235 682 q 426 617 325 617 l 615 617 q 656 606 646 617 q 667 565 667 596 l 667 488 q 656 447 667 457 q 615 436 646 436 l 607 436 q 587 431 592 436 q 582 411 582 425 m 363 436 l 311 436 q 253 417 271 436 q 235 351 235 397 l 235 258 q 253 199 235 217 q 311 181 271 181 q 369 202 351 181 q 388 272 388 224 l 388 411 q 383 431 388 425 q 363 436 378 436 z "},"'":{"ha":251,"x_min":38,"x_max":214,"o":"m 214 1004 l 200 785 q 188 744 197 754 q 149 733 178 733 l 103 733 q 64 744 74 733 q 51 785 54 754 l 38 1004 q 46 1044 36 1033 q 83 1056 56 1056 l 168 1056 q 206 1044 196 1056 q 214 1004 215 1033 z "},"(":{"ha":315,"x_min":50,"x_max":331,"o":"m 50 357 l 50 685 q 60 896 50 831 q 106 1024 71 961 l 133 1074 q 160 1103 146 1096 q 201 1111 174 1111 l 306 1111 q 331 1090 331 1111 q 319 1057 331 1085 l 307 1029 q 253 880 264 933 q 242 685 242 826 l 242 357 q 253 162 242 215 q 307 13 264 108 l 319 -15 q 331 -49 331 -43 q 306 -69 331 -69 l 201 -69 q 160 -62 174 -69 q 133 -32 146 -54 l 106 18 q 60 146 71 81 q 50 357 50 211 z "},")":{"ha":315,"x_min":-17,"x_max":264,"o":"m 208 1024 q 253 896 243 961 q 264 685 264 831 l 264 357 q 253 146 264 211 q 208 18 243 81 l 181 -32 q 154 -62 168 -54 q 113 -69 140 -69 l 8 -69 q -17 -49 -17 -69 q -6 -15 -17 -43 l 7 13 q 61 162 50 108 q 72 357 72 215 l 72 685 q 61 880 72 826 q 7 1029 50 933 l -6 1057 q -17 1090 -17 1085 q 8 1111 -17 1111 l 113 1111 q 154 1103 140 1111 q 181 1074 168 1096 l 208 1024 z "},"*":{"ha":654,"x_min":40,"x_max":615,"o":"m 289 1189 l 365 1189 q 396 1181 388 1189 q 403 1153 404 1172 l 388 993 q 390 984 386 986 q 399 988 393 982 l 526 1079 q 557 1089 546 1092 q 578 1065 568 1086 l 615 1001 q 600 950 638 965 l 453 882 q 453 871 444 875 l 600 804 q 614 754 638 786 l 578 689 q 526 675 558 654 l 399 771 q 390 772 394 775 q 388 764 386 769 l 400 600 q 394 572 401 579 q 365 564 386 564 l 289 564 q 260 572 268 564 q 253 600 251 579 l 268 764 q 266 773 269 771 q 257 771 263 775 l 126 675 q 76 689 97 654 l 40 754 q 54 804 18 788 l 203 871 q 203 882 211 875 l 53 950 q 40 1001 18 967 l 76 1065 q 126 1079 94 1101 l 257 988 q 266 984 263 982 q 268 993 269 986 l 253 1153 q 289 1189 249 1189 z "},"+":{"ha":478,"x_min":3,"x_max":475,"o":"m 336 629 q 342 609 336 614 q 361 604 347 604 l 424 604 q 465 594 454 604 q 475 553 475 583 l 475 489 q 465 448 475 458 q 426 438 454 438 l 361 438 q 342 433 347 438 q 336 413 336 428 l 336 319 q 326 281 336 292 q 285 271 315 271 l 193 271 q 152 281 163 271 q 142 322 142 292 l 142 413 q 136 433 142 428 q 117 438 131 438 l 51 438 q 13 448 24 438 q 3 489 3 458 l 3 553 q 13 594 3 583 q 54 604 24 604 l 117 604 q 136 609 131 604 q 142 629 142 614 l 142 719 q 152 760 142 750 q 193 771 163 771 l 285 771 q 326 760 315 771 q 336 722 336 750 l 336 629 z "},",":{"ha":276,"x_min":35,"x_max":240,"o":"m 103 -8 q 97 3 107 1 q 49 26 63 7 q 35 85 35 46 l 35 121 q 119 206 35 206 l 156 206 q 240 121 240 206 l 240 78 q 219 -7 240 31 l 168 -103 q 155 -120 161 -117 q 135 -124 149 -124 l 89 -124 q 69 -110 69 -124 q 74 -93 69 -106 l 103 -8 z "},"-":{"ha":401,"x_min":31,"x_max":371,"o":"m 371 468 q 360 427 371 438 q 322 417 350 417 l 79 417 q 41 427 51 417 q 31 468 31 438 l 31 517 q 41 558 31 547 q 82 568 51 568 l 319 568 q 360 558 350 568 q 371 517 371 547 l 371 468 z "},".":{"ha":261,"x_min":28,"x_max":233,"o":"m 233 121 l 233 85 q 149 0 233 0 l 113 0 q 28 85 28 0 l 28 121 q 113 206 28 206 l 149 206 q 233 121 233 206 z "},"/":{"ha":557,"x_min":21,"x_max":543,"o":"m 28 -8 l 339 1072 q 356 1104 346 1097 q 393 1111 365 1111 l 511 1111 q 543 1086 543 1111 q 536 1053 543 1075 l 225 -31 q 208 -62 218 -56 q 171 -69 199 -69 l 53 -69 q 21 -44 21 -69 q 28 -8 21 -31 z "},":":{"ha":261,"x_min":28,"x_max":233,"o":"m 233 610 l 233 574 q 149 489 233 489 l 113 489 q 28 574 28 489 l 28 610 q 113 694 28 694 l 149 694 q 233 610 233 694 m 233 121 l 233 85 q 149 0 233 0 l 113 0 q 28 85 28 0 l 28 121 q 113 206 28 206 l 149 206 q 233 121 233 206 z "},";":{"ha":276,"x_min":35,"x_max":240,"o":"m 240 611 l 240 575 q 156 490 240 490 l 119 490 q 35 575 35 490 l 35 611 q 119 696 35 696 l 156 696 q 240 611 240 696 m 103 -8 q 97 3 107 1 q 49 26 63 7 q 35 85 35 46 l 35 121 q 119 206 35 206 l 156 206 q 240 121 240 206 l 240 78 q 219 -7 240 31 l 168 -103 q 155 -120 161 -117 q 135 -124 149 -124 l 89 -124 q 69 -110 69 -124 q 74 -93 69 -106 l 103 -8 z "},"<":{"ha":496,"x_min":6,"x_max":478,"o":"m 6 503 l 6 614 q 28 657 6 644 l 407 847 q 449 861 433 861 q 478 821 478 861 l 478 717 q 456 674 478 683 l 231 568 q 224 558 224 564 q 231 549 224 553 l 456 443 q 478 400 478 433 l 478 296 q 449 256 478 256 q 407 269 433 256 l 28 460 q 6 503 6 472 z "},"=":{"ha":508,"x_min":18,"x_max":490,"o":"m 490 614 q 480 573 490 583 q 442 563 469 563 l 67 563 q 28 573 39 563 q 18 614 18 583 l 18 706 q 28 747 18 736 q 69 757 39 757 l 439 757 q 480 747 469 757 q 490 706 490 736 l 490 614 m 490 336 q 480 295 490 306 q 442 285 469 285 l 67 285 q 28 295 39 285 q 18 336 18 306 l 18 428 q 28 469 18 458 q 69 479 39 479 l 439 479 q 480 469 469 479 q 490 428 490 458 l 490 336 z "},">":{"ha":496,"x_min":18,"x_max":490,"o":"m 490 503 q 468 460 490 472 l 89 269 q 47 256 63 256 q 18 296 18 256 l 18 400 q 40 443 18 433 l 265 549 q 272 558 272 553 q 265 568 272 564 l 40 674 q 18 717 18 683 l 18 821 q 47 861 18 861 q 89 847 63 861 l 468 657 q 490 614 490 644 l 490 503 z "},"?":{"ha":611,"x_min":42,"x_max":569,"o":"m 382 329 q 372 288 382 299 q 331 278 361 278 l 242 278 q 201 288 211 278 q 190 329 190 299 l 190 404 q 201 481 190 454 q 249 557 211 508 l 343 675 q 372 753 372 711 l 372 783 q 356 843 372 825 q 301 861 339 861 q 247 843 264 861 q 231 783 231 825 l 231 708 q 220 667 231 678 q 179 657 210 657 l 93 657 q 52 667 63 657 q 42 708 42 678 l 42 750 q 100 985 42 914 q 301 1056 158 1056 q 508 987 447 1056 q 569 778 569 918 l 569 764 q 558 678 569 711 q 513 601 547 644 l 425 492 q 390 437 397 456 q 382 382 382 418 l 382 329 m 392 121 l 392 85 q 307 0 392 0 l 271 0 q 186 85 186 0 l 186 121 q 271 206 186 206 l 307 206 q 392 121 392 206 z "},"@":{"ha":815,"x_min":35,"x_max":781,"o":"m 436 67 q 135 165 235 67 q 35 468 35 263 l 35 560 q 407 976 35 976 q 692 876 604 976 q 781 560 781 775 l 781 460 q 747 329 781 376 q 646 282 713 282 q 542 319 579 282 q 519 318 529 332 q 401 251 472 251 q 274 304 315 251 q 233 482 233 357 l 233 560 q 272 739 233 686 q 407 792 311 792 q 542 740 503 792 q 581 560 581 688 l 581 486 q 588 440 581 453 q 611 428 594 428 q 635 440 629 428 q 642 488 642 453 l 642 572 q 585 781 642 718 q 408 844 528 844 q 230 781 286 844 q 174 572 174 718 l 174 461 q 237 260 174 322 q 436 199 300 199 q 477 188 467 199 q 488 147 488 178 l 488 119 q 477 78 488 89 q 436 67 467 67 m 365 431 q 407 383 365 383 q 449 431 449 383 l 449 611 q 407 660 449 660 q 365 611 365 660 l 365 431 z "},"A":{"ha":608,"x_min":31,"x_max":578,"o":"m 222 51 q 212 10 222 21 q 171 0 201 0 l 82 0 q 41 10 51 0 q 31 51 31 21 l 31 407 q 50 549 31 483 l 176 972 q 207 1029 189 1017 q 279 1042 225 1042 l 329 1042 q 401 1029 383 1042 q 432 972 419 1017 l 558 549 q 578 407 578 485 l 578 51 q 567 10 578 21 q 526 0 557 0 l 438 0 q 397 10 407 0 q 386 51 386 21 l 386 235 q 381 255 386 250 q 361 260 375 260 l 247 260 q 228 255 233 260 q 222 235 222 250 l 222 51 m 365 454 q 389 472 389 454 q 386 493 389 479 l 322 761 q 304 778 319 778 q 286 761 289 778 l 222 493 q 219 472 219 479 q 243 454 219 454 l 365 454 z "},"B":{"ha":643,"x_min":60,"x_max":608,"o":"m 111 0 q 70 10 81 0 q 60 51 60 21 l 60 990 q 70 1031 60 1021 q 111 1042 81 1042 l 308 1042 q 531 983 460 1042 q 601 799 601 925 l 601 718 q 529 550 601 617 q 524 542 524 544 q 529 533 524 539 q 608 371 608 469 l 608 236 q 534 58 608 115 q 301 0 460 0 l 111 0 m 251 822 l 251 663 q 256 642 251 647 q 276 638 261 638 l 306 638 q 381 657 357 638 q 404 722 404 676 l 404 763 q 381 828 404 808 q 306 847 357 847 l 276 847 q 256 842 261 847 q 251 822 251 836 m 313 194 q 388 214 364 194 q 411 279 411 233 l 411 358 q 388 424 411 404 q 313 443 364 443 l 276 443 q 256 438 261 443 q 251 418 251 433 l 251 219 q 256 200 251 206 q 276 194 261 194 l 313 194 z "},"C":{"ha":610,"x_min":46,"x_max":579,"o":"m 579 333 l 579 292 q 522 54 579 122 q 314 -14 464 -14 q 105 54 164 -14 q 46 292 46 122 l 46 750 q 105 988 46 919 q 314 1056 164 1056 q 522 988 464 1056 q 579 750 579 919 l 579 708 q 569 667 579 678 q 528 657 558 657 l 439 657 q 398 667 408 657 q 388 708 388 678 l 388 783 q 315 861 388 861 q 243 783 243 861 l 243 258 q 315 181 243 181 q 388 258 388 181 l 388 333 q 398 374 388 364 q 439 385 408 385 l 528 385 q 569 374 558 385 q 579 333 579 364 z "},"D":{"ha":644,"x_min":60,"x_max":601,"o":"m 281 1042 q 538 968 474 1042 q 601 708 601 894 l 601 333 q 538 74 601 147 q 281 0 474 0 l 111 0 q 70 10 81 0 q 60 51 60 21 l 60 990 q 70 1031 60 1021 q 111 1042 81 1042 l 281 1042 m 276 847 q 256 842 261 847 q 251 822 251 836 l 251 219 q 276 194 251 194 l 292 194 q 377 224 350 194 q 404 321 404 254 l 404 721 q 377 817 404 788 q 292 847 350 847 l 276 847 z "},"E":{"ha":546,"x_min":60,"x_max":517,"o":"m 251 822 l 251 667 q 276 642 251 642 l 449 642 q 490 631 479 642 q 500 590 500 621 l 500 499 q 490 458 500 468 q 451 447 479 447 l 276 447 q 256 442 261 447 q 251 422 251 436 l 251 219 q 276 194 251 194 l 465 194 q 506 184 496 194 q 517 143 517 174 l 517 51 q 506 10 517 21 q 465 0 496 0 l 111 0 q 70 10 81 0 q 60 51 60 21 l 60 990 q 70 1031 60 1021 q 111 1042 81 1042 l 465 1042 q 506 1031 496 1042 q 517 990 517 1021 l 517 899 q 506 858 517 868 q 465 847 496 847 l 276 847 q 256 842 261 847 q 251 822 251 836 z "},"F":{"ha":540,"x_min":60,"x_max":536,"o":"m 251 397 l 251 51 q 241 10 251 21 q 200 0 231 0 l 111 0 q 70 10 81 0 q 60 51 60 21 l 60 990 q 70 1031 60 1021 q 111 1042 81 1042 l 485 1042 q 526 1031 515 1042 q 536 990 536 1021 l 536 899 q 526 858 536 868 q 485 847 515 847 l 276 847 q 256 842 261 847 q 251 822 251 836 l 251 642 q 276 617 251 617 l 426 617 q 467 606 457 617 q 478 565 478 596 l 478 474 q 467 433 478 443 q 429 422 457 422 l 276 422 q 256 417 261 422 q 251 397 251 411 z "},"G":{"ha":622,"x_min":46,"x_max":582,"o":"m 396 371 q 391 391 396 386 q 371 396 386 396 l 354 396 q 313 406 324 396 q 303 447 303 417 l 303 539 q 313 580 303 569 q 354 590 324 590 l 531 590 q 572 580 561 590 q 582 539 582 569 l 582 292 q 523 54 582 122 q 314 -14 464 -14 q 105 54 164 -14 q 46 292 46 122 l 46 750 q 105 988 46 919 q 314 1056 164 1056 q 522 988 464 1056 q 579 750 579 919 l 579 743 q 569 702 579 713 q 528 692 558 692 l 439 692 q 398 702 408 692 q 388 743 388 713 l 388 783 q 315 861 388 861 q 243 783 243 861 l 243 258 q 319 181 243 181 q 378 199 360 181 q 396 258 396 217 l 396 371 z "},"H":{"ha":667,"x_min":60,"x_max":607,"o":"m 415 51 l 415 426 q 410 447 415 442 q 390 451 406 451 l 276 451 q 256 447 261 451 q 251 426 251 442 l 251 51 q 241 10 251 21 q 200 0 231 0 l 111 0 q 70 10 81 0 q 60 51 60 21 l 60 990 q 70 1031 60 1021 q 111 1042 81 1042 l 200 1042 q 241 1031 231 1042 q 251 990 251 1021 l 251 671 q 276 646 251 646 l 390 646 q 415 671 415 646 l 415 990 q 426 1031 415 1021 q 467 1042 436 1042 l 556 1042 q 597 1031 586 1042 q 607 990 607 1021 l 607 51 q 597 10 607 21 q 556 0 586 0 l 467 0 q 426 10 436 0 q 415 51 415 21 z "},"I":{"ha":311,"x_min":60,"x_max":251,"o":"m 251 990 l 251 51 q 241 10 251 21 q 200 0 231 0 l 111 0 q 70 10 81 0 q 60 51 60 21 l 60 990 q 70 1031 60 1021 q 111 1042 81 1042 l 200 1042 q 241 1031 231 1042 q 251 990 251 1021 z "},"J":{"ha":442,"x_min":7,"x_max":389,"o":"m 124 0 l 58 0 q 17 10 28 0 q 7 51 7 21 l 7 143 q 17 184 7 174 q 58 194 28 194 l 126 194 q 181 213 164 194 q 197 272 197 231 l 197 829 q 192 849 197 844 q 172 854 186 854 l 104 854 q 63 865 74 854 q 53 906 53 875 l 53 990 q 63 1031 53 1021 q 104 1042 74 1042 l 338 1042 q 378 1031 368 1042 q 389 990 389 1021 l 389 306 q 331 69 389 138 q 124 0 272 0 z "},"K":{"ha":651,"x_min":60,"x_max":636,"o":"m 514 581 q 506 550 500 567 l 636 75 q 581 0 657 0 l 513 0 q 468 10 482 0 q 447 46 454 19 l 347 406 q 324 411 342 426 l 268 357 q 251 315 251 342 l 251 51 q 241 10 251 21 q 200 0 231 0 l 111 0 q 70 10 81 0 q 60 51 60 21 l 60 990 q 70 1031 60 1021 q 111 1042 81 1042 l 197 1042 q 238 1031 228 1042 q 249 990 249 1021 l 249 633 q 260 619 249 619 q 281 629 269 619 l 339 682 q 393 749 382 721 q 404 850 404 778 l 404 990 q 415 1031 404 1021 q 456 1042 425 1042 l 544 1042 q 585 1031 575 1042 q 596 990 596 1021 l 596 850 q 583 685 596 729 q 514 581 569 640 z "},"L":{"ha":504,"x_min":60,"x_max":501,"o":"m 251 217 q 276 194 251 194 l 450 194 q 491 184 481 194 q 501 143 501 174 l 501 51 q 491 10 501 21 q 450 0 481 0 l 111 0 q 70 10 81 0 q 60 51 60 21 l 60 990 q 70 1031 60 1021 q 111 1042 81 1042 l 200 1042 q 241 1031 231 1042 q 251 990 251 1021 l 251 217 z "},"M":{"ha":850,"x_min":60,"x_max":790,"o":"m 442 296 l 408 296 q 358 306 372 296 q 333 346 343 315 l 265 561 q 251 576 261 576 q 240 561 240 576 l 240 51 q 230 10 240 21 q 189 0 219 0 l 111 0 q 70 10 81 0 q 60 51 60 21 l 60 990 q 70 1031 60 1021 q 111 1042 81 1042 l 200 1042 q 265 1027 246 1042 q 299 969 285 1013 l 408 608 q 425 592 414 592 q 442 608 436 592 l 551 969 q 585 1027 565 1013 q 650 1042 604 1042 l 739 1042 q 780 1031 769 1042 q 790 990 790 1021 l 790 51 q 780 10 790 21 q 739 0 769 0 l 661 0 q 620 10 631 0 q 610 51 610 21 l 610 561 q 599 576 610 576 q 585 561 589 576 l 517 346 q 492 306 507 315 q 442 296 478 296 z "},"N":{"ha":686,"x_min":60,"x_max":626,"o":"m 410 699 q 428 683 418 683 q 439 697 439 683 l 439 990 q 449 1031 439 1021 q 490 1042 460 1042 l 575 1042 q 616 1031 606 1042 q 626 990 626 1021 l 626 51 q 616 10 626 21 q 575 0 606 0 l 490 0 q 449 10 460 0 q 439 51 439 21 l 439 242 q 406 375 439 313 l 276 615 q 258 631 268 631 q 247 617 247 631 l 247 51 q 237 10 247 21 q 196 0 226 0 l 111 0 q 70 10 81 0 q 60 51 60 21 l 60 990 q 70 1031 60 1021 q 111 1042 81 1042 l 165 1042 q 225 1030 206 1042 q 265 976 244 1018 l 410 699 z "},"O":{"ha":628,"x_min":46,"x_max":582,"o":"m 582 306 q 523 57 582 128 q 314 -14 464 -14 q 105 57 164 -14 q 46 306 46 128 l 46 736 q 105 984 46 913 q 314 1056 164 1056 q 523 984 464 1056 q 582 736 582 913 l 582 306 m 243 258 q 260 199 243 217 q 314 181 276 181 q 368 199 351 181 q 385 258 385 217 l 385 776 q 368 842 385 822 q 314 861 351 861 q 260 842 276 861 q 243 776 243 822 l 243 258 z "},"P":{"ha":621,"x_min":60,"x_max":601,"o":"m 294 357 l 276 357 q 256 352 261 357 q 251 332 251 347 l 251 51 q 241 10 251 21 q 200 0 231 0 l 111 0 q 70 10 81 0 q 60 51 60 21 l 60 990 q 70 1031 60 1021 q 111 1042 81 1042 l 294 1042 q 528 979 454 1042 q 601 778 601 917 l 601 621 q 528 419 601 482 q 294 357 454 357 m 251 822 l 251 576 q 256 556 251 561 q 276 551 261 551 l 306 551 q 381 574 357 551 q 404 650 404 597 l 404 749 q 381 824 404 801 q 306 847 357 847 l 276 847 q 256 842 261 847 q 251 822 251 836 z "},"Q":{"ha":628,"x_min":46,"x_max":582,"o":"m 354 -160 l 274 -160 q 233 -149 243 -160 q 222 -108 222 -139 l 222 -22 q 219 -7 222 -11 q 201 1 215 -3 q 81 97 117 26 q 46 306 46 167 l 46 736 q 105 984 46 913 q 314 1056 164 1056 q 523 984 464 1056 q 582 736 582 913 l 582 306 q 547 97 582 167 q 426 1 511 26 q 409 -7 413 -3 q 406 -22 406 -11 l 406 -108 q 395 -149 406 -139 q 354 -160 385 -160 m 385 783 q 368 843 385 825 q 314 861 351 861 q 260 843 276 861 q 243 783 243 825 l 243 258 q 260 199 243 217 q 314 181 276 181 q 368 199 351 181 q 385 258 385 217 l 385 783 z "},"R":{"ha":643,"x_min":60,"x_max":601,"o":"m 407 51 l 407 214 q 383 315 407 272 l 350 375 q 330 399 339 393 q 301 404 321 404 l 276 404 q 256 399 261 404 q 251 379 251 394 l 251 51 q 241 10 251 21 q 200 0 231 0 l 111 0 q 70 10 81 0 q 60 51 60 21 l 60 990 q 70 1031 60 1021 q 111 1042 81 1042 l 294 1042 q 528 983 454 1042 q 601 792 601 924 l 601 692 q 585 563 601 613 q 529 481 569 514 q 521 468 521 475 q 526 453 521 463 l 565 382 q 593 315 588 342 q 599 232 599 288 l 599 51 q 588 10 599 21 q 547 0 578 0 l 458 0 q 417 10 428 0 q 407 51 407 21 m 251 829 l 251 619 q 256 600 251 606 q 276 594 261 594 l 306 594 q 404 690 404 594 l 404 763 q 381 833 404 811 q 306 854 357 854 l 276 854 q 256 849 261 854 q 251 829 251 844 z "},"S":{"ha":597,"x_min":31,"x_max":567,"o":"m 275 671 l 453 510 q 544 402 521 449 q 567 283 567 356 l 567 258 q 506 53 567 121 q 299 -14 444 -14 q 90 54 149 -14 q 31 292 31 122 l 31 319 q 41 360 31 350 q 82 371 51 371 l 176 371 q 217 360 207 371 q 228 319 228 350 l 228 258 q 244 199 228 217 q 299 181 261 181 q 369 251 369 181 l 369 278 q 358 328 369 308 q 310 382 347 349 l 143 531 q 53 635 75 590 q 31 753 31 681 l 31 783 q 92 988 31 921 q 299 1056 153 1056 q 508 988 449 1056 q 567 750 567 919 l 567 722 q 556 681 567 692 q 515 671 546 671 l 421 671 q 380 681 390 671 q 369 722 369 692 l 369 783 q 353 843 369 825 q 299 861 336 861 q 228 790 228 861 l 228 767 q 237 717 228 736 q 275 671 246 697 z "},"T":{"ha":525,"x_min":4,"x_max":521,"o":"m 469 847 l 383 847 q 364 842 369 847 q 358 822 358 836 l 358 51 q 348 10 358 21 q 307 0 338 0 l 218 0 q 177 10 188 0 q 167 51 167 21 l 167 822 q 161 842 167 836 q 142 847 156 847 l 56 847 q 15 858 25 847 q 4 899 4 868 l 4 990 q 15 1031 4 1021 q 56 1042 25 1042 l 469 1042 q 510 1031 500 1042 q 521 990 521 1021 l 521 899 q 510 858 521 868 q 469 847 500 847 z "},"U":{"ha":642,"x_min":53,"x_max":589,"o":"m 397 990 q 408 1031 397 1021 q 449 1042 418 1042 l 538 1042 q 578 1031 568 1042 q 589 990 589 1021 l 589 292 q 530 54 589 122 q 321 -14 471 -14 q 112 54 171 -14 q 53 292 53 122 l 53 990 q 63 1031 53 1021 q 104 1042 74 1042 l 193 1042 q 234 1031 224 1042 q 244 990 244 1021 l 244 258 q 263 199 244 217 q 321 181 281 181 q 397 258 397 181 l 397 990 z "},"V":{"ha":600,"x_min":26,"x_max":574,"o":"m 261 0 q 179 17 201 0 q 146 88 157 33 l 43 571 q 26 749 26 653 l 26 990 q 37 1031 26 1021 q 78 1042 47 1042 l 167 1042 q 208 1031 197 1042 q 218 990 218 1021 l 218 693 q 222 635 218 667 l 281 285 q 300 264 283 264 q 319 285 317 264 l 378 635 q 382 693 382 665 l 382 990 q 392 1031 382 1021 q 433 1042 403 1042 l 522 1042 q 563 1031 553 1042 q 574 990 574 1021 l 574 749 q 557 571 574 647 l 454 88 q 421 17 443 33 q 339 0 399 0 l 261 0 z "},"W":{"ha":908,"x_min":29,"x_max":879,"o":"m 410 1042 l 499 1042 q 540 1031 529 1042 q 550 990 550 1021 l 550 693 q 554 635 550 667 l 611 285 q 615 272 613 276 q 620 266 617 268 q 631 264 624 264 q 650 285 649 264 l 683 635 q 685 660 683 639 q 688 693 688 682 l 688 990 q 698 1031 688 1021 q 739 1042 708 1042 l 828 1042 q 869 1031 858 1042 q 879 990 879 1021 l 879 749 q 863 571 879 683 l 789 88 q 758 17 781 33 q 674 0 735 0 l 607 0 q 522 17 546 0 q 492 88 497 35 l 465 299 q 456 306 464 306 q 447 299 449 306 l 417 88 q 386 17 410 35 q 301 0 363 0 l 235 0 q 151 17 174 0 q 119 88 128 33 l 46 571 q 29 749 29 683 l 29 990 q 40 1031 29 1021 q 81 1042 50 1042 l 169 1042 q 210 1031 200 1042 q 221 990 221 1021 l 221 693 q 223 660 221 682 q 225 635 225 639 l 258 285 q 278 264 260 264 q 291 268 288 264 q 297 285 294 272 l 354 635 q 358 693 358 665 l 358 990 q 369 1031 358 1021 q 410 1042 379 1042 z "},"X":{"ha":617,"x_min":36,"x_max":581,"o":"m 168 490 q 183 521 183 511 q 168 551 183 531 l 111 629 q 48 739 60 699 q 36 871 36 779 l 36 992 q 47 1031 36 1021 q 88 1042 57 1042 l 182 1042 q 223 1031 213 1042 q 233 992 233 1021 l 233 871 q 239 799 233 821 q 268 738 244 776 l 290 701 q 308 689 297 689 q 326 701 319 689 l 349 738 q 378 799 372 776 q 383 871 383 821 l 383 992 q 394 1031 383 1021 q 435 1042 404 1042 l 529 1042 q 570 1031 560 1042 q 581 992 581 1021 l 581 871 q 569 739 581 779 q 506 629 557 699 l 449 551 q 433 521 433 531 q 449 490 433 511 l 506 413 q 569 303 557 343 q 581 171 581 263 l 581 50 q 570 10 581 21 q 529 0 560 0 l 435 0 q 394 10 404 0 q 383 50 383 21 l 383 171 q 378 242 383 221 q 349 304 372 264 l 326 340 q 308 353 319 353 q 290 340 297 353 l 268 304 q 239 242 244 264 q 233 171 233 221 l 233 50 q 223 10 233 21 q 182 0 213 0 l 88 0 q 47 10 57 0 q 36 50 36 21 l 36 171 q 48 303 36 263 q 111 413 60 343 l 168 490 z "},"Y":{"ha":586,"x_min":21,"x_max":565,"o":"m 336 0 l 250 0 q 209 10 219 0 q 199 51 199 21 l 199 304 q 190 350 199 331 l 57 665 q 27 759 33 719 q 21 881 21 799 l 21 990 q 31 1031 21 1021 q 72 1042 42 1042 l 167 1042 q 208 1031 197 1042 q 218 990 218 1021 l 218 847 q 229 764 218 801 l 276 593 q 293 576 282 576 q 310 593 304 576 l 357 764 q 368 847 368 801 l 368 990 q 378 1031 368 1021 q 419 1042 389 1042 l 514 1042 q 555 1031 544 1042 q 565 990 565 1021 l 565 881 q 559 759 565 799 q 529 665 553 719 l 396 350 q 388 304 388 331 l 388 51 q 377 10 388 21 q 336 0 367 0 z "},"Z":{"ha":515,"x_min":29,"x_max":486,"o":"m 92 439 l 261 685 q 288 736 282 715 q 294 799 294 757 l 294 829 q 289 849 294 844 q 269 854 283 854 l 81 854 q 40 865 50 854 q 29 906 29 875 l 29 990 q 40 1031 29 1021 q 81 1042 50 1042 l 435 1042 q 476 1031 465 1042 q 486 990 486 1021 l 486 794 q 475 688 486 722 q 425 597 464 653 l 263 363 q 228 304 236 325 q 221 244 221 283 l 221 213 q 226 192 221 197 q 246 188 231 188 l 435 188 q 476 177 465 188 q 486 136 486 167 l 486 51 q 476 10 486 21 q 435 0 465 0 l 81 0 q 40 10 50 0 q 29 51 29 21 l 29 236 q 40 347 29 313 q 92 439 51 381 z "},"[":{"ha":394,"x_min":60,"x_max":386,"o":"m 60 -18 l 60 1060 q 70 1101 60 1090 q 111 1111 81 1111 l 335 1111 q 376 1101 365 1111 q 386 1060 386 1090 l 386 968 q 376 927 386 938 q 335 917 365 917 l 276 917 q 256 911 261 917 q 251 892 251 906 l 251 150 q 256 131 251 136 q 276 125 261 125 l 335 125 q 376 115 365 125 q 386 74 386 104 l 386 -18 q 376 -59 386 -49 q 335 -69 365 -69 l 111 -69 q 70 -59 81 -69 q 60 -18 60 -49 z "},"\\":{"ha":557,"x_min":14,"x_max":536,"o":"m 164 1111 q 201 1104 192 1111 q 218 1072 211 1097 l 529 -8 q 536 -44 536 -31 q 504 -69 536 -69 l 386 -69 q 349 -62 358 -69 q 332 -31 339 -56 l 21 1053 q 14 1086 14 1075 q 46 1111 14 1111 l 164 1111 z "},"]":{"ha":394,"x_min":8,"x_max":335,"o":"m 335 -18 q 324 -59 335 -49 q 283 -69 314 -69 l 60 -69 q 19 -59 29 -69 q 8 -18 8 -49 l 8 74 q 19 115 8 104 q 60 125 29 125 l 118 125 q 138 131 133 125 q 143 150 143 136 l 143 892 q 138 911 143 906 q 118 917 133 917 l 60 917 q 19 927 29 917 q 8 968 8 938 l 8 1060 q 19 1101 8 1090 q 60 1111 29 1111 l 283 1111 q 324 1101 314 1111 q 335 1060 335 1090 l 335 -18 z "},"^":{"ha":603,"x_min":-1,"x_max":604,"o":"m 357 1042 q 400 1019 389 1042 l 590 640 q 604 599 604 614 q 564 568 604 569 l 460 568 q 417 592 426 569 l 311 815 q 301 822 308 824 q 292 817 294 822 l 186 592 q 143 569 176 569 l 39 569 q -1 597 -1 568 q 13 640 -1 613 l 204 1019 q 219 1038 211 1033 q 246 1042 228 1042 l 357 1042 z "},"_":{"ha":931,"x_min":21,"x_max":910,"o":"m 910 -157 q 899 -198 910 -187 q 861 -208 889 -208 l 69 -208 q 31 -198 42 -208 q 21 -157 21 -187 l 21 -65 q 31 -24 21 -35 q 72 -14 42 -14 l 858 -14 q 899 -24 889 -14 q 910 -65 910 -35 l 910 -157 z "},"`":{"ha":631,"x_min":117,"x_max":406,"o":"m 275 1300 q 303 1296 296 1300 q 319 1278 311 1292 l 397 1132 q 406 1110 406 1115 q 381 1093 406 1093 l 279 1093 q 247 1097 257 1093 q 228 1117 238 1101 l 126 1264 q 117 1286 117 1276 q 142 1300 117 1300 l 275 1300 z "},"a":{"ha":622,"x_min":13,"x_max":610,"o":"m 224 1042 l 399 1042 q 463 1026 444 1042 q 488 969 482 1010 l 610 51 q 604 10 614 21 q 564 0 594 0 l 468 0 q 426 10 438 0 q 411 51 415 19 l 393 203 q 371 221 392 221 l 251 221 q 229 203 231 221 l 211 51 q 196 10 207 19 q 154 0 185 0 l 58 0 q 18 10 28 0 q 13 51 8 21 l 135 969 q 159 1026 140 1010 q 224 1042 178 1042 m 336 758 q 311 778 335 778 q 286 758 288 778 l 254 435 q 257 418 253 422 q 275 414 261 414 l 347 414 q 365 418 361 414 q 368 435 369 422 l 336 758 z "},"b":{"ha":643,"x_min":60,"x_max":608,"o":"m 111 0 q 70 10 81 0 q 60 51 60 21 l 60 990 q 70 1031 60 1021 q 111 1042 81 1042 l 308 1042 q 531 983 460 1042 q 601 799 601 925 l 601 718 q 529 550 601 617 q 524 542 524 544 q 529 533 524 539 q 608 371 608 469 l 608 236 q 534 58 608 115 q 301 0 460 0 l 111 0 m 251 822 l 251 663 q 256 642 251 647 q 276 638 261 638 l 306 638 q 381 657 357 638 q 404 722 404 676 l 404 763 q 381 828 404 808 q 306 847 357 847 l 276 847 q 256 842 261 847 q 251 822 251 836 m 313 194 q 388 214 364 194 q 411 279 411 233 l 411 358 q 388 424 411 404 q 313 443 364 443 l 276 443 q 256 438 261 443 q 251 418 251 433 l 251 219 q 256 200 251 206 q 276 194 261 194 l 313 194 z "},"c":{"ha":610,"x_min":46,"x_max":579,"o":"m 579 333 l 579 292 q 522 54 579 122 q 314 -14 464 -14 q 105 54 164 -14 q 46 292 46 122 l 46 750 q 105 988 46 919 q 314 1056 164 1056 q 522 988 464 1056 q 579 750 579 919 l 579 708 q 569 667 579 678 q 528 657 558 657 l 439 657 q 398 667 408 657 q 388 708 388 678 l 388 783 q 315 861 388 861 q 243 783 243 861 l 243 258 q 315 181 243 181 q 388 258 388 181 l 388 333 q 398 374 388 364 q 439 385 408 385 l 528 385 q 569 374 558 385 q 579 333 579 364 z "},"d":{"ha":644,"x_min":60,"x_max":601,"o":"m 281 1042 q 538 968 474 1042 q 601 708 601 894 l 601 333 q 538 74 601 147 q 281 0 474 0 l 111 0 q 70 10 81 0 q 60 51 60 21 l 60 990 q 70 1031 60 1021 q 111 1042 81 1042 l 281 1042 m 276 847 q 256 842 261 847 q 251 822 251 836 l 251 219 q 276 194 251 194 l 292 194 q 377 224 350 194 q 404 321 404 254 l 404 721 q 377 817 404 788 q 292 847 350 847 l 276 847 z "},"e":{"ha":546,"x_min":60,"x_max":517,"o":"m 251 822 l 251 667 q 276 642 251 642 l 449 642 q 490 631 479 642 q 500 590 500 621 l 500 499 q 490 458 500 468 q 451 447 479 447 l 276 447 q 256 442 261 447 q 251 422 251 436 l 251 219 q 276 194 251 194 l 465 194 q 506 184 496 194 q 517 143 517 174 l 517 51 q 506 10 517 21 q 465 0 496 0 l 111 0 q 70 10 81 0 q 60 51 60 21 l 60 990 q 70 1031 60 1021 q 111 1042 81 1042 l 465 1042 q 506 1031 496 1042 q 517 990 517 1021 l 517 899 q 506 858 517 868 q 465 847 496 847 l 276 847 q 256 842 261 847 q 251 822 251 836 z "},"f":{"ha":540,"x_min":60,"x_max":536,"o":"m 251 397 l 251 51 q 241 10 251 21 q 200 0 231 0 l 111 0 q 70 10 81 0 q 60 51 60 21 l 60 990 q 70 1031 60 1021 q 111 1042 81 1042 l 485 1042 q 526 1031 515 1042 q 536 990 536 1021 l 536 899 q 526 858 536 868 q 485 847 515 847 l 276 847 q 256 842 261 847 q 251 822 251 836 l 251 642 q 276 617 251 617 l 426 617 q 467 606 457 617 q 478 565 478 596 l 478 474 q 467 433 478 443 q 429 422 457 422 l 276 422 q 256 417 261 422 q 251 397 251 411 z "},"g":{"ha":622,"x_min":46,"x_max":582,"o":"m 396 371 q 391 391 396 386 q 371 396 386 396 l 354 396 q 313 406 324 396 q 303 447 303 417 l 303 539 q 313 580 303 569 q 354 590 324 590 l 531 590 q 572 580 561 590 q 582 539 582 569 l 582 292 q 523 54 582 122 q 314 -14 464 -14 q 105 54 164 -14 q 46 292 46 122 l 46 750 q 105 988 46 919 q 314 1056 164 1056 q 522 988 464 1056 q 579 750 579 919 l 579 743 q 569 702 579 713 q 528 692 558 692 l 439 692 q 398 702 408 692 q 388 743 388 713 l 388 783 q 315 861 388 861 q 243 783 243 861 l 243 258 q 319 181 243 181 q 378 199 360 181 q 396 258 396 217 l 396 371 z "},"h":{"ha":667,"x_min":60,"x_max":607,"o":"m 415 51 l 415 426 q 410 447 415 442 q 390 451 406 451 l 276 451 q 256 447 261 451 q 251 426 251 442 l 251 51 q 241 10 251 21 q 200 0 231 0 l 111 0 q 70 10 81 0 q 60 51 60 21 l 60 990 q 70 1031 60 1021 q 111 1042 81 1042 l 200 1042 q 241 1031 231 1042 q 251 990 251 1021 l 251 671 q 276 646 251 646 l 390 646 q 415 671 415 646 l 415 990 q 426 1031 415 1021 q 467 1042 436 1042 l 556 1042 q 597 1031 586 1042 q 607 990 607 1021 l 607 51 q 597 10 607 21 q 556 0 586 0 l 467 0 q 426 10 436 0 q 415 51 415 21 z "},"i":{"ha":311,"x_min":60,"x_max":251,"o":"m 251 990 l 251 51 q 241 10 251 21 q 200 0 231 0 l 111 0 q 70 10 81 0 q 60 51 60 21 l 60 990 q 70 1031 60 1021 q 111 1042 81 1042 l 200 1042 q 241 1031 231 1042 q 251 990 251 1021 z "},"j":{"ha":593,"x_min":10,"x_max":540,"o":"m 349 258 l 349 990 q 359 1031 349 1021 q 400 1042 369 1042 l 489 1042 q 530 1031 519 1042 q 540 990 540 1021 l 540 292 q 481 54 540 122 q 274 -14 422 -14 q 68 55 126 -14 q 10 292 10 124 l 10 333 q 22 374 11 364 q 61 385 33 385 l 150 385 q 192 374 182 385 q 201 333 203 364 l 201 258 q 274 181 206 181 q 331 199 313 181 q 349 258 349 217 z "},"k":{"ha":639,"x_min":60,"x_max":631,"o":"m 338 419 q 330 428 336 428 q 319 422 324 429 l 260 313 q 251 276 251 296 l 251 51 q 241 10 251 21 q 200 0 231 0 l 111 0 q 70 10 81 0 q 60 51 60 21 l 60 990 q 70 1031 60 1021 q 111 1042 81 1042 l 197 1042 q 238 1031 228 1042 q 249 990 249 1021 l 249 693 q 260 679 249 679 q 274 690 269 679 l 417 990 q 447 1033 433 1025 q 501 1042 461 1042 l 588 1042 q 619 988 647 1042 l 458 667 q 456 628 449 649 l 631 58 q 592 0 647 0 l 507 0 q 463 10 476 0 q 440 49 449 21 l 338 419 z "},"l":{"ha":504,"x_min":60,"x_max":501,"o":"m 251 217 q 276 194 251 194 l 450 194 q 491 184 481 194 q 501 143 501 174 l 501 51 q 491 10 501 21 q 450 0 481 0 l 111 0 q 70 10 81 0 q 60 51 60 21 l 60 990 q 70 1031 60 1021 q 111 1042 81 1042 l 200 1042 q 241 1031 231 1042 q 251 990 251 1021 l 251 217 z "},"m":{"ha":863,"x_min":60,"x_max":803,"o":"m 417 425 q 431 411 419 411 q 444 425 442 411 l 564 1006 q 579 1034 568 1026 q 617 1042 590 1042 l 751 1042 q 792 1031 782 1042 q 803 990 803 1021 l 803 51 q 792 10 803 21 q 751 0 782 0 l 688 0 q 647 10 657 0 q 636 51 636 21 l 636 501 q 625 517 636 517 q 613 504 614 517 l 514 46 q 494 10 508 21 q 451 0 481 0 l 414 0 q 369 10 383 0 q 350 46 356 21 l 250 504 q 238 517 246 517 q 226 501 226 517 l 226 51 q 216 10 226 21 q 175 0 206 0 l 111 0 q 70 10 81 0 q 60 51 60 21 l 60 990 q 70 1031 60 1021 q 111 1042 81 1042 l 226 1042 q 280 1030 264 1042 q 303 982 296 1018 l 417 425 z "},"n":{"ha":681,"x_min":60,"x_max":621,"o":"m 440 538 l 440 990 q 451 1031 440 1021 q 492 1042 461 1042 l 569 1042 q 610 1031 600 1042 q 621 990 621 1021 l 621 51 q 610 10 621 21 q 569 0 600 0 l 506 0 q 460 9 474 0 q 436 47 447 18 l 263 507 q 249 519 257 519 q 239 504 239 519 l 239 51 q 228 10 239 21 q 188 0 218 0 l 111 0 q 70 10 81 0 q 60 51 60 21 l 60 990 q 70 1031 60 1021 q 111 1042 81 1042 l 174 1042 q 218 1035 206 1042 q 240 1006 231 1029 l 417 535 q 431 522 422 522 q 440 538 440 522 z "},"o":{"ha":628,"x_min":46,"x_max":582,"o":"m 582 306 q 523 57 582 128 q 314 -14 464 -14 q 105 57 164 -14 q 46 306 46 128 l 46 736 q 105 984 46 913 q 314 1056 164 1056 q 523 984 464 1056 q 582 736 582 913 l 582 306 m 243 258 q 260 199 243 217 q 314 181 276 181 q 368 199 351 181 q 385 258 385 217 l 385 776 q 368 842 385 822 q 314 861 351 861 q 260 842 276 861 q 243 776 243 822 l 243 258 z "},"p":{"ha":621,"x_min":60,"x_max":601,"o":"m 294 357 l 276 357 q 256 352 261 357 q 251 332 251 347 l 251 51 q 241 10 251 21 q 200 0 231 0 l 111 0 q 70 10 81 0 q 60 51 60 21 l 60 990 q 70 1031 60 1021 q 111 1042 81 1042 l 294 1042 q 528 979 454 1042 q 601 778 601 917 l 601 621 q 528 419 601 482 q 294 357 454 357 m 251 822 l 251 576 q 256 556 251 561 q 276 551 261 551 l 306 551 q 381 574 357 551 q 404 650 404 597 l 404 749 q 381 824 404 801 q 306 847 357 847 l 276 847 q 256 842 261 847 q 251 822 251 836 z "},"q":{"ha":628,"x_min":46,"x_max":582,"o":"m 354 -160 l 274 -160 q 233 -149 243 -160 q 222 -108 222 -139 l 222 -22 q 219 -7 222 -11 q 201 1 215 -3 q 81 97 117 26 q 46 306 46 167 l 46 736 q 105 984 46 913 q 314 1056 164 1056 q 523 984 464 1056 q 582 736 582 913 l 582 306 q 547 97 582 167 q 426 1 511 26 q 409 -7 413 -3 q 406 -22 406 -11 l 406 -108 q 395 -149 406 -139 q 354 -160 385 -160 m 385 783 q 368 843 385 825 q 314 861 351 861 q 260 843 276 861 q 243 783 243 825 l 243 258 q 260 199 243 217 q 314 181 276 181 q 368 199 351 181 q 385 258 385 217 l 385 783 z "},"r":{"ha":642,"x_min":60,"x_max":624,"o":"m 426 39 l 315 376 q 282 401 307 401 l 276 401 q 256 397 261 401 q 251 376 251 392 l 251 51 q 241 10 251 21 q 200 0 231 0 l 111 0 q 70 10 81 0 q 60 51 60 21 l 60 990 q 70 1031 60 1021 q 111 1042 81 1042 l 294 1042 q 528 983 454 1042 q 601 792 601 924 l 601 692 q 582 545 601 594 q 507 449 563 496 q 497 433 497 442 q 501 415 497 431 l 624 53 q 586 0 642 0 l 485 0 q 445 7 456 0 q 426 39 435 14 m 251 829 l 251 615 q 256 595 251 600 q 276 590 261 590 l 306 590 q 404 686 404 590 l 404 763 q 381 833 404 811 q 306 854 357 854 l 276 854 q 256 849 261 854 q 251 829 251 844 z "},"s":{"ha":597,"x_min":31,"x_max":567,"o":"m 275 671 l 453 510 q 544 402 521 449 q 567 283 567 356 l 567 258 q 506 53 567 121 q 299 -14 444 -14 q 90 54 149 -14 q 31 292 31 122 l 31 319 q 41 360 31 350 q 82 371 51 371 l 176 371 q 217 360 207 371 q 228 319 228 350 l 228 258 q 244 199 228 217 q 299 181 261 181 q 369 251 369 181 l 369 278 q 358 328 369 308 q 310 382 347 349 l 143 531 q 53 635 75 590 q 31 753 31 681 l 31 783 q 92 988 31 921 q 299 1056 153 1056 q 508 988 449 1056 q 567 750 567 919 l 567 722 q 556 681 567 692 q 515 671 546 671 l 421 671 q 380 681 390 671 q 369 722 369 692 l 369 783 q 353 843 369 825 q 299 861 336 861 q 228 790 228 861 l 228 767 q 237 717 228 736 q 275 671 246 697 z "},"t":{"ha":522,"x_min":4,"x_max":521,"o":"m 469 847 l 383 847 q 364 842 369 847 q 358 822 358 836 l 358 51 q 348 10 358 21 q 307 0 338 0 l 218 0 q 177 10 188 0 q 167 51 167 21 l 167 822 q 161 842 167 836 q 142 847 156 847 l 56 847 q 15 858 25 847 q 4 899 4 868 l 4 990 q 15 1031 4 1021 q 56 1042 25 1042 l 469 1042 q 510 1031 500 1042 q 521 990 521 1021 l 521 899 q 510 858 521 868 q 469 847 500 847 z "},"u":{"ha":642,"x_min":53,"x_max":589,"o":"m 397 990 q 408 1031 397 1021 q 449 1042 418 1042 l 538 1042 q 578 1031 568 1042 q 589 990 589 1021 l 589 292 q 530 54 589 122 q 321 -14 471 -14 q 112 54 171 -14 q 53 292 53 122 l 53 990 q 63 1031 53 1021 q 104 1042 74 1042 l 193 1042 q 234 1031 224 1042 q 244 990 244 1021 l 244 258 q 263 199 244 217 q 321 181 281 181 q 397 258 397 181 l 397 990 z "},"v":{"ha":594,"x_min":13,"x_max":582,"o":"m 374 0 l 221 0 q 147 18 168 0 q 119 86 126 36 l 13 990 q 22 1031 10 1019 q 64 1042 33 1042 l 165 1042 q 204 1031 194 1042 q 217 990 214 1021 l 278 278 q 297 257 279 257 q 317 278 315 257 l 378 990 q 390 1031 381 1021 q 429 1042 400 1042 l 531 1042 q 573 1031 561 1042 q 582 990 585 1019 l 475 86 q 447 18 468 36 q 374 0 426 0 z "},"w":{"ha":936,"x_min":21,"x_max":915,"o":"m 440 1042 l 496 1042 q 539 1031 526 1042 q 554 990 551 1019 l 635 265 q 649 250 636 250 q 665 265 664 250 l 710 990 q 722 1031 713 1021 q 761 1042 732 1042 l 864 1042 q 906 1031 894 1042 q 915 990 918 1019 l 836 89 q 810 19 832 39 q 735 0 789 0 l 617 0 q 543 19 564 0 q 515 89 522 38 l 479 376 q 468 390 478 390 q 457 376 458 390 l 422 89 q 394 19 415 38 q 321 0 374 0 l 201 0 q 126 19 147 0 q 100 89 104 39 l 21 990 q 30 1031 18 1019 q 72 1042 42 1042 l 175 1042 q 214 1031 204 1042 q 226 990 224 1021 l 269 265 q 286 250 271 250 q 300 265 299 250 l 382 990 q 397 1031 385 1019 q 440 1042 410 1042 z "},"x":{"ha":578,"x_min":11,"x_max":567,"o":"m 167 488 q 167 556 178 521 l 11 992 q 44 1042 -7 1042 l 147 1042 q 191 1035 179 1042 q 210 1003 203 1028 l 278 782 q 284 772 279 775 q 294 772 289 769 q 300 782 299 775 l 368 1003 q 387 1035 375 1028 q 431 1042 399 1042 l 533 1042 q 567 992 585 1042 l 411 556 q 411 488 400 521 l 567 50 q 533 0 585 0 l 431 0 q 387 7 399 0 q 368 39 375 14 l 300 260 q 294 269 299 267 q 284 269 289 272 q 278 260 279 267 l 210 39 q 191 7 203 14 q 147 0 179 0 l 44 0 q 11 50 -7 0 l 167 488 z "},"y":{"ha":572,"x_min":4,"x_max":568,"o":"m 272 676 q 286 660 275 660 q 300 676 297 660 l 361 990 q 380 1031 367 1021 q 421 1042 393 1042 l 528 1042 q 568 990 585 1042 l 389 394 q 381 321 381 364 l 381 51 q 370 10 381 21 q 329 0 360 0 l 243 0 q 202 10 213 0 q 192 51 192 21 l 192 321 q 183 394 192 364 l 4 990 q 44 1042 -12 1042 l 151 1042 q 192 1031 179 1042 q 211 990 206 1021 l 272 676 z "},"z":{"ha":524,"x_min":19,"x_max":504,"o":"m 239 228 q 257 186 222 186 l 446 186 q 487 176 476 186 q 497 135 497 165 l 497 50 q 487 9 497 19 q 446 -1 476 -1 l 71 -1 q 30 9 40 -1 q 19 50 19 19 l 19 128 q 40 236 19 186 l 286 813 q 268 854 303 854 l 78 854 q 37 865 47 854 q 26 906 26 875 l 26 990 q 37 1031 26 1021 q 78 1042 47 1042 l 453 1042 q 494 1031 483 1042 q 504 990 504 1021 l 504 913 q 483 804 504 854 l 239 228 z "},"{":{"ha":361,"x_min":3,"x_max":353,"o":"m 3 493 l 3 551 q 28 607 3 588 l 47 621 q 75 649 68 636 q 82 690 82 663 l 82 801 q 112 974 82 917 q 232 1074 142 1031 l 285 1099 q 326 1111 311 1111 q 353 1081 353 1111 l 353 967 q 348 934 353 943 q 325 914 343 925 l 304 901 q 272 873 279 888 q 265 825 265 858 l 265 658 q 259 599 265 618 q 233 565 253 581 l 199 536 q 190 522 190 531 q 199 508 190 514 l 233 479 q 259 445 253 464 q 265 386 265 426 l 265 219 q 272 172 265 186 q 304 143 279 157 l 325 131 q 348 110 343 119 q 353 78 353 101 l 353 -36 q 326 -67 353 -67 q 285 -54 311 -67 l 232 -29 q 112 71 142 14 q 82 243 82 128 l 82 354 q 75 395 82 382 q 47 424 68 408 l 28 438 q 3 493 3 457 z "},"|":{"ha":311,"x_min":60,"x_max":251,"o":"m 251 1060 l 251 -18 q 241 -59 251 -49 q 200 -69 231 -69 l 111 -69 q 70 -59 81 -69 q 60 -18 60 -49 l 60 1060 q 70 1101 60 1090 q 111 1111 81 1111 l 200 1111 q 241 1101 231 1111 q 251 1060 251 1090 z "},"}":{"ha":361,"x_min":8,"x_max":358,"o":"m 358 551 l 358 493 q 333 438 358 457 l 314 424 q 286 395 293 408 q 279 354 279 382 l 279 243 q 249 71 279 128 q 129 -29 219 14 l 76 -54 q 35 -67 49 -67 q 8 -36 8 -67 l 8 78 q 13 110 8 101 q 36 131 18 119 l 57 143 q 89 172 82 157 q 96 219 96 186 l 96 386 q 102 445 96 426 q 128 479 108 464 l 163 508 q 171 522 171 514 q 163 536 171 531 l 128 565 q 102 599 108 581 q 96 658 96 618 l 96 825 q 89 873 96 858 q 57 901 82 888 l 36 914 q 13 934 18 925 q 8 967 8 943 l 8 1081 q 35 1111 8 1111 q 76 1099 50 1111 l 129 1074 q 249 974 219 1031 q 279 801 279 917 l 279 690 q 286 649 279 663 q 314 621 293 636 l 333 607 q 358 551 358 588 z "},"~":{"ha":550,"x_min":3,"x_max":547,"o":"m 394 403 q 285 432 340 403 q 203 461 231 461 q 161 422 171 461 q 139 407 158 407 l 44 407 q 12 416 21 407 q 3 449 3 425 q 156 644 3 644 q 264 615 208 644 q 347 586 319 586 q 389 625 379 586 q 411 640 392 640 l 506 640 q 538 631 529 640 q 547 599 547 622 q 394 403 547 403 z "}," ":{"ha":250,"x_min":0,"x_max":0,"o":""},"¡":{"ha":297,"x_min":46,"x_max":251,"o":"m 251 610 l 251 574 q 167 489 251 489 l 131 489 q 46 574 46 489 l 46 610 q 131 694 46 694 l 167 694 q 251 610 251 694 m 251 -296 q 242 -337 253 -326 q 200 -347 231 -347 l 97 -347 q 56 -337 67 -347 q 46 -296 44 -326 l 67 365 q 78 406 68 396 q 118 417 88 417 l 179 417 q 219 406 210 417 q 231 365 229 396 l 251 -296 z "},"¢":{"ha":617,"x_min":42,"x_max":575,"o":"m 363 -75 q 355 -104 363 -97 q 324 -111 347 -111 l 299 -111 q 267 -104 275 -111 q 260 -75 260 -97 l 260 -25 q 249 -11 260 -12 q 88 71 135 1 q 42 292 42 140 l 42 472 q 88 692 42 622 q 244 775 133 761 q 260 790 260 776 l 260 839 q 267 868 260 861 q 299 875 275 875 l 324 875 q 355 868 347 875 q 363 839 363 861 l 363 790 q 376 775 363 776 q 531 699 486 763 q 575 500 575 636 l 575 486 q 565 445 575 456 q 524 435 554 435 l 463 435 q 422 445 432 435 q 411 486 411 456 l 411 506 q 378 569 411 553 q 363 561 363 578 l 363 199 q 374 193 363 189 q 411 258 411 208 l 411 278 q 422 319 411 308 q 463 329 432 329 l 524 329 q 565 319 554 329 q 575 278 575 308 l 575 264 q 531 65 575 128 q 375 -11 486 1 q 363 -26 363 -12 l 363 -75 m 211 258 q 247 193 211 208 q 260 199 260 189 l 260 561 q 244 568 260 574 q 211 506 211 553 l 211 258 z "},"£":{"ha":664,"x_min":17,"x_max":640,"o":"m 640 51 q 630 10 640 21 q 589 0 619 0 l 68 0 q 27 10 38 0 q 17 51 17 21 l 17 143 q 27 184 17 174 q 68 194 38 194 l 82 194 q 107 217 107 194 l 107 368 q 82 393 107 393 l 65 393 q 27 403 38 393 q 17 444 17 414 l 17 522 q 27 563 17 553 q 68 574 38 574 l 82 574 q 107 599 107 574 l 107 750 q 166 988 107 919 q 375 1056 225 1056 q 583 988 525 1056 q 640 750 640 919 l 640 708 q 630 667 640 678 q 589 657 619 657 l 500 657 q 459 667 469 657 q 449 708 449 678 l 449 783 q 376 861 449 861 q 322 843 339 861 q 304 783 304 825 l 304 599 q 329 574 304 574 l 479 574 q 520 563 510 574 q 531 522 531 553 l 531 444 q 520 403 531 414 q 482 393 510 393 l 329 393 q 304 368 304 393 l 304 217 q 329 194 304 194 l 589 194 q 630 184 619 194 q 640 143 640 174 l 640 51 z "},"¤":{"ha":842,"x_min":19,"x_max":800,"o":"m 800 765 l 693 681 q 681 639 674 665 q 700 498 700 556 q 681 358 700 440 q 693 310 672 326 l 800 225 q 800 160 839 196 l 717 78 q 653 78 681 43 l 565 189 q 524 201 550 208 q 315 201 426 178 q 274 189 288 207 l 186 78 q 122 78 158 42 l 40 160 q 20 193 21 179 q 40 225 19 207 l 147 310 q 160 358 168 326 q 140 498 140 440 q 160 639 139 556 q 147 681 165 667 l 40 765 q 20 797 19 783 q 40 831 21 811 l 122 913 q 186 913 158 949 l 274 801 q 315 789 288 783 q 524 789 425 811 q 565 801 551 782 l 653 913 q 717 913 681 947 l 800 831 q 800 765 839 794 m 328 526 l 328 464 q 414 367 328 367 l 426 367 q 511 464 511 367 l 511 526 q 426 624 511 624 l 414 624 q 328 526 328 624 z "},"¥":{"ha":639,"x_min":21,"x_max":618,"o":"m 363 0 l 276 0 q 235 10 246 0 q 225 51 225 21 l 225 171 q 219 191 225 186 q 200 196 214 196 l 83 196 q 45 206 56 196 q 35 247 35 217 l 35 282 q 45 323 35 313 q 86 333 56 333 l 207 333 q 217 350 224 333 l 199 392 q 179 403 193 403 l 69 403 q 31 413 42 403 q 21 454 21 424 l 21 489 q 31 530 21 519 q 72 540 42 540 l 118 540 q 129 564 140 540 l 83 674 q 54 769 61 728 q 47 889 47 810 l 47 990 q 58 1031 47 1021 q 99 1042 68 1042 l 193 1042 q 234 1031 224 1042 q 244 990 244 1021 l 244 856 q 256 772 244 810 l 303 601 q 319 585 308 585 q 336 601 331 585 l 383 772 q 394 856 394 810 l 394 990 q 405 1031 394 1021 q 446 1042 415 1042 l 540 1042 q 581 1031 571 1042 q 592 990 592 1021 l 592 889 q 585 769 592 810 q 556 674 578 728 l 510 564 q 521 540 499 540 l 567 540 q 608 530 597 540 q 618 489 618 519 l 618 454 q 608 413 618 424 q 569 403 597 403 l 460 403 q 440 392 446 403 l 422 350 q 432 333 415 333 l 553 333 q 594 323 583 333 q 604 282 604 313 l 604 247 q 594 206 604 217 q 556 196 583 196 l 439 196 q 419 191 425 196 q 414 171 414 186 l 414 51 q 403 10 414 21 q 363 0 393 0 z "},"¦":{"ha":311,"x_min":60,"x_max":251,"o":"m 251 1060 l 251 600 q 241 559 251 569 q 200 549 231 549 l 111 549 q 70 559 81 549 q 60 600 60 569 l 60 1060 q 70 1101 60 1090 q 111 1111 81 1111 l 200 1111 q 241 1101 231 1111 q 251 1060 251 1090 m 251 442 l 251 -18 q 241 -59 251 -49 q 200 -69 231 -69 l 111 -69 q 70 -59 81 -69 q 60 -18 60 -49 l 60 442 q 70 483 60 472 q 111 493 81 493 l 200 493 q 241 483 231 493 q 251 442 251 472 z "},"§":{"ha":610,"x_min":36,"x_max":572,"o":"m 572 -42 l 572 -83 q 511 -292 572 -224 q 304 -361 450 -361 q 95 -293 154 -361 q 36 -56 36 -225 l 36 -18 q 47 23 36 13 q 88 33 57 33 l 182 33 q 223 23 213 33 q 233 -18 233 13 l 233 -89 q 250 -149 233 -131 q 304 -167 267 -167 q 358 -149 342 -167 q 375 -89 375 -131 l 375 -50 q 367 -21 375 -32 q 332 7 358 -10 l 164 118 q 63 217 89 168 q 36 353 36 267 l 36 386 q 52 513 36 468 q 104 581 68 557 q 50 648 64 615 q 36 736 36 681 l 36 778 q 97 987 36 918 q 304 1056 158 1056 q 513 988 454 1056 q 572 750 572 919 l 572 713 q 562 672 572 682 q 521 661 551 661 l 426 661 q 385 672 396 661 q 375 713 375 682 l 375 783 q 358 843 375 825 q 304 861 342 861 q 250 843 267 861 q 233 783 233 825 l 233 744 q 276 681 233 707 l 444 576 q 546 479 519 529 q 572 342 572 429 l 572 308 q 556 182 572 226 q 504 114 540 138 q 558 47 544 79 q 572 -42 572 14 m 375 282 l 375 326 q 367 390 375 371 q 335 425 360 408 l 301 447 q 252 456 271 467 q 233 413 233 444 l 233 368 q 241 305 233 324 q 274 269 249 286 l 307 247 q 356 239 338 228 q 375 282 375 250 z "},"¨":{"ha":636,"x_min":94,"x_max":542,"o":"m 300 1204 l 300 1168 q 215 1083 300 1083 l 179 1083 q 94 1168 94 1083 l 94 1204 q 179 1289 94 1289 l 215 1289 q 300 1204 300 1289 m 542 1204 l 542 1168 q 457 1083 542 1083 l 421 1083 q 336 1168 336 1083 l 336 1204 q 421 1289 336 1289 l 457 1289 q 542 1204 542 1289 z "},"©":{"ha":836,"x_min":39,"x_max":797,"o":"m 797 681 l 797 361 q 706 58 797 158 q 418 -42 614 -42 q 131 58 222 -42 q 39 361 39 158 l 39 681 q 131 983 39 883 q 418 1083 222 1083 q 706 983 614 1083 q 797 681 797 883 m 663 361 l 663 681 q 608 887 663 828 q 419 946 554 946 q 229 887 283 946 q 175 681 175 828 l 175 361 q 229 155 175 214 q 419 96 283 96 q 608 155 554 96 q 663 361 663 214 m 599 393 l 599 365 q 560 204 599 250 q 419 158 521 158 q 278 205 318 158 q 238 365 238 251 l 238 675 q 278 835 238 789 q 419 882 318 882 q 560 836 521 882 q 599 675 599 790 l 599 647 q 591 619 599 626 q 564 613 583 613 l 503 613 q 476 619 483 613 q 468 647 468 626 l 468 697 q 419 750 468 750 q 371 697 371 750 l 371 343 q 419 290 371 290 q 468 343 468 290 l 468 393 q 476 421 468 414 q 503 428 483 428 l 564 428 q 591 421 583 428 q 599 393 599 414 z "},"ª":{"ha":493,"x_min":40,"x_max":453,"o":"m 183 1042 l 311 1042 q 355 1031 343 1042 q 372 989 367 1021 l 453 507 q 451 484 456 490 q 429 478 446 478 l 347 478 q 324 483 329 478 q 315 507 318 489 l 306 590 q 293 600 304 600 l 200 600 q 188 590 189 600 l 178 507 q 169 483 175 489 q 146 478 164 478 l 64 478 q 42 484 47 478 q 40 507 38 490 l 122 989 q 140 1031 128 1021 q 183 1042 151 1042 m 265 894 q 246 913 264 913 q 228 894 229 913 l 210 719 q 221 708 208 708 l 272 708 q 283 719 285 708 l 265 894 z "},"«":{"ha":619,"x_min":0,"x_max":603,"o":"m 0 489 q 14 528 0 506 l 182 767 q 215 794 199 792 q 253 779 231 796 l 317 735 q 331 665 361 704 l 219 519 q 207 490 207 503 q 219 461 207 479 l 331 315 q 317 246 360 276 l 253 201 q 214 187 229 185 q 182 214 199 189 l 14 453 q 0 489 0 471 m 272 489 q 286 528 272 506 l 454 767 q 487 794 471 792 q 525 779 503 796 l 589 735 q 603 665 633 704 l 492 519 q 479 490 479 503 q 492 461 479 479 l 603 315 q 589 246 632 276 l 525 201 q 486 187 501 185 q 454 214 471 189 l 286 453 q 272 489 272 471 z "},"¬":{"ha":494,"x_min":4,"x_max":476,"o":"m 257 514 l 53 514 q 15 524 25 514 q 4 565 4 535 l 4 643 q 15 684 4 674 q 56 694 25 694 l 425 694 q 476 646 476 694 l 476 343 q 466 305 476 315 q 425 294 456 294 l 333 294 q 292 305 303 294 q 282 346 282 315 l 282 489 q 277 508 282 503 q 257 514 272 514 z "},"­":{"ha":0,"x_min":0,"x_max":0,"o":""},"®":{"ha":836,"x_min":39,"x_max":797,"o":"m 797 681 l 797 361 q 706 58 797 158 q 418 -42 614 -42 q 131 58 222 -42 q 39 361 39 158 l 39 681 q 131 983 39 883 q 418 1083 222 1083 q 706 983 614 1083 q 797 681 797 883 m 663 361 l 663 681 q 608 887 663 828 q 419 946 554 946 q 229 887 283 946 q 175 681 175 828 l 175 361 q 229 155 175 214 q 419 96 283 96 q 608 155 554 96 q 663 361 663 214 m 478 211 l 478 333 q 467 388 478 367 l 440 440 q 413 456 432 456 l 389 456 q 375 442 375 456 l 375 211 q 369 187 375 193 q 344 181 363 181 l 276 181 q 252 187 258 181 q 246 211 246 193 l 246 856 q 252 879 246 874 q 276 885 258 885 l 421 885 q 564 844 519 885 q 608 713 608 804 l 608 654 q 560 510 608 547 q 553 500 553 504 q 556 490 553 496 l 585 431 q 603 383 599 400 q 607 326 607 367 l 607 211 q 601 187 607 193 q 576 181 594 181 l 508 181 q 484 187 490 181 q 478 211 478 193 m 375 753 l 375 588 q 389 572 375 572 l 419 572 q 478 642 478 572 l 478 700 q 419 768 478 768 l 389 768 q 375 753 375 768 z "},"¯":{"ha":639,"x_min":125,"x_max":514,"o":"m 514 1149 q 503 1108 514 1118 q 465 1097 493 1097 l 174 1097 q 135 1108 146 1097 q 125 1149 125 1118 l 125 1206 q 135 1247 125 1236 q 176 1257 146 1257 l 463 1257 q 503 1247 493 1257 q 514 1206 514 1236 l 514 1149 z "},"°":{"ha":461,"x_min":28,"x_max":433,"o":"m 433 878 l 433 829 q 254 650 433 650 l 206 650 q 28 829 28 650 l 28 878 q 74 1010 28 964 q 206 1056 119 1056 l 254 1056 q 433 878 433 1056 m 242 779 q 303 842 303 779 l 303 860 q 242 925 303 925 l 224 925 q 158 860 158 925 l 158 842 q 224 779 158 779 l 242 779 z "},"±":{"ha":503,"x_min":15,"x_max":488,"o":"m 349 740 q 353 720 349 725 q 374 715 358 715 l 436 715 q 477 705 467 715 q 488 664 488 694 l 488 600 q 477 559 488 569 q 439 549 467 549 l 374 549 q 353 544 358 549 q 349 524 349 539 l 349 431 q 338 392 349 403 q 297 382 328 382 l 206 382 q 165 392 175 382 q 154 433 154 403 l 154 524 q 149 544 154 539 q 129 549 144 549 l 64 549 q 26 559 36 549 q 15 600 15 569 l 15 664 q 26 705 15 694 q 67 715 36 715 l 129 715 q 149 720 144 715 q 154 740 154 725 l 154 831 q 165 872 154 861 q 206 882 175 882 l 297 882 q 338 872 328 882 q 349 833 349 861 l 349 740 m 488 239 q 477 198 488 208 q 439 188 467 188 l 64 188 q 26 198 36 188 q 15 239 15 208 l 15 303 q 26 344 15 333 q 67 354 36 354 l 436 354 q 477 344 467 354 q 488 303 488 333 l 488 239 z "},"²":{"ha":436,"x_min":39,"x_max":399,"o":"m 217 639 q 239 622 217 622 l 369 622 q 392 617 386 622 q 399 594 399 611 l 399 507 q 392 484 399 490 q 369 478 386 478 l 69 478 q 47 484 53 478 q 42 507 42 490 l 42 583 q 59 684 42 649 q 126 749 76 719 l 217 801 q 246 860 246 819 l 246 861 q 214 900 246 900 q 183 861 183 900 l 183 853 q 177 830 183 836 q 156 824 171 824 l 67 824 q 45 830 51 824 q 39 853 39 836 l 39 875 q 221 1049 39 1049 q 351 1009 308 1049 q 394 899 394 969 l 394 868 q 379 773 394 806 q 317 714 364 740 l 238 668 q 217 643 217 656 l 217 639 z "},"³":{"ha":436,"x_min":33,"x_max":394,"o":"m 164 750 l 164 782 q 183 814 164 803 l 211 829 q 235 846 231 839 q 240 868 240 853 l 240 871 q 210 903 240 903 q 178 868 178 903 l 178 867 q 172 849 178 853 q 150 844 167 844 l 61 844 q 39 851 44 844 q 33 878 33 858 l 33 889 q 213 1049 33 1049 q 352 1013 310 1049 q 394 907 394 976 l 394 872 q 385 817 394 835 q 342 779 375 799 q 332 767 332 772 q 342 753 332 761 q 385 709 375 728 q 394 653 394 690 l 394 614 q 214 471 394 471 q 75 507 117 471 q 33 628 33 543 l 33 664 q 39 686 33 681 q 61 692 44 692 l 150 692 q 172 686 167 692 q 178 664 178 681 l 178 649 q 210 617 178 617 q 240 649 240 617 l 240 651 q 235 683 240 674 q 211 703 231 692 l 183 718 q 164 750 164 729 z "},"´":{"ha":631,"x_min":225,"x_max":514,"o":"m 233 1132 l 311 1278 q 327 1296 319 1292 q 356 1300 335 1300 l 489 1300 q 514 1286 514 1300 q 504 1264 514 1276 l 403 1117 q 383 1097 393 1101 q 351 1093 374 1093 l 250 1093 q 225 1110 225 1093 q 233 1132 225 1115 z "},"¶":{"ha":792,"x_min":21,"x_max":732,"o":"m 549 847 q 528 842 533 847 q 524 822 524 836 l 524 51 q 513 10 524 21 q 472 0 503 0 l 422 0 q 381 10 392 0 q 371 51 371 21 l 371 332 q 366 352 371 347 q 346 357 361 357 l 328 357 q 94 419 168 357 q 21 621 21 482 l 21 778 q 94 979 21 917 q 328 1042 168 1042 l 681 1042 q 722 1031 711 1042 q 732 990 732 1021 l 732 51 q 722 10 732 21 q 681 0 711 0 l 631 0 q 590 10 600 0 q 579 51 579 21 l 579 822 q 574 842 579 836 q 554 847 569 847 l 549 847 z "},"·":{"ha":297,"x_min":46,"x_max":251,"o":"m 251 574 l 251 538 q 167 453 251 453 l 131 453 q 46 538 46 453 l 46 574 q 131 658 46 658 l 167 658 q 251 574 251 658 z "},"¸":{"ha":617,"x_min":210,"x_max":488,"o":"m 335 -142 q 251 -110 274 -135 q 228 -22 228 -86 l 228 3 q 232 20 228 15 q 250 25 236 25 l 304 25 q 326 3 326 25 l 326 -17 q 333 -44 326 -37 q 358 -54 339 -51 q 458 -96 429 -64 q 488 -192 488 -128 q 347 -336 488 -336 q 245 -302 281 -336 q 210 -208 210 -268 l 210 -204 q 214 -186 210 -190 q 232 -182 218 -182 l 289 -182 q 307 -186 303 -182 q 311 -204 311 -190 q 321 -231 311 -221 q 347 -242 331 -242 q 383 -200 383 -242 l 383 -189 q 373 -155 383 -165 q 335 -142 363 -144 z "},"¹":{"ha":292,"x_min":13,"x_max":232,"o":"m 83 506 l 83 861 q 69 875 83 875 l 40 875 q 18 881 24 875 q 13 903 13 886 l 13 1014 q 18 1036 13 1031 q 40 1042 24 1042 l 204 1042 q 226 1036 219 1042 q 232 1014 232 1031 l 232 506 q 226 483 232 489 q 204 478 219 478 l 111 478 q 89 483 94 478 q 83 506 83 489 z "},"º":{"ha":439,"x_min":39,"x_max":400,"o":"m 400 681 q 359 513 400 561 q 219 464 318 464 q 80 513 121 464 q 39 681 39 561 l 39 838 q 78 1007 39 958 q 219 1056 118 1056 q 360 1007 321 1056 q 400 838 400 958 l 400 681 m 178 643 q 219 596 178 596 q 261 643 261 596 l 261 875 q 219 924 261 924 q 178 875 178 924 l 178 643 z "},"»":{"ha":619,"x_min":18,"x_max":621,"o":"m 621 489 q 607 453 621 471 l 439 214 q 407 187 422 189 q 368 201 392 185 l 304 246 q 290 315 261 276 l 401 461 q 414 490 414 479 q 401 519 414 503 l 290 665 q 304 735 260 704 l 368 779 q 406 794 390 796 q 439 767 422 792 l 607 528 q 621 489 621 506 m 349 489 q 335 453 349 471 l 167 214 q 135 187 150 189 q 96 201 119 185 l 32 246 q 18 315 -11 276 l 129 461 q 142 490 142 479 q 129 519 142 503 l 18 665 q 32 735 -12 704 l 96 779 q 134 794 118 796 q 167 767 150 792 l 335 528 q 349 489 349 506 z "},"¼":{"ha":758,"x_min":1,"x_max":751,"o":"m 22 -8 l 500 1072 q 522 1103 511 1096 q 560 1111 533 1111 l 631 1111 q 663 1086 663 1111 q 653 1053 663 1075 l 175 -31 q 153 -62 164 -54 q 115 -69 142 -69 l 47 -69 q 11 -44 11 -69 q 22 -8 11 -36 m 72 575 l 72 926 q 58 940 72 940 l 29 940 q 7 946 13 940 q 1 968 1 951 l 1 1083 q 7 1106 1 1100 q 29 1111 13 1111 l 193 1111 q 215 1106 208 1111 q 221 1083 221 1100 l 221 575 q 215 553 221 558 q 193 547 208 547 l 100 547 q 78 553 83 547 q 72 575 72 558 m 724 28 l 714 28 q 701 15 701 28 l 701 -40 q 695 -63 701 -57 q 672 -69 689 -69 l 585 -69 q 563 -63 568 -69 q 557 -40 557 -57 l 557 14 q 544 28 557 28 l 400 28 q 369 35 376 28 q 361 67 361 43 l 361 131 q 376 217 361 176 l 476 465 q 491 490 483 485 q 521 494 499 494 l 672 494 q 695 489 689 494 q 701 467 701 483 l 701 178 q 714 165 701 165 l 724 165 q 746 159 740 165 q 751 138 751 153 l 751 56 q 745 33 751 39 q 724 28 739 28 m 558 172 l 558 343 q 554 349 558 349 q 550 343 551 349 l 511 226 q 506 186 506 210 l 506 174 q 519 160 506 160 l 546 160 q 558 172 558 160 z "},"½":{"ha":779,"x_min":1,"x_max":767,"o":"m 22 -8 l 500 1072 q 522 1103 511 1096 q 560 1111 533 1111 l 631 1111 q 663 1086 663 1111 q 653 1053 663 1075 l 175 -31 q 153 -62 164 -54 q 115 -69 142 -69 l 47 -69 q 11 -44 11 -69 q 22 -8 11 -36 m 72 575 l 72 926 q 58 940 72 940 l 29 940 q 7 946 13 940 q 1 968 1 951 l 1 1083 q 7 1106 1 1100 q 29 1111 13 1111 l 193 1111 q 215 1106 208 1111 q 221 1083 221 1100 l 221 575 q 215 553 221 558 q 193 547 208 547 l 100 547 q 78 553 83 547 q 72 575 72 558 m 585 92 q 607 75 585 75 l 738 75 q 760 69 754 75 q 767 47 767 64 l 767 -40 q 760 -63 767 -57 q 738 -69 754 -69 l 438 -69 q 415 -63 421 -69 q 410 -40 410 -57 l 410 36 q 427 137 410 101 q 494 201 444 172 l 585 254 q 614 313 614 272 l 614 314 q 582 353 614 353 q 551 314 551 353 l 551 306 q 545 283 551 289 q 524 276 539 276 l 435 276 q 413 283 419 276 q 407 306 407 289 l 407 328 q 589 501 407 501 q 719 462 676 501 q 763 351 763 422 l 763 321 q 747 226 763 258 q 685 167 732 193 l 606 121 q 585 96 585 108 l 585 92 z "},"¾":{"ha":893,"x_min":11,"x_max":886,"o":"m 142 819 l 142 851 q 161 883 142 872 l 189 899 q 213 915 208 908 q 218 938 218 922 l 218 940 q 188 972 218 972 q 156 938 156 972 l 156 936 q 150 918 156 922 q 128 914 144 914 l 39 914 q 17 921 22 914 q 11 947 11 928 l 11 958 q 190 1118 11 1118 q 330 1082 288 1118 q 372 976 372 1046 l 372 942 q 363 886 372 904 q 319 849 353 868 q 310 836 310 842 q 319 822 310 831 q 363 778 353 797 q 372 722 372 760 l 372 683 q 192 540 372 540 q 53 576 94 540 q 11 697 11 613 l 11 733 q 17 756 11 750 q 39 761 22 761 l 128 761 q 150 756 144 761 q 156 733 156 750 l 156 718 q 188 686 156 686 q 218 718 218 686 l 218 721 q 213 752 218 743 q 189 772 208 761 l 161 788 q 142 819 142 799 m 157 -8 l 635 1072 q 657 1103 646 1096 q 694 1111 668 1111 l 765 1111 q 797 1086 797 1111 q 788 1053 797 1075 l 310 -31 q 288 -62 299 -54 q 250 -69 276 -69 l 182 -69 q 146 -44 146 -69 q 157 -8 146 -36 m 858 28 l 849 28 q 836 15 836 28 l 836 -40 q 830 -63 836 -57 q 807 -69 824 -69 l 719 -69 q 697 -63 703 -69 q 692 -40 692 -57 l 692 14 q 679 28 692 28 l 535 28 q 503 35 511 28 q 496 67 496 43 l 496 131 q 511 217 496 176 l 611 465 q 626 490 618 485 q 656 494 633 494 l 807 494 q 830 489 824 494 q 836 467 836 483 l 836 178 q 849 165 836 165 l 858 165 q 881 159 875 165 q 886 138 886 153 l 886 56 q 880 33 886 39 q 858 28 874 28 m 693 172 l 693 343 q 689 349 693 349 q 685 343 686 349 l 646 226 q 640 186 640 210 l 640 174 q 654 160 640 160 l 681 160 q 693 172 693 160 z "},"¿":{"ha":556,"x_min":14,"x_max":542,"o":"m 276 489 q 192 574 192 489 l 192 610 q 276 694 192 694 l 313 694 q 397 610 397 694 l 397 574 q 313 489 397 489 l 276 489 m 201 365 q 212 406 201 396 q 253 417 222 417 l 342 417 q 383 406 372 417 q 393 365 393 396 l 393 290 q 383 213 393 242 q 335 138 372 185 l 240 19 q 211 -58 211 -17 l 211 -89 q 228 -149 211 -131 q 282 -167 244 -167 q 336 -149 319 -167 q 353 -89 353 -131 l 353 -14 q 363 27 353 17 q 404 38 374 38 l 490 38 q 531 27 521 38 q 542 -14 542 17 l 542 -56 q 483 -290 542 -219 q 282 -361 425 -361 q 75 -292 136 -361 q 14 -83 14 -224 l 14 -69 q 25 17 14 -17 q 71 93 36 50 l 158 203 q 194 258 186 239 q 201 313 201 276 l 201 365 z "},"À":{"ha":608,"x_min":31,"x_max":578,"o":"m 257 1300 q 285 1296 278 1300 q 301 1278 293 1292 l 379 1132 q 388 1110 388 1115 q 363 1093 388 1093 l 261 1093 q 229 1097 239 1093 q 210 1117 219 1101 l 108 1264 q 99 1286 99 1276 q 124 1300 99 1300 l 257 1300 m 222 51 q 212 10 222 21 q 171 0 201 0 l 82 0 q 41 10 51 0 q 31 51 31 21 l 31 407 q 50 549 31 483 l 176 972 q 207 1029 189 1017 q 279 1042 225 1042 l 329 1042 q 401 1029 383 1042 q 432 972 419 1017 l 558 549 q 578 407 578 485 l 578 51 q 567 10 578 21 q 526 0 557 0 l 438 0 q 397 10 407 0 q 386 51 386 21 l 386 235 q 381 255 386 250 q 361 260 375 260 l 247 260 q 228 255 233 260 q 222 235 222 250 l 222 51 m 365 454 q 389 472 389 454 q 386 493 389 479 l 322 761 q 304 778 319 778 q 286 761 289 778 l 222 493 q 219 472 219 479 q 243 454 219 454 l 365 454 z "},"Á":{"ha":608,"x_min":31,"x_max":578,"o":"m 232 1132 l 310 1278 q 326 1296 318 1292 q 354 1300 333 1300 l 488 1300 q 513 1286 513 1300 q 503 1264 513 1276 l 401 1117 q 382 1097 392 1101 q 350 1093 372 1093 l 249 1093 q 224 1110 224 1093 q 232 1132 224 1115 m 222 51 q 212 10 222 21 q 171 0 201 0 l 82 0 q 41 10 51 0 q 31 51 31 21 l 31 407 q 50 549 31 483 l 176 972 q 207 1029 189 1017 q 279 1042 225 1042 l 329 1042 q 401 1029 383 1042 q 432 972 419 1017 l 558 549 q 578 407 578 485 l 578 51 q 567 10 578 21 q 526 0 557 0 l 438 0 q 397 10 407 0 q 386 51 386 21 l 386 235 q 381 255 386 250 q 361 260 375 260 l 247 260 q 228 255 233 260 q 222 235 222 250 l 222 51 m 365 454 q 389 472 389 454 q 386 493 389 479 l 322 761 q 304 778 319 778 q 286 761 289 778 l 222 493 q 219 472 219 479 q 243 454 219 454 l 365 454 z "},"Â":{"ha":608,"x_min":31,"x_max":578,"o":"m 253 1306 l 356 1306 q 390 1301 381 1306 q 414 1278 400 1296 l 519 1135 q 532 1111 532 1117 q 511 1096 532 1096 l 401 1096 q 364 1114 378 1096 l 315 1183 q 304 1190 310 1190 q 293 1183 299 1190 l 244 1114 q 207 1096 231 1096 l 97 1096 q 76 1111 76 1096 q 89 1135 76 1117 l 194 1278 q 218 1301 208 1296 q 253 1306 228 1306 m 222 51 q 212 10 222 21 q 171 0 201 0 l 82 0 q 41 10 51 0 q 31 51 31 21 l 31 407 q 50 549 31 483 l 176 972 q 207 1029 189 1017 q 279 1042 225 1042 l 329 1042 q 401 1029 383 1042 q 432 972 419 1017 l 558 549 q 578 407 578 485 l 578 51 q 567 10 578 21 q 526 0 557 0 l 438 0 q 397 10 407 0 q 386 51 386 21 l 386 235 q 381 255 386 250 q 361 260 375 260 l 247 260 q 228 255 233 260 q 222 235 222 250 l 222 51 m 365 454 q 389 472 389 454 q 386 493 389 479 l 322 761 q 304 778 319 778 q 286 761 289 778 l 222 493 q 219 472 219 479 q 243 454 219 454 l 365 454 z "},"Ã":{"ha":608,"x_min":31,"x_max":578,"o":"m 256 1146 q 218 1115 232 1146 q 188 1096 208 1096 l 104 1096 q 82 1102 88 1096 q 78 1125 76 1108 q 126 1251 89 1211 q 231 1290 163 1290 q 303 1265 268 1290 q 353 1240 338 1240 q 390 1272 378 1240 q 421 1290 400 1290 l 504 1290 q 526 1284 521 1290 q 531 1261 532 1278 q 378 1096 511 1096 q 305 1121 340 1096 q 256 1146 269 1146 m 222 51 q 212 10 222 21 q 171 0 201 0 l 82 0 q 41 10 51 0 q 31 51 31 21 l 31 407 q 50 549 31 483 l 176 972 q 207 1029 189 1017 q 279 1042 225 1042 l 329 1042 q 401 1029 383 1042 q 432 972 419 1017 l 558 549 q 578 407 578 485 l 578 51 q 567 10 578 21 q 526 0 557 0 l 438 0 q 397 10 407 0 q 386 51 386 21 l 386 235 q 381 255 386 250 q 361 260 375 260 l 247 260 q 228 255 233 260 q 222 235 222 250 l 222 51 m 365 454 q 389 472 389 454 q 386 493 389 479 l 322 761 q 304 778 319 778 q 286 761 289 778 l 222 493 q 219 472 219 479 q 243 454 219 454 l 365 454 z "},"Ä":{"ha":608,"x_min":31,"x_max":578,"o":"m 286 1204 l 286 1168 q 201 1083 286 1083 l 165 1083 q 81 1168 81 1083 l 81 1204 q 165 1289 81 1289 l 201 1289 q 286 1204 286 1289 m 528 1204 l 528 1168 q 443 1083 528 1083 l 407 1083 q 322 1168 322 1083 l 322 1204 q 407 1289 322 1289 l 443 1289 q 528 1204 528 1289 m 222 51 q 212 10 222 21 q 171 0 201 0 l 82 0 q 41 10 51 0 q 31 51 31 21 l 31 407 q 50 549 31 483 l 176 972 q 207 1029 189 1017 q 279 1042 225 1042 l 329 1042 q 401 1029 383 1042 q 432 972 419 1017 l 558 549 q 578 407 578 485 l 578 51 q 567 10 578 21 q 526 0 557 0 l 438 0 q 397 10 407 0 q 386 51 386 21 l 386 235 q 381 255 386 250 q 361 260 375 260 l 247 260 q 228 255 233 260 q 222 235 222 250 l 222 51 m 365 454 q 389 472 389 454 q 386 493 389 479 l 322 761 q 304 778 319 778 q 286 761 289 778 l 222 493 q 219 472 219 479 q 243 454 219 454 l 365 454 z "},"Å":{"ha":608,"x_min":31,"x_max":578,"o":"m 456 1246 l 456 1215 q 319 1078 456 1078 l 289 1078 q 153 1215 153 1078 l 153 1246 q 289 1383 153 1383 l 319 1383 q 456 1246 456 1383 m 311 1172 q 356 1222 356 1172 l 356 1235 q 311 1285 356 1285 l 300 1285 q 256 1235 256 1285 l 256 1222 q 300 1172 256 1172 l 311 1172 m 222 51 q 212 10 222 21 q 171 0 201 0 l 82 0 q 41 10 51 0 q 31 51 31 21 l 31 407 q 50 549 31 483 l 176 972 q 207 1029 189 1017 q 279 1042 225 1042 l 329 1042 q 401 1029 383 1042 q 432 972 419 1017 l 558 549 q 578 407 578 485 l 578 51 q 567 10 578 21 q 526 0 557 0 l 438 0 q 397 10 407 0 q 386 51 386 21 l 386 235 q 381 255 386 250 q 361 260 375 260 l 247 260 q 228 255 233 260 q 222 235 222 250 l 222 51 m 365 454 q 389 472 389 454 q 386 493 389 479 l 322 761 q 304 778 319 778 q 286 761 289 778 l 222 493 q 219 472 219 479 q 243 454 219 454 l 365 454 z "},"Æ":{"ha":803,"x_min":31,"x_max":774,"o":"m 774 51 q 763 10 774 21 q 722 0 753 0 l 406 0 q 365 10 375 0 q 354 51 354 21 l 354 214 q 349 233 354 228 q 329 239 344 239 l 247 239 q 228 233 233 239 q 222 214 222 228 l 222 51 q 212 10 222 21 q 171 0 201 0 l 82 0 q 41 10 51 0 q 31 51 31 21 l 31 365 q 34 478 31 449 q 54 563 38 508 l 175 968 q 207 1028 189 1015 q 276 1042 225 1042 l 722 1042 q 763 1031 753 1042 q 774 990 774 1021 l 774 899 q 763 858 774 868 q 722 847 753 847 l 571 847 q 551 842 556 847 q 546 822 546 836 l 546 667 q 571 642 546 642 l 706 642 q 747 631 736 642 q 757 590 757 621 l 757 499 q 747 458 757 468 q 708 447 736 447 l 571 447 q 551 442 556 447 q 546 422 546 436 l 546 219 q 571 194 546 194 l 722 194 q 763 184 753 194 q 774 143 774 174 l 774 51 m 354 458 l 354 818 q 333 842 354 842 q 310 821 315 842 l 226 468 q 224 449 224 454 q 243 433 224 433 l 329 433 q 349 439 344 433 q 354 458 354 444 z "},"Ç":{"ha":610,"x_min":46,"x_max":579,"o":"m 479 -185 q 332 -335 479 -335 q 183 -211 197 -335 l 182 -199 q 204 -176 181 -176 l 275 -176 q 289 -178 285 -176 q 294 -185 293 -181 q 297 -199 296 -189 q 332 -226 301 -226 q 361 -183 361 -226 q 352 -152 361 -161 q 319 -140 343 -143 q 265 -121 279 -137 q 250 -62 250 -104 l 250 -33 q 235 -12 250 -15 q 86 77 126 11 q 46 292 46 143 l 46 750 q 105 988 46 919 q 314 1056 164 1056 q 522 988 464 1056 q 579 750 579 919 l 579 708 q 569 667 579 678 q 528 657 558 657 l 439 657 q 398 667 408 657 q 388 708 388 678 l 388 783 q 315 861 388 861 q 243 783 243 861 l 243 258 q 315 181 243 181 q 388 258 388 181 l 388 333 q 398 374 388 364 q 439 385 408 385 l 528 385 q 569 374 558 385 q 579 333 579 364 l 579 292 q 532 70 579 138 q 375 -8 485 3 q 360 -26 360 -10 q 364 -45 360 -40 q 382 -53 368 -50 q 479 -185 479 -78 z "},"È":{"ha":546,"x_min":60,"x_max":517,"o":"m 256 1300 q 284 1296 276 1300 q 300 1278 292 1292 l 378 1132 q 386 1110 386 1115 q 361 1093 386 1093 l 260 1093 q 228 1097 238 1093 q 208 1117 218 1101 l 107 1264 q 97 1286 97 1276 q 122 1300 97 1300 l 256 1300 m 251 822 l 251 667 q 276 642 251 642 l 449 642 q 490 631 479 642 q 500 590 500 621 l 500 499 q 490 458 500 468 q 451 447 479 447 l 276 447 q 256 442 261 447 q 251 422 251 436 l 251 219 q 276 194 251 194 l 465 194 q 506 184 496 194 q 517 143 517 174 l 517 51 q 506 10 517 21 q 465 0 496 0 l 111 0 q 70 10 81 0 q 60 51 60 21 l 60 990 q 70 1031 60 1021 q 111 1042 81 1042 l 465 1042 q 506 1031 496 1042 q 517 990 517 1021 l 517 899 q 506 858 517 868 q 465 847 496 847 l 276 847 q 256 842 261 847 q 251 822 251 836 z "},"É":{"ha":546,"x_min":60,"x_max":517,"o":"m 200 1132 l 278 1278 q 294 1296 286 1292 q 322 1300 301 1300 l 456 1300 q 481 1286 481 1300 q 471 1264 481 1276 l 369 1117 q 350 1097 360 1101 q 318 1093 340 1093 l 217 1093 q 192 1110 192 1093 q 200 1132 192 1115 m 251 822 l 251 667 q 276 642 251 642 l 449 642 q 490 631 479 642 q 500 590 500 621 l 500 499 q 490 458 500 468 q 451 447 479 447 l 276 447 q 256 442 261 447 q 251 422 251 436 l 251 219 q 276 194 251 194 l 465 194 q 506 184 496 194 q 517 143 517 174 l 517 51 q 506 10 517 21 q 465 0 496 0 l 111 0 q 70 10 81 0 q 60 51 60 21 l 60 990 q 70 1031 60 1021 q 111 1042 81 1042 l 465 1042 q 506 1031 496 1042 q 517 990 517 1021 l 517 899 q 506 858 517 868 q 465 847 496 847 l 276 847 q 256 842 261 847 q 251 822 251 836 z "},"Ê":{"ha":546,"x_min":54,"x_max":517,"o":"m 231 1306 l 333 1306 q 368 1301 358 1306 q 392 1278 378 1296 l 497 1135 q 510 1111 510 1117 q 489 1096 510 1096 l 379 1096 q 342 1114 356 1096 l 293 1183 q 282 1190 288 1190 q 271 1183 276 1190 l 222 1114 q 185 1096 208 1096 l 75 1096 q 54 1111 54 1096 q 67 1135 54 1117 l 172 1278 q 196 1301 186 1296 q 231 1306 206 1306 m 251 822 l 251 667 q 276 642 251 642 l 449 642 q 490 631 479 642 q 500 590 500 621 l 500 499 q 490 458 500 468 q 451 447 479 447 l 276 447 q 256 442 261 447 q 251 422 251 436 l 251 219 q 276 194 251 194 l 465 194 q 506 184 496 194 q 517 143 517 174 l 517 51 q 506 10 517 21 q 465 0 496 0 l 111 0 q 70 10 81 0 q 60 51 60 21 l 60 990 q 70 1031 60 1021 q 111 1042 81 1042 l 465 1042 q 506 1031 496 1042 q 517 990 517 1021 l 517 899 q 506 858 517 868 q 465 847 496 847 l 276 847 q 256 842 261 847 q 251 822 251 836 z "},"Ë":{"ha":546,"x_min":58,"x_max":517,"o":"m 264 1204 l 264 1168 q 179 1083 264 1083 l 143 1083 q 58 1168 58 1083 l 58 1204 q 143 1289 58 1289 l 179 1289 q 264 1204 264 1289 m 506 1204 l 506 1168 q 421 1083 506 1083 l 385 1083 q 300 1168 300 1083 l 300 1204 q 385 1289 300 1289 l 421 1289 q 506 1204 506 1289 m 251 822 l 251 667 q 276 642 251 642 l 449 642 q 490 631 479 642 q 500 590 500 621 l 500 499 q 490 458 500 468 q 451 447 479 447 l 276 447 q 256 442 261 447 q 251 422 251 436 l 251 219 q 276 194 251 194 l 465 194 q 506 184 496 194 q 517 143 517 174 l 517 51 q 506 10 517 21 q 465 0 496 0 l 111 0 q 70 10 81 0 q 60 51 60 21 l 60 990 q 70 1031 60 1021 q 111 1042 81 1042 l 465 1042 q 506 1031 496 1042 q 517 990 517 1021 l 517 899 q 506 858 517 868 q 465 847 496 847 l 276 847 q 256 842 261 847 q 251 822 251 836 z "},"Ì":{"ha":311,"x_min":-51,"x_max":251,"o":"m 107 1300 q 135 1296 128 1300 q 151 1278 143 1292 l 229 1132 q 238 1110 238 1115 q 213 1093 238 1093 l 111 1093 q 79 1097 89 1093 q 60 1117 69 1101 l -42 1264 q -51 1286 -51 1276 q -26 1300 -51 1300 l 107 1300 m 251 990 l 251 51 q 241 10 251 21 q 200 0 231 0 l 111 0 q 70 10 81 0 q 60 51 60 21 l 60 990 q 70 1031 60 1021 q 111 1042 81 1042 l 200 1042 q 241 1031 231 1042 q 251 990 251 1021 z "},"Í":{"ha":311,"x_min":60,"x_max":368,"o":"m 88 1132 l 165 1278 q 181 1296 174 1292 q 210 1300 189 1300 l 343 1300 q 368 1286 368 1300 q 358 1264 368 1276 l 257 1117 q 238 1097 247 1101 q 206 1093 228 1093 l 104 1093 q 79 1110 79 1093 q 88 1132 79 1115 m 251 990 l 251 51 q 241 10 251 21 q 200 0 231 0 l 111 0 q 70 10 81 0 q 60 51 60 21 l 60 990 q 70 1031 60 1021 q 111 1042 81 1042 l 200 1042 q 241 1031 231 1042 q 251 990 251 1021 z "},"Î":{"ha":311,"x_min":-72,"x_max":383,"o":"m 104 1306 l 207 1306 q 242 1301 232 1306 q 265 1278 251 1296 l 371 1135 q 383 1111 383 1117 q 363 1096 383 1096 l 253 1096 q 215 1114 229 1096 l 167 1183 q 156 1190 161 1190 q 144 1183 150 1190 l 96 1114 q 58 1096 82 1096 l -51 1096 q -72 1111 -72 1096 q -60 1135 -72 1117 l 46 1278 q 69 1301 60 1296 q 104 1306 79 1306 m 251 990 l 251 51 q 241 10 251 21 q 200 0 231 0 l 111 0 q 70 10 81 0 q 60 51 60 21 l 60 990 q 70 1031 60 1021 q 111 1042 81 1042 l 200 1042 q 241 1031 231 1042 q 251 990 251 1021 z "},"Ï":{"ha":311,"x_min":-68,"x_max":379,"o":"m 138 1204 l 138 1168 q 53 1083 138 1083 l 17 1083 q -68 1168 -68 1083 l -68 1204 q 17 1289 -68 1289 l 53 1289 q 138 1204 138 1289 m 379 1204 l 379 1168 q 294 1083 379 1083 l 258 1083 q 174 1168 174 1083 l 174 1204 q 258 1289 174 1289 l 294 1289 q 379 1204 379 1289 m 251 990 l 251 51 q 241 10 251 21 q 200 0 231 0 l 111 0 q 70 10 81 0 q 60 51 60 21 l 60 990 q 70 1031 60 1021 q 111 1042 81 1042 l 200 1042 q 241 1031 231 1042 q 251 990 251 1021 z "},"Ð":{"ha":671,"x_min":4,"x_max":628,"o":"m 68 622 q 86 640 86 622 l 86 990 q 97 1031 86 1021 q 138 1042 107 1042 l 307 1042 q 564 968 500 1042 q 628 708 628 894 l 628 333 q 564 74 628 147 q 307 0 500 0 l 138 0 q 97 10 107 0 q 86 51 86 21 l 86 410 q 68 428 86 428 l 53 428 q 15 438 25 428 q 4 479 4 449 l 4 571 q 15 612 4 601 q 56 622 25 622 l 68 622 m 303 847 q 283 842 289 847 q 278 822 278 836 l 278 640 q 296 622 278 622 l 308 622 q 349 612 339 622 q 360 571 360 601 l 360 479 q 349 438 360 449 q 311 428 339 428 l 296 428 q 278 410 278 428 l 278 219 q 303 194 278 194 l 318 194 q 403 224 376 194 q 431 321 431 254 l 431 721 q 403 817 431 788 q 318 847 376 847 l 303 847 z "},"Ñ":{"ha":686,"x_min":60,"x_max":626,"o":"m 290 1146 q 253 1115 267 1146 q 222 1096 243 1096 l 139 1096 q 117 1102 122 1096 q 113 1125 111 1108 q 160 1251 124 1211 q 265 1290 197 1290 q 338 1265 303 1290 q 388 1240 372 1240 q 425 1272 413 1240 q 456 1290 435 1290 l 539 1290 q 561 1284 556 1290 q 565 1261 567 1278 q 413 1096 546 1096 q 340 1121 375 1096 q 290 1146 304 1146 m 410 699 q 428 683 418 683 q 439 697 439 683 l 439 990 q 449 1031 439 1021 q 490 1042 460 1042 l 575 1042 q 616 1031 606 1042 q 626 990 626 1021 l 626 51 q 616 10 626 21 q 575 0 606 0 l 490 0 q 449 10 460 0 q 439 51 439 21 l 439 242 q 406 375 439 313 l 276 615 q 258 631 268 631 q 247 617 247 631 l 247 51 q 237 10 247 21 q 196 0 226 0 l 111 0 q 70 10 81 0 q 60 51 60 21 l 60 990 q 70 1031 60 1021 q 111 1042 81 1042 l 165 1042 q 225 1030 206 1042 q 265 976 244 1018 l 410 699 z "},"Ò":{"ha":628,"x_min":46,"x_max":582,"o":"m 274 1300 q 302 1296 294 1300 q 318 1278 310 1292 l 396 1132 q 404 1110 404 1115 q 379 1093 404 1093 l 278 1093 q 246 1097 256 1093 q 226 1117 236 1101 l 125 1264 q 115 1286 115 1276 q 140 1300 115 1300 l 274 1300 m 582 306 q 523 57 582 128 q 314 -14 464 -14 q 105 57 164 -14 q 46 306 46 128 l 46 736 q 105 984 46 913 q 314 1056 164 1056 q 523 984 464 1056 q 582 736 582 913 l 582 306 m 243 258 q 260 199 243 217 q 314 181 276 181 q 368 199 351 181 q 385 258 385 217 l 385 776 q 368 842 385 822 q 314 861 351 861 q 260 842 276 861 q 243 776 243 822 l 243 258 z "},"Ó":{"ha":628,"x_min":46,"x_max":582,"o":"m 232 1132 l 310 1278 q 326 1296 318 1292 q 354 1300 333 1300 l 488 1300 q 513 1286 513 1300 q 503 1264 513 1276 l 401 1117 q 382 1097 392 1101 q 350 1093 372 1093 l 249 1093 q 224 1110 224 1093 q 232 1132 224 1115 m 582 306 q 523 57 582 128 q 314 -14 464 -14 q 105 57 164 -14 q 46 306 46 128 l 46 736 q 105 984 46 913 q 314 1056 164 1056 q 523 984 464 1056 q 582 736 582 913 l 582 306 m 243 258 q 260 199 243 217 q 314 181 276 181 q 368 199 351 181 q 385 258 385 217 l 385 776 q 368 842 385 822 q 314 861 351 861 q 260 842 276 861 q 243 776 243 822 l 243 258 z "},"Ô":{"ha":628,"x_min":46,"x_max":582,"o":"m 263 1306 l 365 1306 q 400 1301 390 1306 q 424 1278 410 1296 l 529 1135 q 542 1111 542 1117 q 521 1096 542 1096 l 411 1096 q 374 1114 388 1096 l 325 1183 q 314 1190 319 1190 q 303 1183 308 1190 l 254 1114 q 217 1096 240 1096 l 107 1096 q 86 1111 86 1096 q 99 1135 86 1117 l 204 1278 q 228 1301 218 1296 q 263 1306 238 1306 m 582 306 q 523 57 582 128 q 314 -14 464 -14 q 105 57 164 -14 q 46 306 46 128 l 46 736 q 105 984 46 913 q 314 1056 164 1056 q 523 984 464 1056 q 582 736 582 913 l 582 306 m 243 258 q 260 199 243 217 q 314 181 276 181 q 368 199 351 181 q 385 258 385 217 l 385 776 q 368 842 385 822 q 314 861 351 861 q 260 842 276 861 q 243 776 243 822 l 243 258 z "},"Õ":{"ha":628,"x_min":46,"x_max":582,"o":"m 265 1146 q 228 1115 242 1146 q 197 1096 218 1096 l 114 1096 q 92 1102 97 1096 q 88 1125 86 1108 q 135 1251 99 1211 q 240 1290 172 1290 q 313 1265 278 1290 q 363 1240 347 1240 q 400 1272 388 1240 q 431 1290 410 1290 l 514 1290 q 536 1284 531 1290 q 540 1261 542 1278 q 388 1096 521 1096 q 315 1121 350 1096 q 265 1146 279 1146 m 582 306 q 523 57 582 128 q 314 -14 464 -14 q 105 57 164 -14 q 46 306 46 128 l 46 736 q 105 984 46 913 q 314 1056 164 1056 q 523 984 464 1056 q 582 736 582 913 l 582 306 m 243 258 q 260 199 243 217 q 314 181 276 181 q 368 199 351 181 q 385 258 385 217 l 385 776 q 368 842 385 822 q 314 861 351 861 q 260 842 276 861 q 243 776 243 822 l 243 258 z "},"Ö":{"ha":628,"x_min":46,"x_max":582,"o":"m 296 1204 l 296 1168 q 211 1083 296 1083 l 175 1083 q 90 1168 90 1083 l 90 1204 q 175 1289 90 1289 l 211 1289 q 296 1204 296 1289 m 538 1204 l 538 1168 q 453 1083 538 1083 l 417 1083 q 332 1168 332 1083 l 332 1204 q 417 1289 332 1289 l 453 1289 q 538 1204 538 1289 m 582 306 q 523 57 582 128 q 314 -14 464 -14 q 105 57 164 -14 q 46 306 46 128 l 46 736 q 105 984 46 913 q 314 1056 164 1056 q 523 984 464 1056 q 582 736 582 913 l 582 306 m 243 258 q 260 199 243 217 q 314 181 276 181 q 368 199 351 181 q 385 258 385 217 l 385 776 q 368 842 385 822 q 314 861 351 861 q 260 842 276 861 q 243 776 243 822 l 243 258 z "},"×":{"ha":451,"x_min":4,"x_max":446,"o":"m 425 675 q 446 639 446 654 q 426 604 446 624 l 358 536 q 358 507 344 522 l 426 438 q 446 403 446 418 q 425 367 446 388 l 379 321 q 343 300 358 300 q 307 321 328 300 l 239 389 q 211 389 225 403 l 142 319 q 107 300 122 300 q 71 321 92 300 l 25 367 q 4 403 4 388 q 25 439 4 418 l 92 506 q 92 535 106 519 l 24 604 q 4 639 4 624 q 25 675 4 654 l 71 721 q 107 742 92 742 q 143 721 122 742 l 211 653 q 239 653 225 639 l 308 722 q 343 742 328 742 q 379 721 358 742 l 425 675 z "},"Ø":{"ha":635,"x_min":40,"x_max":596,"o":"m 318 -14 q 188 13 244 -14 q 165 4 171 19 l 151 -37 q 141 -56 146 -51 q 121 -60 136 -60 l 60 -60 q 40 -46 40 -60 q 46 -25 40 -37 l 83 68 q 82 100 90 83 q 50 306 50 165 l 50 736 q 109 985 50 914 q 318 1056 168 1056 q 449 1029 392 1056 q 471 1038 465 1022 l 485 1079 q 495 1097 490 1093 q 515 1101 500 1101 l 576 1101 q 596 1088 596 1101 q 590 1067 596 1079 l 553 974 q 554 942 546 958 q 586 736 586 876 l 586 306 q 527 57 586 128 q 318 -14 468 -14 m 256 503 l 378 813 q 375 836 382 825 q 318 861 360 861 q 264 843 281 861 q 247 783 247 825 l 247 504 q 251 498 247 499 q 256 503 254 497 m 381 539 l 258 229 q 261 206 254 217 q 318 181 276 181 q 372 199 356 181 q 389 258 389 217 l 389 538 q 385 544 389 543 q 381 539 382 544 z "},"Ù":{"ha":642,"x_min":53,"x_max":589,"o":"m 276 1300 q 305 1296 297 1300 q 321 1278 313 1292 l 399 1132 q 407 1110 407 1115 q 382 1093 407 1093 l 281 1093 q 249 1097 258 1093 q 229 1117 239 1101 l 128 1264 q 118 1286 118 1276 q 143 1300 118 1300 l 276 1300 m 397 990 q 408 1031 397 1021 q 449 1042 418 1042 l 538 1042 q 578 1031 568 1042 q 589 990 589 1021 l 589 292 q 530 54 589 122 q 321 -14 471 -14 q 112 54 171 -14 q 53 292 53 122 l 53 990 q 63 1031 53 1021 q 104 1042 74 1042 l 193 1042 q 234 1031 224 1042 q 244 990 244 1021 l 244 258 q 263 199 244 217 q 321 181 281 181 q 397 258 397 181 l 397 990 z "},"Ú":{"ha":642,"x_min":53,"x_max":589,"o":"m 258 1132 l 336 1278 q 352 1296 344 1292 q 381 1300 360 1300 l 514 1300 q 539 1286 539 1300 q 529 1264 539 1276 l 428 1117 q 408 1097 418 1101 q 376 1093 399 1093 l 275 1093 q 250 1110 250 1093 q 258 1132 250 1115 m 397 990 q 408 1031 397 1021 q 449 1042 418 1042 l 538 1042 q 578 1031 568 1042 q 589 990 589 1021 l 589 292 q 530 54 589 122 q 321 -14 471 -14 q 112 54 171 -14 q 53 292 53 122 l 53 990 q 63 1031 53 1021 q 104 1042 74 1042 l 193 1042 q 234 1031 224 1042 q 244 990 244 1021 l 244 258 q 263 199 244 217 q 321 181 281 181 q 397 258 397 181 l 397 990 z "},"Û":{"ha":642,"x_min":53,"x_max":589,"o":"m 265 1306 l 368 1306 q 403 1301 393 1306 q 426 1278 413 1296 l 532 1135 q 544 1111 544 1117 q 524 1096 544 1096 l 414 1096 q 376 1114 390 1096 l 328 1183 q 317 1190 322 1190 q 306 1183 311 1190 l 257 1114 q 219 1096 243 1096 l 110 1096 q 89 1111 89 1096 q 101 1135 89 1117 l 207 1278 q 231 1301 221 1296 q 265 1306 240 1306 m 397 990 q 408 1031 397 1021 q 449 1042 418 1042 l 538 1042 q 578 1031 568 1042 q 589 990 589 1021 l 589 292 q 530 54 589 122 q 321 -14 471 -14 q 112 54 171 -14 q 53 292 53 122 l 53 990 q 63 1031 53 1021 q 104 1042 74 1042 l 193 1042 q 234 1031 224 1042 q 244 990 244 1021 l 244 258 q 263 199 244 217 q 321 181 281 181 q 397 258 397 181 l 397 990 z "},"Ü":{"ha":642,"x_min":53,"x_max":589,"o":"m 303 1204 l 303 1168 q 218 1083 303 1083 l 182 1083 q 97 1168 97 1083 l 97 1204 q 182 1289 97 1289 l 218 1289 q 303 1204 303 1289 m 544 1204 l 544 1168 q 460 1083 544 1083 l 424 1083 q 339 1168 339 1083 l 339 1204 q 424 1289 339 1289 l 460 1289 q 544 1204 544 1289 m 397 990 q 408 1031 397 1021 q 449 1042 418 1042 l 538 1042 q 578 1031 568 1042 q 589 990 589 1021 l 589 292 q 530 54 589 122 q 321 -14 471 -14 q 112 54 171 -14 q 53 292 53 122 l 53 990 q 63 1031 53 1021 q 104 1042 74 1042 l 193 1042 q 234 1031 224 1042 q 244 990 244 1021 l 244 258 q 263 199 244 217 q 321 181 281 181 q 397 258 397 181 l 397 990 z "},"Ý":{"ha":572,"x_min":21,"x_max":565,"o":"m 208 1132 l 286 1278 q 302 1296 294 1292 q 331 1300 310 1300 l 464 1300 q 489 1286 489 1300 q 479 1264 489 1276 l 378 1117 q 358 1097 368 1101 q 326 1093 349 1093 l 225 1093 q 200 1110 200 1093 q 208 1132 200 1115 m 336 0 l 250 0 q 209 10 219 0 q 199 51 199 21 l 199 304 q 190 350 199 331 l 57 665 q 27 759 33 719 q 21 881 21 799 l 21 990 q 31 1031 21 1021 q 72 1042 42 1042 l 167 1042 q 208 1031 197 1042 q 218 990 218 1021 l 218 847 q 229 764 218 801 l 276 593 q 293 576 282 576 q 310 593 304 576 l 357 764 q 368 847 368 801 l 368 990 q 378 1031 368 1021 q 419 1042 389 1042 l 514 1042 q 555 1031 544 1042 q 565 990 565 1021 l 565 881 q 559 759 565 799 q 529 665 553 719 l 396 350 q 388 304 388 331 l 388 51 q 377 10 388 21 q 336 0 367 0 z "},"Þ":{"ha":621,"x_min":60,"x_max":601,"o":"m 251 889 q 256 869 251 875 q 276 864 261 864 l 294 864 q 528 801 454 864 q 601 600 601 739 l 601 443 q 528 242 601 304 q 294 179 454 179 l 276 179 q 256 174 261 179 q 251 154 251 169 l 251 51 q 241 10 251 21 q 200 0 231 0 l 111 0 q 70 10 81 0 q 60 51 60 21 l 60 990 q 70 1031 60 1021 q 111 1042 81 1042 l 200 1042 q 241 1031 231 1042 q 251 990 251 1021 l 251 889 m 251 644 l 251 399 q 256 378 251 383 q 276 374 261 374 l 306 374 q 381 397 357 374 q 404 472 404 419 l 404 571 q 381 647 404 624 q 306 669 357 669 l 276 669 q 256 664 261 669 q 251 644 251 658 z "},"ß":{"ha":633,"x_min":53,"x_max":608,"o":"m 581 792 l 581 763 q 565 635 581 674 q 494 563 549 597 l 483 556 q 478 547 478 551 q 483 539 478 543 l 494 532 q 583 450 558 492 q 608 321 608 408 l 608 268 q 550 61 608 122 q 344 0 492 0 q 297 10 310 0 q 285 51 285 21 l 285 143 q 297 184 285 174 q 346 194 310 194 q 411 256 411 194 l 411 315 q 398 377 411 357 q 343 419 385 397 q 296 454 307 439 q 285 507 285 469 l 285 579 q 296 636 285 618 q 340 672 307 654 q 383 743 383 694 l 383 783 q 318 861 383 861 q 266 843 282 861 q 250 783 250 825 l 250 51 q 240 10 250 21 q 199 0 229 0 l 104 0 q 63 10 74 0 q 53 51 53 21 l 53 750 q 117 985 53 915 q 321 1056 182 1056 q 520 990 460 1056 q 581 792 581 924 z "},"à":{"ha":622,"x_min":13,"x_max":610,"o":"m 264 1300 q 292 1296 285 1300 q 308 1278 300 1292 l 386 1132 q 394 1110 394 1115 q 369 1093 394 1093 l 268 1093 q 236 1097 246 1093 q 217 1117 226 1101 l 115 1264 q 106 1286 106 1276 q 131 1300 106 1300 l 264 1300 m 224 1042 l 399 1042 q 463 1026 444 1042 q 488 969 482 1010 l 610 51 q 604 10 614 21 q 564 0 594 0 l 468 0 q 426 10 438 0 q 411 51 415 19 l 393 203 q 371 221 392 221 l 251 221 q 229 203 231 221 l 211 51 q 196 10 207 19 q 154 0 185 0 l 58 0 q 18 10 28 0 q 13 51 8 21 l 135 969 q 159 1026 140 1010 q 224 1042 178 1042 m 336 758 q 311 778 335 778 q 286 758 288 778 l 254 435 q 257 418 253 422 q 275 414 261 414 l 347 414 q 365 418 361 414 q 368 435 369 422 l 336 758 z "},"á":{"ha":622,"x_min":13,"x_max":610,"o":"m 240 1132 l 318 1278 q 334 1296 326 1292 q 363 1300 342 1300 l 496 1300 q 521 1286 521 1300 q 511 1264 521 1276 l 410 1117 q 390 1097 400 1101 q 358 1093 381 1093 l 257 1093 q 232 1110 232 1093 q 240 1132 232 1115 m 224 1042 l 399 1042 q 463 1026 444 1042 q 488 969 482 1010 l 610 51 q 604 10 614 21 q 564 0 594 0 l 468 0 q 426 10 438 0 q 411 51 415 19 l 393 203 q 371 221 392 221 l 251 221 q 229 203 231 221 l 211 51 q 196 10 207 19 q 154 0 185 0 l 58 0 q 18 10 28 0 q 13 51 8 21 l 135 969 q 159 1026 140 1010 q 224 1042 178 1042 m 336 758 q 311 778 335 778 q 286 758 288 778 l 254 435 q 257 418 253 422 q 275 414 261 414 l 347 414 q 365 418 361 414 q 368 435 369 422 l 336 758 z "},"â":{"ha":622,"x_min":13,"x_max":610,"o":"m 258 1306 l 361 1306 q 396 1301 386 1306 q 419 1278 406 1296 l 525 1135 q 538 1111 538 1117 q 517 1096 538 1096 l 407 1096 q 369 1114 383 1096 l 321 1183 q 310 1190 315 1190 q 299 1183 304 1190 l 250 1114 q 213 1096 236 1096 l 103 1096 q 82 1111 82 1096 q 94 1135 82 1117 l 200 1278 q 224 1301 214 1296 q 258 1306 233 1306 m 224 1042 l 399 1042 q 463 1026 444 1042 q 488 969 482 1010 l 610 51 q 604 10 614 21 q 564 0 594 0 l 468 0 q 426 10 438 0 q 411 51 415 19 l 393 203 q 371 221 392 221 l 251 221 q 229 203 231 221 l 211 51 q 196 10 207 19 q 154 0 185 0 l 58 0 q 18 10 28 0 q 13 51 8 21 l 135 969 q 159 1026 140 1010 q 224 1042 178 1042 m 336 758 q 311 778 335 778 q 286 758 288 778 l 254 435 q 257 418 253 422 q 275 414 261 414 l 347 414 q 365 418 361 414 q 368 435 369 422 l 336 758 z "},"ã":{"ha":622,"x_min":13,"x_max":610,"o":"m 261 1146 q 224 1115 238 1146 q 193 1096 214 1096 l 110 1096 q 88 1102 93 1096 q 83 1125 82 1108 q 131 1251 94 1211 q 236 1290 168 1290 q 308 1265 274 1290 q 358 1240 343 1240 q 396 1272 383 1240 q 426 1290 406 1290 l 510 1290 q 532 1284 526 1290 q 536 1261 538 1278 q 383 1096 517 1096 q 310 1121 346 1096 q 261 1146 275 1146 m 224 1042 l 399 1042 q 463 1026 444 1042 q 488 969 482 1010 l 610 51 q 604 10 614 21 q 564 0 594 0 l 468 0 q 426 10 438 0 q 411 51 415 19 l 393 203 q 371 221 392 221 l 251 221 q 229 203 231 221 l 211 51 q 196 10 207 19 q 154 0 185 0 l 58 0 q 18 10 28 0 q 13 51 8 21 l 135 969 q 159 1026 140 1010 q 224 1042 178 1042 m 336 758 q 311 778 335 778 q 286 758 288 778 l 254 435 q 257 418 253 422 q 275 414 261 414 l 347 414 q 365 418 361 414 q 368 435 369 422 l 336 758 z "},"ä":{"ha":622,"x_min":13,"x_max":610,"o":"m 292 1204 l 292 1168 q 207 1083 292 1083 l 171 1083 q 86 1168 86 1083 l 86 1204 q 171 1289 86 1289 l 207 1289 q 292 1204 292 1289 m 533 1204 l 533 1168 q 449 1083 533 1083 l 413 1083 q 328 1168 328 1083 l 328 1204 q 413 1289 328 1289 l 449 1289 q 533 1204 533 1289 m 224 1042 l 399 1042 q 463 1026 444 1042 q 488 969 482 1010 l 610 51 q 604 10 614 21 q 564 0 594 0 l 468 0 q 426 10 438 0 q 411 51 415 19 l 393 203 q 371 221 392 221 l 251 221 q 229 203 231 221 l 211 51 q 196 10 207 19 q 154 0 185 0 l 58 0 q 18 10 28 0 q 13 51 8 21 l 135 969 q 159 1026 140 1010 q 224 1042 178 1042 m 336 758 q 311 778 335 778 q 286 758 288 778 l 254 435 q 257 418 253 422 q 275 414 261 414 l 347 414 q 365 418 361 414 q 368 435 369 422 l 336 758 z "},"å":{"ha":622,"x_min":13,"x_max":610,"o":"m 461 1246 l 461 1215 q 325 1078 461 1078 l 294 1078 q 158 1215 158 1078 l 158 1246 q 294 1383 158 1383 l 325 1383 q 461 1246 461 1383 m 317 1172 q 361 1222 361 1172 l 361 1235 q 317 1285 361 1285 l 306 1285 q 261 1235 261 1285 l 261 1222 q 306 1172 261 1172 l 317 1172 m 224 1042 l 399 1042 q 463 1026 444 1042 q 488 969 482 1010 l 610 51 q 604 10 614 21 q 564 0 594 0 l 468 0 q 426 10 438 0 q 411 51 415 19 l 393 203 q 371 221 392 221 l 251 221 q 229 203 231 221 l 211 51 q 196 10 207 19 q 154 0 185 0 l 58 0 q 18 10 28 0 q 13 51 8 21 l 135 969 q 159 1026 140 1010 q 224 1042 178 1042 m 336 758 q 311 778 335 778 q 286 758 288 778 l 254 435 q 257 418 253 422 q 275 414 261 414 l 347 414 q 365 418 361 414 q 368 435 369 422 l 336 758 z "},"æ":{"ha":806,"x_min":11,"x_max":776,"o":"m 133 967 q 159 1024 139 1007 q 228 1042 179 1042 l 725 1042 q 766 1031 756 1042 q 776 990 776 1021 l 776 899 q 766 858 776 868 q 725 847 756 847 l 574 847 q 553 842 558 847 q 549 822 549 836 l 549 667 q 574 642 549 642 l 708 642 q 749 631 739 642 q 760 590 760 621 l 760 499 q 749 458 760 468 q 711 447 739 447 l 574 447 q 553 442 558 447 q 549 422 549 436 l 549 219 q 574 194 549 194 l 725 194 q 766 184 756 194 q 776 143 776 174 l 776 51 q 766 10 776 21 q 725 0 756 0 l 408 0 q 367 10 378 0 q 357 51 357 21 l 357 196 q 352 216 357 211 q 332 221 347 221 l 254 221 q 231 203 232 221 l 208 51 q 193 10 204 19 q 151 0 182 0 l 57 0 q 17 10 26 0 q 11 51 7 21 l 133 967 m 257 443 q 260 419 256 425 q 285 414 265 414 l 332 414 q 352 419 347 414 q 357 439 357 425 l 357 818 q 351 841 357 835 q 326 847 344 847 q 303 842 310 847 q 294 818 296 836 l 257 443 z "},"ç":{"ha":610,"x_min":46,"x_max":579,"o":"m 479 -185 q 332 -335 479 -335 q 183 -211 197 -335 l 182 -199 q 204 -176 181 -176 l 275 -176 q 289 -178 285 -176 q 294 -185 293 -181 q 297 -199 296 -189 q 332 -226 301 -226 q 361 -183 361 -226 q 352 -152 361 -161 q 319 -140 343 -143 q 265 -121 279 -137 q 250 -62 250 -104 l 250 -33 q 235 -12 250 -15 q 86 77 126 11 q 46 292 46 143 l 46 750 q 105 988 46 919 q 314 1056 164 1056 q 522 988 464 1056 q 579 750 579 919 l 579 708 q 569 667 579 678 q 528 657 558 657 l 439 657 q 398 667 408 657 q 388 708 388 678 l 388 783 q 315 861 388 861 q 243 783 243 861 l 243 258 q 315 181 243 181 q 388 258 388 181 l 388 333 q 398 374 388 364 q 439 385 408 385 l 528 385 q 569 374 558 385 q 579 333 579 364 l 579 292 q 532 70 579 138 q 375 -8 485 3 q 360 -26 360 -10 q 364 -45 360 -40 q 382 -53 368 -50 q 479 -185 479 -78 z "},"è":{"ha":546,"x_min":60,"x_max":517,"o":"m 256 1300 q 284 1296 276 1300 q 300 1278 292 1292 l 378 1132 q 386 1110 386 1115 q 361 1093 386 1093 l 260 1093 q 228 1097 238 1093 q 208 1117 218 1101 l 107 1264 q 97 1286 97 1276 q 122 1300 97 1300 l 256 1300 m 251 822 l 251 667 q 276 642 251 642 l 449 642 q 490 631 479 642 q 500 590 500 621 l 500 499 q 490 458 500 468 q 451 447 479 447 l 276 447 q 256 442 261 447 q 251 422 251 436 l 251 219 q 276 194 251 194 l 465 194 q 506 184 496 194 q 517 143 517 174 l 517 51 q 506 10 517 21 q 465 0 496 0 l 111 0 q 70 10 81 0 q 60 51 60 21 l 60 990 q 70 1031 60 1021 q 111 1042 81 1042 l 465 1042 q 506 1031 496 1042 q 517 990 517 1021 l 517 899 q 506 858 517 868 q 465 847 496 847 l 276 847 q 256 842 261 847 q 251 822 251 836 z "},"é":{"ha":546,"x_min":60,"x_max":517,"o":"m 200 1132 l 278 1278 q 294 1296 286 1292 q 322 1300 301 1300 l 456 1300 q 481 1286 481 1300 q 471 1264 481 1276 l 369 1117 q 350 1097 360 1101 q 318 1093 340 1093 l 217 1093 q 192 1110 192 1093 q 200 1132 192 1115 m 251 822 l 251 667 q 276 642 251 642 l 449 642 q 490 631 479 642 q 500 590 500 621 l 500 499 q 490 458 500 468 q 451 447 479 447 l 276 447 q 256 442 261 447 q 251 422 251 436 l 251 219 q 276 194 251 194 l 465 194 q 506 184 496 194 q 517 143 517 174 l 517 51 q 506 10 517 21 q 465 0 496 0 l 111 0 q 70 10 81 0 q 60 51 60 21 l 60 990 q 70 1031 60 1021 q 111 1042 81 1042 l 465 1042 q 506 1031 496 1042 q 517 990 517 1021 l 517 899 q 506 858 517 868 q 465 847 496 847 l 276 847 q 256 842 261 847 q 251 822 251 836 z "},"ê":{"ha":546,"x_min":54,"x_max":517,"o":"m 231 1306 l 333 1306 q 368 1301 358 1306 q 392 1278 378 1296 l 497 1135 q 510 1111 510 1117 q 489 1096 510 1096 l 379 1096 q 342 1114 356 1096 l 293 1183 q 282 1190 288 1190 q 271 1183 276 1190 l 222 1114 q 185 1096 208 1096 l 75 1096 q 54 1111 54 1096 q 67 1135 54 1117 l 172 1278 q 196 1301 186 1296 q 231 1306 206 1306 m 251 822 l 251 667 q 276 642 251 642 l 449 642 q 490 631 479 642 q 500 590 500 621 l 500 499 q 490 458 500 468 q 451 447 479 447 l 276 447 q 256 442 261 447 q 251 422 251 436 l 251 219 q 276 194 251 194 l 465 194 q 506 184 496 194 q 517 143 517 174 l 517 51 q 506 10 517 21 q 465 0 496 0 l 111 0 q 70 10 81 0 q 60 51 60 21 l 60 990 q 70 1031 60 1021 q 111 1042 81 1042 l 465 1042 q 506 1031 496 1042 q 517 990 517 1021 l 517 899 q 506 858 517 868 q 465 847 496 847 l 276 847 q 256 842 261 847 q 251 822 251 836 z "},"ë":{"ha":546,"x_min":58,"x_max":517,"o":"m 264 1204 l 264 1168 q 179 1083 264 1083 l 143 1083 q 58 1168 58 1083 l 58 1204 q 143 1289 58 1289 l 179 1289 q 264 1204 264 1289 m 506 1204 l 506 1168 q 421 1083 506 1083 l 385 1083 q 300 1168 300 1083 l 300 1204 q 385 1289 300 1289 l 421 1289 q 506 1204 506 1289 m 251 822 l 251 667 q 276 642 251 642 l 449 642 q 490 631 479 642 q 500 590 500 621 l 500 499 q 490 458 500 468 q 451 447 479 447 l 276 447 q 256 442 261 447 q 251 422 251 436 l 251 219 q 276 194 251 194 l 465 194 q 506 184 496 194 q 517 143 517 174 l 517 51 q 506 10 517 21 q 465 0 496 0 l 111 0 q 70 10 81 0 q 60 51 60 21 l 60 990 q 70 1031 60 1021 q 111 1042 81 1042 l 465 1042 q 506 1031 496 1042 q 517 990 517 1021 l 517 899 q 506 858 517 868 q 465 847 496 847 l 276 847 q 256 842 261 847 q 251 822 251 836 z "},"ì":{"ha":311,"x_min":-51,"x_max":251,"o":"m 107 1300 q 135 1296 128 1300 q 151 1278 143 1292 l 229 1132 q 238 1110 238 1115 q 213 1093 238 1093 l 111 1093 q 79 1097 89 1093 q 60 1117 69 1101 l -42 1264 q -51 1286 -51 1276 q -26 1300 -51 1300 l 107 1300 m 251 990 l 251 51 q 241 10 251 21 q 200 0 231 0 l 111 0 q 70 10 81 0 q 60 51 60 21 l 60 990 q 70 1031 60 1021 q 111 1042 81 1042 l 200 1042 q 241 1031 231 1042 q 251 990 251 1021 z "},"í":{"ha":311,"x_min":60,"x_max":368,"o":"m 88 1132 l 165 1278 q 181 1296 174 1292 q 210 1300 189 1300 l 343 1300 q 368 1286 368 1300 q 358 1264 368 1276 l 257 1117 q 238 1097 247 1101 q 206 1093 228 1093 l 104 1093 q 79 1110 79 1093 q 88 1132 79 1115 m 251 990 l 251 51 q 241 10 251 21 q 200 0 231 0 l 111 0 q 70 10 81 0 q 60 51 60 21 l 60 990 q 70 1031 60 1021 q 111 1042 81 1042 l 200 1042 q 241 1031 231 1042 q 251 990 251 1021 z "},"î":{"ha":311,"x_min":-72,"x_max":383,"o":"m 104 1306 l 207 1306 q 242 1301 232 1306 q 265 1278 251 1296 l 371 1135 q 383 1111 383 1117 q 363 1096 383 1096 l 253 1096 q 215 1114 229 1096 l 167 1183 q 156 1190 161 1190 q 144 1183 150 1190 l 96 1114 q 58 1096 82 1096 l -51 1096 q -72 1111 -72 1096 q -60 1135 -72 1117 l 46 1278 q 69 1301 60 1296 q 104 1306 79 1306 m 251 990 l 251 51 q 241 10 251 21 q 200 0 231 0 l 111 0 q 70 10 81 0 q 60 51 60 21 l 60 990 q 70 1031 60 1021 q 111 1042 81 1042 l 200 1042 q 241 1031 231 1042 q 251 990 251 1021 z "},"ï":{"ha":311,"x_min":-68,"x_max":379,"o":"m 138 1204 l 138 1168 q 53 1083 138 1083 l 17 1083 q -68 1168 -68 1083 l -68 1204 q 17 1289 -68 1289 l 53 1289 q 138 1204 138 1289 m 379 1204 l 379 1168 q 294 1083 379 1083 l 258 1083 q 174 1168 174 1083 l 174 1204 q 258 1289 174 1289 l 294 1289 q 379 1204 379 1289 m 251 990 l 251 51 q 241 10 251 21 q 200 0 231 0 l 111 0 q 70 10 81 0 q 60 51 60 21 l 60 990 q 70 1031 60 1021 q 111 1042 81 1042 l 200 1042 q 241 1031 231 1042 q 251 990 251 1021 z "},"ð":{"ha":671,"x_min":4,"x_max":628,"o":"m 68 622 q 86 640 86 622 l 86 990 q 97 1031 86 1021 q 138 1042 107 1042 l 307 1042 q 564 968 500 1042 q 628 708 628 894 l 628 333 q 564 74 628 147 q 307 0 500 0 l 138 0 q 97 10 107 0 q 86 51 86 21 l 86 410 q 68 428 86 428 l 53 428 q 15 438 25 428 q 4 479 4 449 l 4 571 q 15 612 4 601 q 56 622 25 622 l 68 622 m 303 847 q 283 842 289 847 q 278 822 278 836 l 278 640 q 296 622 278 622 l 308 622 q 349 612 339 622 q 360 571 360 601 l 360 479 q 349 438 360 449 q 311 428 339 428 l 296 428 q 278 410 278 428 l 278 219 q 303 194 278 194 l 318 194 q 403 224 376 194 q 431 321 431 254 l 431 721 q 403 817 431 788 q 318 847 376 847 l 303 847 z "},"ñ":{"ha":681,"x_min":60,"x_max":621,"o":"m 290 1146 q 253 1115 267 1146 q 222 1096 243 1096 l 139 1096 q 117 1102 122 1096 q 113 1125 111 1108 q 160 1251 124 1211 q 265 1290 197 1290 q 338 1265 303 1290 q 388 1240 372 1240 q 425 1272 413 1240 q 456 1290 435 1290 l 539 1290 q 561 1284 556 1290 q 565 1261 567 1278 q 413 1096 546 1096 q 340 1121 375 1096 q 290 1146 304 1146 m 440 538 l 440 990 q 451 1031 440 1021 q 492 1042 461 1042 l 569 1042 q 610 1031 600 1042 q 621 990 621 1021 l 621 51 q 610 10 621 21 q 569 0 600 0 l 506 0 q 460 9 474 0 q 436 47 447 18 l 263 507 q 249 519 257 519 q 239 504 239 519 l 239 51 q 228 10 239 21 q 188 0 218 0 l 111 0 q 70 10 81 0 q 60 51 60 21 l 60 990 q 70 1031 60 1021 q 111 1042 81 1042 l 174 1042 q 218 1035 206 1042 q 240 1006 231 1029 l 417 535 q 431 522 422 522 q 440 538 440 522 z "},"ò":{"ha":628,"x_min":46,"x_max":582,"o":"m 274 1300 q 302 1296 294 1300 q 318 1278 310 1292 l 396 1132 q 404 1110 404 1115 q 379 1093 404 1093 l 278 1093 q 246 1097 256 1093 q 226 1117 236 1101 l 125 1264 q 115 1286 115 1276 q 140 1300 115 1300 l 274 1300 m 582 306 q 523 57 582 128 q 314 -14 464 -14 q 105 57 164 -14 q 46 306 46 128 l 46 736 q 105 984 46 913 q 314 1056 164 1056 q 523 984 464 1056 q 582 736 582 913 l 582 306 m 243 258 q 260 199 243 217 q 314 181 276 181 q 368 199 351 181 q 385 258 385 217 l 385 776 q 368 842 385 822 q 314 861 351 861 q 260 842 276 861 q 243 776 243 822 l 243 258 z "},"ó":{"ha":628,"x_min":46,"x_max":582,"o":"m 232 1132 l 310 1278 q 326 1296 318 1292 q 354 1300 333 1300 l 488 1300 q 513 1286 513 1300 q 503 1264 513 1276 l 401 1117 q 382 1097 392 1101 q 350 1093 372 1093 l 249 1093 q 224 1110 224 1093 q 232 1132 224 1115 m 582 306 q 523 57 582 128 q 314 -14 464 -14 q 105 57 164 -14 q 46 306 46 128 l 46 736 q 105 984 46 913 q 314 1056 164 1056 q 523 984 464 1056 q 582 736 582 913 l 582 306 m 243 258 q 260 199 243 217 q 314 181 276 181 q 368 199 351 181 q 385 258 385 217 l 385 776 q 368 842 385 822 q 314 861 351 861 q 260 842 276 861 q 243 776 243 822 l 243 258 z "},"ô":{"ha":628,"x_min":46,"x_max":582,"o":"m 263 1306 l 365 1306 q 400 1301 390 1306 q 424 1278 410 1296 l 529 1135 q 542 1111 542 1117 q 521 1096 542 1096 l 411 1096 q 374 1114 388 1096 l 325 1183 q 314 1190 319 1190 q 303 1183 308 1190 l 254 1114 q 217 1096 240 1096 l 107 1096 q 86 1111 86 1096 q 99 1135 86 1117 l 204 1278 q 228 1301 218 1296 q 263 1306 238 1306 m 582 306 q 523 57 582 128 q 314 -14 464 -14 q 105 57 164 -14 q 46 306 46 128 l 46 736 q 105 984 46 913 q 314 1056 164 1056 q 523 984 464 1056 q 582 736 582 913 l 582 306 m 243 258 q 260 199 243 217 q 314 181 276 181 q 368 199 351 181 q 385 258 385 217 l 385 776 q 368 842 385 822 q 314 861 351 861 q 260 842 276 861 q 243 776 243 822 l 243 258 z "},"õ":{"ha":628,"x_min":46,"x_max":582,"o":"m 265 1146 q 228 1115 242 1146 q 197 1096 218 1096 l 114 1096 q 92 1102 97 1096 q 88 1125 86 1108 q 135 1251 99 1211 q 240 1290 172 1290 q 313 1265 278 1290 q 363 1240 347 1240 q 400 1272 388 1240 q 431 1290 410 1290 l 514 1290 q 536 1284 531 1290 q 540 1261 542 1278 q 388 1096 521 1096 q 315 1121 350 1096 q 265 1146 279 1146 m 582 306 q 523 57 582 128 q 314 -14 464 -14 q 105 57 164 -14 q 46 306 46 128 l 46 736 q 105 984 46 913 q 314 1056 164 1056 q 523 984 464 1056 q 582 736 582 913 l 582 306 m 243 258 q 260 199 243 217 q 314 181 276 181 q 368 199 351 181 q 385 258 385 217 l 385 776 q 368 842 385 822 q 314 861 351 861 q 260 842 276 861 q 243 776 243 822 l 243 258 z "},"ö":{"ha":628,"x_min":46,"x_max":582,"o":"m 296 1204 l 296 1168 q 211 1083 296 1083 l 175 1083 q 90 1168 90 1083 l 90 1204 q 175 1289 90 1289 l 211 1289 q 296 1204 296 1289 m 538 1204 l 538 1168 q 453 1083 538 1083 l 417 1083 q 332 1168 332 1083 l 332 1204 q 417 1289 332 1289 l 453 1289 q 538 1204 538 1289 m 582 306 q 523 57 582 128 q 314 -14 464 -14 q 105 57 164 -14 q 46 306 46 128 l 46 736 q 105 984 46 913 q 314 1056 164 1056 q 523 984 464 1056 q 582 736 582 913 l 582 306 m 243 258 q 260 199 243 217 q 314 181 276 181 q 368 199 351 181 q 385 258 385 217 l 385 776 q 368 842 385 822 q 314 861 351 861 q 260 842 276 861 q 243 776 243 822 l 243 258 z "},"÷":{"ha":481,"x_min":4,"x_max":476,"o":"m 336 753 l 336 731 q 251 646 336 646 l 229 646 q 144 731 144 646 l 144 753 q 229 838 144 838 l 251 838 q 336 753 336 838 m 476 475 q 466 434 476 444 q 428 424 456 424 l 53 424 q 15 434 25 424 q 4 475 4 444 l 4 567 q 15 608 4 597 q 56 618 25 618 l 425 618 q 466 608 456 618 q 476 567 476 597 l 476 475 m 336 311 l 336 289 q 251 204 336 204 l 229 204 q 144 289 144 204 l 144 311 q 229 396 144 396 l 251 396 q 336 311 336 396 z "},"ø":{"ha":635,"x_min":40,"x_max":596,"o":"m 318 -14 q 188 13 244 -14 q 165 4 171 19 l 151 -37 q 141 -56 146 -51 q 121 -60 136 -60 l 60 -60 q 40 -46 40 -60 q 46 -25 40 -37 l 83 68 q 82 100 90 83 q 50 306 50 165 l 50 736 q 109 985 50 914 q 318 1056 168 1056 q 449 1029 392 1056 q 471 1038 465 1022 l 485 1079 q 495 1097 490 1093 q 515 1101 500 1101 l 576 1101 q 596 1088 596 1101 q 590 1067 596 1079 l 553 974 q 554 942 546 958 q 586 736 586 876 l 586 306 q 527 57 586 128 q 318 -14 468 -14 m 256 503 l 378 813 q 375 836 382 825 q 318 861 360 861 q 264 843 281 861 q 247 783 247 825 l 247 504 q 251 498 247 499 q 256 503 254 497 m 381 539 l 258 229 q 261 206 254 217 q 318 181 276 181 q 372 199 356 181 q 389 258 389 217 l 389 538 q 385 544 389 543 q 381 539 382 544 z "},"ù":{"ha":642,"x_min":53,"x_max":589,"o":"m 276 1300 q 305 1296 297 1300 q 321 1278 313 1292 l 399 1132 q 407 1110 407 1115 q 382 1093 407 1093 l 281 1093 q 249 1097 258 1093 q 229 1117 239 1101 l 128 1264 q 118 1286 118 1276 q 143 1300 118 1300 l 276 1300 m 397 990 q 408 1031 397 1021 q 449 1042 418 1042 l 538 1042 q 578 1031 568 1042 q 589 990 589 1021 l 589 292 q 530 54 589 122 q 321 -14 471 -14 q 112 54 171 -14 q 53 292 53 122 l 53 990 q 63 1031 53 1021 q 104 1042 74 1042 l 193 1042 q 234 1031 224 1042 q 244 990 244 1021 l 244 258 q 263 199 244 217 q 321 181 281 181 q 397 258 397 181 l 397 990 z "},"ú":{"ha":642,"x_min":53,"x_max":589,"o":"m 258 1132 l 336 1278 q 352 1296 344 1292 q 381 1300 360 1300 l 514 1300 q 539 1286 539 1300 q 529 1264 539 1276 l 428 1117 q 408 1097 418 1101 q 376 1093 399 1093 l 275 1093 q 250 1110 250 1093 q 258 1132 250 1115 m 397 990 q 408 1031 397 1021 q 449 1042 418 1042 l 538 1042 q 578 1031 568 1042 q 589 990 589 1021 l 589 292 q 530 54 589 122 q 321 -14 471 -14 q 112 54 171 -14 q 53 292 53 122 l 53 990 q 63 1031 53 1021 q 104 1042 74 1042 l 193 1042 q 234 1031 224 1042 q 244 990 244 1021 l 244 258 q 263 199 244 217 q 321 181 281 181 q 397 258 397 181 l 397 990 z "},"û":{"ha":642,"x_min":53,"x_max":589,"o":"m 265 1306 l 368 1306 q 403 1301 393 1306 q 426 1278 413 1296 l 532 1135 q 544 1111 544 1117 q 524 1096 544 1096 l 414 1096 q 376 1114 390 1096 l 328 1183 q 317 1190 322 1190 q 306 1183 311 1190 l 257 1114 q 219 1096 243 1096 l 110 1096 q 89 1111 89 1096 q 101 1135 89 1117 l 207 1278 q 231 1301 221 1296 q 265 1306 240 1306 m 397 990 q 408 1031 397 1021 q 449 1042 418 1042 l 538 1042 q 578 1031 568 1042 q 589 990 589 1021 l 589 292 q 530 54 589 122 q 321 -14 471 -14 q 112 54 171 -14 q 53 292 53 122 l 53 990 q 63 1031 53 1021 q 104 1042 74 1042 l 193 1042 q 234 1031 224 1042 q 244 990 244 1021 l 244 258 q 263 199 244 217 q 321 181 281 181 q 397 258 397 181 l 397 990 z "},"ü":{"ha":642,"x_min":53,"x_max":589,"o":"m 303 1204 l 303 1168 q 218 1083 303 1083 l 182 1083 q 97 1168 97 1083 l 97 1204 q 182 1289 97 1289 l 218 1289 q 303 1204 303 1289 m 544 1204 l 544 1168 q 460 1083 544 1083 l 424 1083 q 339 1168 339 1083 l 339 1204 q 424 1289 339 1289 l 460 1289 q 544 1204 544 1289 m 397 990 q 408 1031 397 1021 q 449 1042 418 1042 l 538 1042 q 578 1031 568 1042 q 589 990 589 1021 l 589 292 q 530 54 589 122 q 321 -14 471 -14 q 112 54 171 -14 q 53 292 53 122 l 53 990 q 63 1031 53 1021 q 104 1042 74 1042 l 193 1042 q 234 1031 224 1042 q 244 990 244 1021 l 244 258 q 263 199 244 217 q 321 181 281 181 q 397 258 397 181 l 397 990 z "},"ý":{"ha":572,"x_min":4,"x_max":568,"o":"m 208 1132 l 286 1278 q 302 1296 294 1292 q 331 1300 310 1300 l 464 1300 q 489 1286 489 1300 q 479 1264 489 1276 l 378 1117 q 358 1097 368 1101 q 326 1093 349 1093 l 225 1093 q 200 1110 200 1093 q 208 1132 200 1115 m 272 676 q 286 660 275 660 q 300 676 297 660 l 361 990 q 380 1031 367 1021 q 421 1042 393 1042 l 528 1042 q 568 990 585 1042 l 389 394 q 381 321 381 364 l 381 51 q 370 10 381 21 q 329 0 360 0 l 243 0 q 202 10 213 0 q 192 51 192 21 l 192 321 q 183 394 192 364 l 4 990 q 44 1042 -12 1042 l 151 1042 q 192 1031 179 1042 q 211 990 206 1021 l 272 676 z "},"þ":{"ha":621,"x_min":60,"x_max":601,"o":"m 251 889 q 256 869 251 875 q 276 864 261 864 l 294 864 q 528 801 454 864 q 601 600 601 739 l 601 443 q 528 242 601 304 q 294 179 454 179 l 276 179 q 256 174 261 179 q 251 154 251 169 l 251 51 q 241 10 251 21 q 200 0 231 0 l 111 0 q 70 10 81 0 q 60 51 60 21 l 60 990 q 70 1031 60 1021 q 111 1042 81 1042 l 200 1042 q 241 1031 231 1042 q 251 990 251 1021 l 251 889 m 251 644 l 251 399 q 256 378 251 383 q 276 374 261 374 l 306 374 q 381 397 357 374 q 404 472 404 419 l 404 571 q 381 647 404 624 q 306 669 357 669 l 276 669 q 256 664 261 669 q 251 644 251 658 z "},"ÿ":{"ha":572,"x_min":4,"x_max":568,"o":"m 265 1204 l 265 1168 q 181 1083 265 1083 l 144 1083 q 60 1168 60 1083 l 60 1204 q 144 1289 60 1289 l 181 1289 q 265 1204 265 1289 m 507 1204 l 507 1168 q 422 1083 507 1083 l 386 1083 q 301 1168 301 1083 l 301 1204 q 386 1289 301 1289 l 422 1289 q 507 1204 507 1289 m 272 676 q 286 660 275 660 q 300 676 297 660 l 361 990 q 380 1031 367 1021 q 421 1042 393 1042 l 528 1042 q 568 990 585 1042 l 389 394 q 381 321 381 364 l 381 51 q 370 10 381 21 q 329 0 360 0 l 243 0 q 202 10 213 0 q 192 51 192 21 l 192 321 q 183 394 192 364 l 4 990 q 44 1042 -12 1042 l 151 1042 q 192 1031 179 1042 q 211 990 206 1021 l 272 676 z "},"Ā":{"ha":608,"x_min":31,"x_max":578,"o":"m 499 1149 q 488 1108 499 1118 q 450 1097 478 1097 l 158 1097 q 120 1108 131 1097 q 110 1149 110 1118 l 110 1206 q 120 1247 110 1236 q 161 1257 131 1257 l 447 1257 q 488 1247 478 1257 q 499 1206 499 1236 l 499 1149 m 222 51 q 212 10 222 21 q 171 0 201 0 l 82 0 q 41 10 51 0 q 31 51 31 21 l 31 407 q 50 549 31 483 l 176 972 q 207 1029 189 1017 q 279 1042 225 1042 l 329 1042 q 401 1029 383 1042 q 432 972 419 1017 l 558 549 q 578 407 578 485 l 578 51 q 567 10 578 21 q 526 0 557 0 l 438 0 q 397 10 407 0 q 386 51 386 21 l 386 235 q 381 255 386 250 q 361 260 375 260 l 247 260 q 228 255 233 260 q 222 235 222 250 l 222 51 m 365 454 q 389 472 389 454 q 386 493 389 479 l 322 761 q 304 778 319 778 q 286 761 289 778 l 222 493 q 219 472 219 479 q 243 454 219 454 l 365 454 z "},"ā":{"ha":622,"x_min":13,"x_max":610,"o":"m 504 1149 q 494 1108 504 1118 q 456 1097 483 1097 l 164 1097 q 126 1108 136 1097 q 115 1149 115 1118 l 115 1206 q 126 1247 115 1236 q 167 1257 136 1257 l 453 1257 q 494 1247 483 1257 q 504 1206 504 1236 l 504 1149 m 224 1042 l 399 1042 q 463 1026 444 1042 q 488 969 482 1010 l 610 51 q 604 10 614 21 q 564 0 594 0 l 468 0 q 426 10 438 0 q 411 51 415 19 l 393 203 q 371 221 392 221 l 251 221 q 229 203 231 221 l 211 51 q 196 10 207 19 q 154 0 185 0 l 58 0 q 18 10 28 0 q 13 51 8 21 l 135 969 q 159 1026 140 1010 q 224 1042 178 1042 m 336 758 q 311 778 335 778 q 286 758 288 778 l 254 435 q 257 418 253 422 q 275 414 261 414 l 347 414 q 365 418 361 414 q 368 435 369 422 l 336 758 z "},"Ă":{"ha":608,"x_min":31,"x_max":578,"o":"m 293 1089 q 92 1264 92 1089 q 97 1288 92 1282 q 118 1294 103 1294 l 224 1294 q 244 1290 239 1294 q 250 1269 250 1285 q 299 1211 250 1211 l 311 1211 q 360 1269 360 1211 q 386 1294 360 1294 l 494 1294 q 513 1288 508 1294 q 518 1264 518 1282 q 317 1089 518 1089 l 293 1089 m 222 51 q 212 10 222 21 q 171 0 201 0 l 82 0 q 41 10 51 0 q 31 51 31 21 l 31 407 q 50 549 31 483 l 176 972 q 207 1029 189 1017 q 279 1042 225 1042 l 329 1042 q 401 1029 383 1042 q 432 972 419 1017 l 558 549 q 578 407 578 485 l 578 51 q 567 10 578 21 q 526 0 557 0 l 438 0 q 397 10 407 0 q 386 51 386 21 l 386 235 q 381 255 386 250 q 361 260 375 260 l 247 260 q 228 255 233 260 q 222 235 222 250 l 222 51 m 365 454 q 389 472 389 454 q 386 493 389 479 l 322 761 q 304 778 319 778 q 286 761 289 778 l 222 493 q 219 472 219 479 q 243 454 219 454 l 365 454 z "},"ă":{"ha":622,"x_min":13,"x_max":610,"o":"m 297 1089 q 96 1264 96 1089 q 101 1288 96 1282 q 122 1294 107 1294 l 228 1294 q 249 1290 243 1294 q 254 1269 254 1285 q 303 1211 254 1211 l 315 1211 q 364 1269 364 1211 q 390 1294 364 1294 l 499 1294 q 517 1288 513 1294 q 522 1264 522 1282 q 321 1089 522 1089 l 297 1089 m 224 1042 l 399 1042 q 463 1026 444 1042 q 488 969 482 1010 l 610 51 q 604 10 614 21 q 564 0 594 0 l 468 0 q 426 10 438 0 q 411 51 415 19 l 393 203 q 371 221 392 221 l 251 221 q 229 203 231 221 l 211 51 q 196 10 207 19 q 154 0 185 0 l 58 0 q 18 10 28 0 q 13 51 8 21 l 135 969 q 159 1026 140 1010 q 224 1042 178 1042 m 336 758 q 311 778 335 778 q 286 758 288 778 l 254 435 q 257 418 253 422 q 275 414 261 414 l 347 414 q 365 418 361 414 q 368 435 369 422 l 336 758 z "},"Ą":{"ha":608,"x_min":31,"x_max":581,"o":"m 581 -114 q 547 -228 581 -196 q 428 -260 514 -260 q 275 -131 275 -260 q 283 -71 275 -92 q 318 -28 292 -50 l 365 14 q 386 56 386 32 l 386 235 q 381 255 386 250 q 361 260 375 260 l 247 260 q 228 255 233 260 q 222 235 222 250 l 222 51 q 212 10 222 21 q 171 0 201 0 l 82 0 q 41 10 51 0 q 31 51 31 21 l 31 407 q 50 549 31 483 l 176 972 q 207 1029 189 1017 q 279 1042 225 1042 l 329 1042 q 401 1029 383 1042 q 432 972 419 1017 l 558 549 q 578 407 578 485 l 578 51 q 567 15 578 26 q 526 4 556 4 l 511 4 q 454 -19 478 4 l 424 -50 q 402 -78 406 -68 q 399 -114 399 -87 q 429 -146 399 -146 q 461 -118 461 -146 l 461 -111 q 466 -91 461 -96 q 485 -86 471 -86 l 556 -86 q 575 -92 569 -86 q 581 -111 581 -97 l 581 -114 m 365 454 q 389 472 389 454 q 386 493 389 479 l 322 761 q 304 778 319 778 q 286 761 289 778 l 222 493 q 219 472 219 479 q 243 454 219 454 l 365 454 z "},"ą":{"ha":618,"x_min":13,"x_max":606,"o":"m 485 967 l 604 64 q 597 15 610 29 q 553 0 585 0 l 538 0 q 479 -24 503 0 l 449 -54 q 427 -82 431 -72 q 424 -118 424 -92 q 454 -150 424 -150 q 486 -122 486 -150 l 486 -115 q 491 -95 486 -100 q 510 -90 496 -90 l 581 -90 q 600 -95 594 -90 q 606 -115 606 -100 l 606 -118 q 572 -232 606 -200 q 453 -264 539 -264 q 300 -135 300 -264 q 308 -75 300 -96 q 343 -32 317 -54 l 390 10 q 409 33 406 24 q 411 61 413 43 l 393 203 q 371 221 392 221 l 251 221 q 229 203 231 221 l 211 51 q 196 10 207 19 q 154 0 185 0 l 58 0 q 18 10 28 0 q 13 51 8 21 l 135 967 q 160 1024 140 1007 q 229 1042 181 1042 l 390 1042 q 459 1024 439 1042 q 485 967 479 1007 m 275 414 l 347 414 q 365 418 361 414 q 368 435 369 422 l 333 758 q 310 778 332 778 q 286 758 288 778 l 254 435 q 257 418 253 422 q 275 414 261 414 z "},"Ć":{"ha":610,"x_min":46,"x_max":579,"o":"m 231 1132 l 308 1278 q 324 1296 317 1292 q 353 1300 332 1300 l 486 1300 q 511 1286 511 1300 q 501 1264 511 1276 l 400 1117 q 381 1097 390 1101 q 349 1093 371 1093 l 247 1093 q 222 1110 222 1093 q 231 1132 222 1115 m 579 333 l 579 292 q 522 54 579 122 q 314 -14 464 -14 q 105 54 164 -14 q 46 292 46 122 l 46 750 q 105 988 46 919 q 314 1056 164 1056 q 522 988 464 1056 q 579 750 579 919 l 579 708 q 569 667 579 678 q 528 657 558 657 l 439 657 q 398 667 408 657 q 388 708 388 678 l 388 783 q 315 861 388 861 q 243 783 243 861 l 243 258 q 315 181 243 181 q 388 258 388 181 l 388 333 q 398 374 388 364 q 439 385 408 385 l 528 385 q 569 374 558 385 q 579 333 579 364 z "},"ć":{"ha":608,"x_min":46,"x_max":579,"o":"m 231 1132 l 308 1278 q 324 1296 317 1292 q 353 1300 332 1300 l 486 1300 q 511 1286 511 1300 q 501 1264 511 1276 l 400 1117 q 381 1097 390 1101 q 349 1093 371 1093 l 247 1093 q 222 1110 222 1093 q 231 1132 222 1115 m 579 333 l 579 292 q 522 54 579 122 q 314 -14 464 -14 q 105 54 164 -14 q 46 292 46 122 l 46 750 q 105 988 46 919 q 314 1056 164 1056 q 522 988 464 1056 q 579 750 579 919 l 579 708 q 569 667 579 678 q 528 657 558 657 l 439 657 q 398 667 408 657 q 388 708 388 678 l 388 783 q 315 861 388 861 q 243 783 243 861 l 243 258 q 315 181 243 181 q 388 258 388 181 l 388 333 q 398 374 388 364 q 439 385 408 385 l 528 385 q 569 374 558 385 q 579 333 579 364 z "},"Ĉ":{"ha":610,"x_min":46,"x_max":579,"o":"m 261 1306 l 364 1306 q 399 1301 389 1306 q 422 1278 408 1296 l 528 1135 q 540 1111 540 1117 q 519 1096 540 1096 l 410 1096 q 372 1114 386 1096 l 324 1183 q 313 1190 318 1190 q 301 1183 307 1190 l 253 1114 q 215 1096 239 1096 l 106 1096 q 85 1111 85 1096 q 97 1135 85 1117 l 203 1278 q 226 1301 217 1296 q 261 1306 236 1306 m 579 333 l 579 292 q 522 54 579 122 q 314 -14 464 -14 q 105 54 164 -14 q 46 292 46 122 l 46 750 q 105 988 46 919 q 314 1056 164 1056 q 522 988 464 1056 q 579 750 579 919 l 579 708 q 569 667 579 678 q 528 657 558 657 l 439 657 q 398 667 408 657 q 388 708 388 678 l 388 783 q 315 861 388 861 q 243 783 243 861 l 243 258 q 315 181 243 181 q 388 258 388 181 l 388 333 q 398 374 388 364 q 439 385 408 385 l 528 385 q 569 374 558 385 q 579 333 579 364 z "},"ĉ":{"ha":608,"x_min":46,"x_max":579,"o":"m 261 1306 l 364 1306 q 399 1301 389 1306 q 422 1278 408 1296 l 528 1135 q 540 1111 540 1117 q 519 1096 540 1096 l 410 1096 q 372 1114 386 1096 l 324 1183 q 313 1190 318 1190 q 301 1183 307 1190 l 253 1114 q 215 1096 239 1096 l 106 1096 q 85 1111 85 1096 q 97 1135 85 1117 l 203 1278 q 226 1301 217 1296 q 261 1306 236 1306 m 579 333 l 579 292 q 522 54 579 122 q 314 -14 464 -14 q 105 54 164 -14 q 46 292 46 122 l 46 750 q 105 988 46 919 q 314 1056 164 1056 q 522 988 464 1056 q 579 750 579 919 l 579 708 q 569 667 579 678 q 528 657 558 657 l 439 657 q 398 667 408 657 q 388 708 388 678 l 388 783 q 315 861 388 861 q 243 783 243 861 l 243 258 q 315 181 243 181 q 388 258 388 181 l 388 333 q 398 374 388 364 q 439 385 408 385 l 528 385 q 569 374 558 385 q 579 333 579 364 z "},"Ċ":{"ha":610,"x_min":46,"x_max":579,"o":"m 415 1225 l 415 1189 q 331 1104 415 1104 l 294 1104 q 210 1189 210 1104 l 210 1225 q 294 1310 210 1310 l 331 1310 q 415 1225 415 1310 m 579 333 l 579 292 q 522 54 579 122 q 314 -14 464 -14 q 105 54 164 -14 q 46 292 46 122 l 46 750 q 105 988 46 919 q 314 1056 164 1056 q 522 988 464 1056 q 579 750 579 919 l 579 708 q 569 667 579 678 q 528 657 558 657 l 439 657 q 398 667 408 657 q 388 708 388 678 l 388 783 q 315 861 388 861 q 243 783 243 861 l 243 258 q 315 181 243 181 q 388 258 388 181 l 388 333 q 398 374 388 364 q 439 385 408 385 l 528 385 q 569 374 558 385 q 579 333 579 364 z "},"ċ":{"ha":608,"x_min":46,"x_max":579,"o":"m 415 1225 l 415 1189 q 331 1104 415 1104 l 294 1104 q 210 1189 210 1104 l 210 1225 q 294 1310 210 1310 l 331 1310 q 415 1225 415 1310 m 579 333 l 579 292 q 522 54 579 122 q 314 -14 464 -14 q 105 54 164 -14 q 46 292 46 122 l 46 750 q 105 988 46 919 q 314 1056 164 1056 q 522 988 464 1056 q 579 750 579 919 l 579 708 q 569 667 579 678 q 528 657 558 657 l 439 657 q 398 667 408 657 q 388 708 388 678 l 388 783 q 315 861 388 861 q 243 783 243 861 l 243 258 q 315 181 243 181 q 388 258 388 181 l 388 333 q 398 374 388 364 q 439 385 408 385 l 528 385 q 569 374 558 385 q 579 333 579 364 z "},"Č":{"ha":610,"x_min":46,"x_max":579,"o":"m 261 1096 q 226 1101 236 1096 q 203 1124 217 1106 l 97 1267 q 85 1290 85 1285 q 106 1306 85 1306 l 215 1306 q 253 1288 239 1306 l 301 1218 q 313 1211 307 1211 q 324 1218 318 1211 l 372 1288 q 410 1306 386 1306 l 519 1306 q 540 1290 540 1306 q 528 1267 540 1285 l 422 1124 q 399 1101 408 1106 q 364 1096 389 1096 l 261 1096 m 579 333 l 579 292 q 522 54 579 122 q 314 -14 464 -14 q 105 54 164 -14 q 46 292 46 122 l 46 750 q 105 988 46 919 q 314 1056 164 1056 q 522 988 464 1056 q 579 750 579 919 l 579 708 q 569 667 579 678 q 528 657 558 657 l 439 657 q 398 667 408 657 q 388 708 388 678 l 388 783 q 315 861 388 861 q 243 783 243 861 l 243 258 q 315 181 243 181 q 388 258 388 181 l 388 333 q 398 374 388 364 q 439 385 408 385 l 528 385 q 569 374 558 385 q 579 333 579 364 z "},"č":{"ha":608,"x_min":46,"x_max":579,"o":"m 261 1096 q 226 1101 236 1096 q 203 1124 217 1106 l 97 1267 q 85 1290 85 1285 q 106 1306 85 1306 l 215 1306 q 253 1288 239 1306 l 301 1218 q 313 1211 307 1211 q 324 1218 318 1211 l 372 1288 q 410 1306 386 1306 l 519 1306 q 540 1290 540 1306 q 528 1267 540 1285 l 422 1124 q 399 1101 408 1106 q 364 1096 389 1096 l 261 1096 m 579 333 l 579 292 q 522 54 579 122 q 314 -14 464 -14 q 105 54 164 -14 q 46 292 46 122 l 46 750 q 105 988 46 919 q 314 1056 164 1056 q 522 988 464 1056 q 579 750 579 919 l 579 708 q 569 667 579 678 q 528 657 558 657 l 439 657 q 398 667 408 657 q 388 708 388 678 l 388 783 q 315 861 388 861 q 243 783 243 861 l 243 258 q 315 181 243 181 q 388 258 388 181 l 388 333 q 398 374 388 364 q 439 385 408 385 l 528 385 q 569 374 558 385 q 579 333 579 364 z "},"Ď":{"ha":644,"x_min":60,"x_max":601,"o":"m 263 1096 q 228 1101 238 1096 q 204 1124 218 1106 l 99 1267 q 86 1290 86 1285 q 107 1306 86 1306 l 217 1306 q 254 1288 240 1306 l 303 1218 q 314 1211 308 1211 q 325 1218 319 1211 l 374 1288 q 411 1306 388 1306 l 521 1306 q 542 1290 542 1306 q 529 1267 542 1285 l 424 1124 q 400 1101 410 1106 q 365 1096 390 1096 l 263 1096 m 281 1042 q 538 968 474 1042 q 601 708 601 894 l 601 333 q 538 74 601 147 q 281 0 474 0 l 111 0 q 70 10 81 0 q 60 51 60 21 l 60 990 q 70 1031 60 1021 q 111 1042 81 1042 l 281 1042 m 276 847 q 256 842 261 847 q 251 822 251 836 l 251 219 q 276 194 251 194 l 292 194 q 377 224 350 194 q 404 321 404 254 l 404 721 q 377 817 404 788 q 292 847 350 847 l 276 847 z "},"ď":{"ha":644,"x_min":60,"x_max":601,"o":"m 263 1096 q 228 1101 238 1096 q 204 1124 218 1106 l 99 1267 q 86 1290 86 1285 q 107 1306 86 1306 l 217 1306 q 254 1288 240 1306 l 303 1218 q 314 1211 308 1211 q 325 1218 319 1211 l 374 1288 q 411 1306 388 1306 l 521 1306 q 542 1290 542 1306 q 529 1267 542 1285 l 424 1124 q 400 1101 410 1106 q 365 1096 390 1096 l 263 1096 m 281 1042 q 538 968 474 1042 q 601 708 601 894 l 601 333 q 538 74 601 147 q 281 0 474 0 l 111 0 q 70 10 81 0 q 60 51 60 21 l 60 990 q 70 1031 60 1021 q 111 1042 81 1042 l 281 1042 m 276 847 q 256 842 261 847 q 251 822 251 836 l 251 219 q 276 194 251 194 l 292 194 q 377 224 350 194 q 404 321 404 254 l 404 721 q 377 817 404 788 q 292 847 350 847 l 276 847 z "},"Đ":{"ha":671,"x_min":4,"x_max":628,"o":"m 68 622 q 86 640 86 622 l 86 990 q 97 1031 86 1021 q 138 1042 107 1042 l 307 1042 q 564 968 500 1042 q 628 708 628 894 l 628 333 q 564 74 628 147 q 307 0 500 0 l 138 0 q 97 10 107 0 q 86 51 86 21 l 86 410 q 68 428 86 428 l 53 428 q 15 438 25 428 q 4 479 4 449 l 4 571 q 15 612 4 601 q 56 622 25 622 l 68 622 m 303 847 q 283 842 289 847 q 278 822 278 836 l 278 640 q 296 622 278 622 l 308 622 q 349 612 339 622 q 360 571 360 601 l 360 479 q 349 438 360 449 q 311 428 339 428 l 296 428 q 278 410 278 428 l 278 219 q 303 194 278 194 l 318 194 q 403 224 376 194 q 431 321 431 254 l 431 721 q 403 817 431 788 q 318 847 376 847 l 303 847 z "},"đ":{"ha":671,"x_min":4,"x_max":628,"o":"m 68 622 q 86 640 86 622 l 86 990 q 97 1031 86 1021 q 138 1042 107 1042 l 307 1042 q 564 968 500 1042 q 628 708 628 894 l 628 333 q 564 74 628 147 q 307 0 500 0 l 138 0 q 97 10 107 0 q 86 51 86 21 l 86 410 q 68 428 86 428 l 53 428 q 15 438 25 428 q 4 479 4 449 l 4 571 q 15 612 4 601 q 56 622 25 622 l 68 622 m 303 847 q 283 842 289 847 q 278 822 278 836 l 278 640 q 296 622 278 622 l 308 622 q 349 612 339 622 q 360 571 360 601 l 360 479 q 349 438 360 449 q 311 428 339 428 l 296 428 q 278 410 278 428 l 278 219 q 303 194 278 194 l 318 194 q 403 224 376 194 q 431 321 431 254 l 431 721 q 403 817 431 788 q 318 847 376 847 l 303 847 z "},"Ē":{"ha":546,"x_min":60,"x_max":517,"o":"m 476 1149 q 466 1108 476 1118 q 428 1097 456 1097 l 136 1097 q 98 1108 108 1097 q 88 1149 88 1118 l 88 1206 q 98 1247 88 1236 q 139 1257 108 1257 l 425 1257 q 466 1247 456 1257 q 476 1206 476 1236 l 476 1149 m 251 822 l 251 667 q 276 642 251 642 l 449 642 q 490 631 479 642 q 500 590 500 621 l 500 499 q 490 458 500 468 q 451 447 479 447 l 276 447 q 256 442 261 447 q 251 422 251 436 l 251 219 q 276 194 251 194 l 465 194 q 506 184 496 194 q 517 143 517 174 l 517 51 q 506 10 517 21 q 465 0 496 0 l 111 0 q 70 10 81 0 q 60 51 60 21 l 60 990 q 70 1031 60 1021 q 111 1042 81 1042 l 465 1042 q 506 1031 496 1042 q 517 990 517 1021 l 517 899 q 506 858 517 868 q 465 847 496 847 l 276 847 q 256 842 261 847 q 251 822 251 836 z "},"ē":{"ha":546,"x_min":60,"x_max":517,"o":"m 476 1149 q 466 1108 476 1118 q 428 1097 456 1097 l 136 1097 q 98 1108 108 1097 q 88 1149 88 1118 l 88 1206 q 98 1247 88 1236 q 139 1257 108 1257 l 425 1257 q 466 1247 456 1257 q 476 1206 476 1236 l 476 1149 m 251 822 l 251 667 q 276 642 251 642 l 449 642 q 490 631 479 642 q 500 590 500 621 l 500 499 q 490 458 500 468 q 451 447 479 447 l 276 447 q 256 442 261 447 q 251 422 251 436 l 251 219 q 276 194 251 194 l 465 194 q 506 184 496 194 q 517 143 517 174 l 517 51 q 506 10 517 21 q 465 0 496 0 l 111 0 q 70 10 81 0 q 60 51 60 21 l 60 990 q 70 1031 60 1021 q 111 1042 81 1042 l 465 1042 q 506 1031 496 1042 q 517 990 517 1021 l 517 899 q 506 858 517 868 q 465 847 496 847 l 276 847 q 256 842 261 847 q 251 822 251 836 z "},"Ĕ":{"ha":546,"x_min":60,"x_max":517,"o":"m 271 1089 q 69 1264 69 1089 q 75 1288 69 1282 q 96 1294 81 1294 l 201 1294 q 222 1290 217 1294 q 228 1269 228 1285 q 276 1211 228 1211 l 289 1211 q 338 1269 338 1211 q 364 1294 338 1294 l 472 1294 q 491 1288 486 1294 q 496 1264 496 1282 q 294 1089 496 1089 l 271 1089 m 251 822 l 251 667 q 276 642 251 642 l 449 642 q 490 631 479 642 q 500 590 500 621 l 500 499 q 490 458 500 468 q 451 447 479 447 l 276 447 q 256 442 261 447 q 251 422 251 436 l 251 219 q 276 194 251 194 l 465 194 q 506 184 496 194 q 517 143 517 174 l 517 51 q 506 10 517 21 q 465 0 496 0 l 111 0 q 70 10 81 0 q 60 51 60 21 l 60 990 q 70 1031 60 1021 q 111 1042 81 1042 l 465 1042 q 506 1031 496 1042 q 517 990 517 1021 l 517 899 q 506 858 517 868 q 465 847 496 847 l 276 847 q 256 842 261 847 q 251 822 251 836 z "},"ĕ":{"ha":546,"x_min":60,"x_max":517,"o":"m 271 1089 q 69 1264 69 1089 q 75 1288 69 1282 q 96 1294 81 1294 l 201 1294 q 222 1290 217 1294 q 228 1269 228 1285 q 276 1211 228 1211 l 289 1211 q 338 1269 338 1211 q 364 1294 338 1294 l 472 1294 q 491 1288 486 1294 q 496 1264 496 1282 q 294 1089 496 1089 l 271 1089 m 251 822 l 251 667 q 276 642 251 642 l 449 642 q 490 631 479 642 q 500 590 500 621 l 500 499 q 490 458 500 468 q 451 447 479 447 l 276 447 q 256 442 261 447 q 251 422 251 436 l 251 219 q 276 194 251 194 l 465 194 q 506 184 496 194 q 517 143 517 174 l 517 51 q 506 10 517 21 q 465 0 496 0 l 111 0 q 70 10 81 0 q 60 51 60 21 l 60 990 q 70 1031 60 1021 q 111 1042 81 1042 l 465 1042 q 506 1031 496 1042 q 517 990 517 1021 l 517 899 q 506 858 517 868 q 465 847 496 847 l 276 847 q 256 842 261 847 q 251 822 251 836 z "},"Ė":{"ha":546,"x_min":60,"x_max":517,"o":"m 386 1225 l 386 1189 q 301 1104 386 1104 l 265 1104 q 181 1189 181 1104 l 181 1225 q 265 1310 181 1310 l 301 1310 q 386 1225 386 1310 m 251 822 l 251 667 q 276 642 251 642 l 449 642 q 490 631 479 642 q 500 590 500 621 l 500 499 q 490 458 500 468 q 451 447 479 447 l 276 447 q 256 442 261 447 q 251 422 251 436 l 251 219 q 276 194 251 194 l 465 194 q 506 184 496 194 q 517 143 517 174 l 517 51 q 506 10 517 21 q 465 0 496 0 l 111 0 q 70 10 81 0 q 60 51 60 21 l 60 990 q 70 1031 60 1021 q 111 1042 81 1042 l 465 1042 q 506 1031 496 1042 q 517 990 517 1021 l 517 899 q 506 858 517 868 q 465 847 496 847 l 276 847 q 256 842 261 847 q 251 822 251 836 z "},"ė":{"ha":546,"x_min":60,"x_max":517,"o":"m 386 1225 l 386 1189 q 301 1104 386 1104 l 265 1104 q 181 1189 181 1104 l 181 1225 q 265 1310 181 1310 l 301 1310 q 386 1225 386 1310 m 251 822 l 251 667 q 276 642 251 642 l 449 642 q 490 631 479 642 q 500 590 500 621 l 500 499 q 490 458 500 468 q 451 447 479 447 l 276 447 q 256 442 261 447 q 251 422 251 436 l 251 219 q 276 194 251 194 l 465 194 q 506 184 496 194 q 517 143 517 174 l 517 51 q 506 10 517 21 q 465 0 496 0 l 111 0 q 70 10 81 0 q 60 51 60 21 l 60 990 q 70 1031 60 1021 q 111 1042 81 1042 l 465 1042 q 506 1031 496 1042 q 517 990 517 1021 l 517 899 q 506 858 517 868 q 465 847 496 847 l 276 847 q 256 842 261 847 q 251 822 251 836 z "},"Ę":{"ha":546,"x_min":60,"x_max":517,"o":"m 517 -118 q 483 -232 517 -200 q 364 -264 450 -264 q 211 -135 211 -264 q 220 -83 211 -101 q 254 -43 229 -64 l 289 -14 q 286 0 306 0 l 111 0 q 70 10 81 0 q 60 51 60 21 l 60 990 q 70 1031 60 1021 q 111 1042 81 1042 l 465 1042 q 506 1031 496 1042 q 517 990 517 1021 l 517 899 q 506 858 517 868 q 465 847 496 847 l 276 847 q 256 842 261 847 q 251 822 251 836 l 251 667 q 276 642 251 642 l 449 642 q 490 631 479 642 q 500 590 500 621 l 500 499 q 490 458 500 468 q 451 447 479 447 l 276 447 q 256 442 261 447 q 251 422 251 436 l 251 219 q 276 194 251 194 l 465 194 q 506 184 496 194 q 517 143 517 174 l 517 47 q 506 11 517 22 q 465 0 494 0 l 453 0 q 390 -24 414 0 l 360 -54 q 338 -82 342 -72 q 335 -118 335 -92 q 365 -150 335 -150 q 397 -122 397 -150 l 397 -115 q 402 -95 397 -100 q 421 -90 407 -90 l 492 -90 q 511 -95 506 -90 q 517 -115 517 -100 l 517 -118 z "},"ę":{"ha":546,"x_min":60,"x_max":517,"o":"m 517 -118 q 483 -232 517 -200 q 364 -264 450 -264 q 211 -135 211 -264 q 220 -83 211 -101 q 254 -43 229 -64 l 289 -14 q 286 0 306 0 l 111 0 q 70 10 81 0 q 60 51 60 21 l 60 990 q 70 1031 60 1021 q 111 1042 81 1042 l 465 1042 q 506 1031 496 1042 q 517 990 517 1021 l 517 899 q 506 858 517 868 q 465 847 496 847 l 276 847 q 256 842 261 847 q 251 822 251 836 l 251 667 q 276 642 251 642 l 449 642 q 490 631 479 642 q 500 590 500 621 l 500 499 q 490 458 500 468 q 451 447 479 447 l 276 447 q 256 442 261 447 q 251 422 251 436 l 251 219 q 276 194 251 194 l 465 194 q 506 184 496 194 q 517 143 517 174 l 517 47 q 506 11 517 22 q 465 0 494 0 l 453 0 q 390 -24 414 0 l 360 -54 q 338 -82 342 -72 q 335 -118 335 -92 q 365 -150 335 -150 q 397 -122 397 -150 l 397 -115 q 402 -95 397 -100 q 421 -90 407 -90 l 492 -90 q 511 -95 506 -90 q 517 -115 517 -100 l 517 -118 z "},"Ě":{"ha":546,"x_min":54,"x_max":517,"o":"m 231 1096 q 196 1101 206 1096 q 172 1124 186 1106 l 67 1267 q 54 1290 54 1285 q 75 1306 54 1306 l 185 1306 q 222 1288 208 1306 l 271 1218 q 282 1211 276 1211 q 293 1218 288 1211 l 342 1288 q 379 1306 356 1306 l 489 1306 q 510 1290 510 1306 q 497 1267 510 1285 l 392 1124 q 368 1101 378 1106 q 333 1096 358 1096 l 231 1096 m 251 822 l 251 667 q 276 642 251 642 l 449 642 q 490 631 479 642 q 500 590 500 621 l 500 499 q 490 458 500 468 q 451 447 479 447 l 276 447 q 256 442 261 447 q 251 422 251 436 l 251 219 q 276 194 251 194 l 465 194 q 506 184 496 194 q 517 143 517 174 l 517 51 q 506 10 517 21 q 465 0 496 0 l 111 0 q 70 10 81 0 q 60 51 60 21 l 60 990 q 70 1031 60 1021 q 111 1042 81 1042 l 465 1042 q 506 1031 496 1042 q 517 990 517 1021 l 517 899 q 506 858 517 868 q 465 847 496 847 l 276 847 q 256 842 261 847 q 251 822 251 836 z "},"ě":{"ha":546,"x_min":54,"x_max":517,"o":"m 231 1096 q 196 1101 206 1096 q 172 1124 186 1106 l 67 1267 q 54 1290 54 1285 q 75 1306 54 1306 l 185 1306 q 222 1288 208 1306 l 271 1218 q 282 1211 276 1211 q 293 1218 288 1211 l 342 1288 q 379 1306 356 1306 l 489 1306 q 510 1290 510 1306 q 497 1267 510 1285 l 392 1124 q 368 1101 378 1106 q 333 1096 358 1096 l 231 1096 m 251 822 l 251 667 q 276 642 251 642 l 449 642 q 490 631 479 642 q 500 590 500 621 l 500 499 q 490 458 500 468 q 451 447 479 447 l 276 447 q 256 442 261 447 q 251 422 251 436 l 251 219 q 276 194 251 194 l 465 194 q 506 184 496 194 q 517 143 517 174 l 517 51 q 506 10 517 21 q 465 0 496 0 l 111 0 q 70 10 81 0 q 60 51 60 21 l 60 990 q 70 1031 60 1021 q 111 1042 81 1042 l 465 1042 q 506 1031 496 1042 q 517 990 517 1021 l 517 899 q 506 858 517 868 q 465 847 496 847 l 276 847 q 256 842 261 847 q 251 822 251 836 z "},"Ĝ":{"ha":622,"x_min":46,"x_max":582,"o":"m 263 1306 l 365 1306 q 400 1301 390 1306 q 424 1278 410 1296 l 529 1135 q 542 1111 542 1117 q 521 1096 542 1096 l 411 1096 q 374 1114 388 1096 l 325 1183 q 314 1190 319 1190 q 303 1183 308 1190 l 254 1114 q 217 1096 240 1096 l 107 1096 q 86 1111 86 1096 q 99 1135 86 1117 l 204 1278 q 228 1301 218 1296 q 263 1306 238 1306 m 396 371 q 391 391 396 386 q 371 396 386 396 l 354 396 q 313 406 324 396 q 303 447 303 417 l 303 539 q 313 580 303 569 q 354 590 324 590 l 531 590 q 572 580 561 590 q 582 539 582 569 l 582 292 q 523 54 582 122 q 314 -14 464 -14 q 105 54 164 -14 q 46 292 46 122 l 46 750 q 105 988 46 919 q 314 1056 164 1056 q 522 988 464 1056 q 579 750 579 919 l 579 743 q 569 702 579 713 q 528 692 558 692 l 439 692 q 398 702 408 692 q 388 743 388 713 l 388 783 q 315 861 388 861 q 243 783 243 861 l 243 258 q 319 181 243 181 q 378 199 360 181 q 396 258 396 217 l 396 371 z "},"ĝ":{"ha":622,"x_min":46,"x_max":582,"o":"m 263 1306 l 365 1306 q 400 1301 390 1306 q 424 1278 410 1296 l 529 1135 q 542 1111 542 1117 q 521 1096 542 1096 l 411 1096 q 374 1114 388 1096 l 325 1183 q 314 1190 319 1190 q 303 1183 308 1190 l 254 1114 q 217 1096 240 1096 l 107 1096 q 86 1111 86 1096 q 99 1135 86 1117 l 204 1278 q 228 1301 218 1296 q 263 1306 238 1306 m 396 371 q 391 391 396 386 q 371 396 386 396 l 354 396 q 313 406 324 396 q 303 447 303 417 l 303 539 q 313 580 303 569 q 354 590 324 590 l 531 590 q 572 580 561 590 q 582 539 582 569 l 582 292 q 523 54 582 122 q 314 -14 464 -14 q 105 54 164 -14 q 46 292 46 122 l 46 750 q 105 988 46 919 q 314 1056 164 1056 q 522 988 464 1056 q 579 750 579 919 l 579 743 q 569 702 579 713 q 528 692 558 692 l 439 692 q 398 702 408 692 q 388 743 388 713 l 388 783 q 315 861 388 861 q 243 783 243 861 l 243 258 q 319 181 243 181 q 378 199 360 181 q 396 258 396 217 l 396 371 z "},"Ğ":{"ha":622,"x_min":46,"x_max":582,"o":"m 301 1089 q 100 1264 100 1089 q 106 1288 100 1282 q 126 1294 111 1294 l 232 1294 q 253 1290 247 1294 q 258 1269 258 1285 q 307 1211 258 1211 l 319 1211 q 368 1269 368 1211 q 394 1294 368 1294 l 503 1294 q 522 1288 517 1294 q 526 1264 526 1282 q 325 1089 526 1089 l 301 1089 m 396 371 q 391 391 396 386 q 371 396 386 396 l 354 396 q 313 406 324 396 q 303 447 303 417 l 303 539 q 313 580 303 569 q 354 590 324 590 l 531 590 q 572 580 561 590 q 582 539 582 569 l 582 292 q 523 54 582 122 q 314 -14 464 -14 q 105 54 164 -14 q 46 292 46 122 l 46 750 q 105 988 46 919 q 314 1056 164 1056 q 522 988 464 1056 q 579 750 579 919 l 579 743 q 569 702 579 713 q 528 692 558 692 l 439 692 q 398 702 408 692 q 388 743 388 713 l 388 783 q 315 861 388 861 q 243 783 243 861 l 243 258 q 319 181 243 181 q 378 199 360 181 q 396 258 396 217 l 396 371 z "},"ğ":{"ha":622,"x_min":46,"x_max":582,"o":"m 301 1089 q 100 1264 100 1089 q 106 1288 100 1282 q 126 1294 111 1294 l 232 1294 q 253 1290 247 1294 q 258 1269 258 1285 q 307 1211 258 1211 l 319 1211 q 368 1269 368 1211 q 394 1294 368 1294 l 503 1294 q 522 1288 517 1294 q 526 1264 526 1282 q 325 1089 526 1089 l 301 1089 m 396 371 q 391 391 396 386 q 371 396 386 396 l 354 396 q 313 406 324 396 q 303 447 303 417 l 303 539 q 313 580 303 569 q 354 590 324 590 l 531 590 q 572 580 561 590 q 582 539 582 569 l 582 292 q 523 54 582 122 q 314 -14 464 -14 q 105 54 164 -14 q 46 292 46 122 l 46 750 q 105 988 46 919 q 314 1056 164 1056 q 522 988 464 1056 q 579 750 579 919 l 579 743 q 569 702 579 713 q 528 692 558 692 l 439 692 q 398 702 408 692 q 388 743 388 713 l 388 783 q 315 861 388 861 q 243 783 243 861 l 243 258 q 319 181 243 181 q 378 199 360 181 q 396 258 396 217 l 396 371 z "},"Ġ":{"ha":622,"x_min":46,"x_max":582,"o":"m 417 1225 l 417 1189 q 332 1104 417 1104 l 296 1104 q 211 1189 211 1104 l 211 1225 q 296 1310 211 1310 l 332 1310 q 417 1225 417 1310 m 396 371 q 391 391 396 386 q 371 396 386 396 l 354 396 q 313 406 324 396 q 303 447 303 417 l 303 539 q 313 580 303 569 q 354 590 324 590 l 531 590 q 572 580 561 590 q 582 539 582 569 l 582 292 q 523 54 582 122 q 314 -14 464 -14 q 105 54 164 -14 q 46 292 46 122 l 46 750 q 105 988 46 919 q 314 1056 164 1056 q 522 988 464 1056 q 579 750 579 919 l 579 743 q 569 702 579 713 q 528 692 558 692 l 439 692 q 398 702 408 692 q 388 743 388 713 l 388 783 q 315 861 388 861 q 243 783 243 861 l 243 258 q 319 181 243 181 q 378 199 360 181 q 396 258 396 217 l 396 371 z "},"ġ":{"ha":622,"x_min":46,"x_max":582,"o":"m 417 1225 l 417 1189 q 332 1104 417 1104 l 296 1104 q 211 1189 211 1104 l 211 1225 q 296 1310 211 1310 l 332 1310 q 417 1225 417 1310 m 396 371 q 391 391 396 386 q 371 396 386 396 l 354 396 q 313 406 324 396 q 303 447 303 417 l 303 539 q 313 580 303 569 q 354 590 324 590 l 531 590 q 572 580 561 590 q 582 539 582 569 l 582 292 q 523 54 582 122 q 314 -14 464 -14 q 105 54 164 -14 q 46 292 46 122 l 46 750 q 105 988 46 919 q 314 1056 164 1056 q 522 988 464 1056 q 579 750 579 919 l 579 743 q 569 702 579 713 q 528 692 558 692 l 439 692 q 398 702 408 692 q 388 743 388 713 l 388 783 q 315 861 388 861 q 243 783 243 861 l 243 258 q 319 181 243 181 q 378 199 360 181 q 396 258 396 217 l 396 371 z "},"Ģ":{"ha":622,"x_min":46,"x_max":582,"o":"m 396 371 q 391 391 396 386 q 371 396 386 396 l 354 396 q 313 406 324 396 q 303 447 303 417 l 303 539 q 313 580 303 569 q 354 590 324 590 l 531 590 q 572 580 561 590 q 582 539 582 569 l 582 292 q 523 54 582 122 q 314 -14 464 -14 q 105 54 164 -14 q 46 292 46 122 l 46 750 q 105 988 46 919 q 314 1056 164 1056 q 522 988 464 1056 q 579 750 579 919 l 579 743 q 569 702 579 713 q 528 692 558 692 l 439 692 q 398 702 408 692 q 388 743 388 713 l 388 783 q 315 861 388 861 q 243 783 243 861 l 243 258 q 319 181 243 181 q 378 199 360 181 q 396 258 396 217 l 396 371 m 426 -103 l 357 -243 q 337 -268 347 -262 q 300 -274 326 -274 l 228 -274 q 195 -264 203 -274 q 194 -231 188 -254 l 229 -103 q 251 -64 238 -74 q 296 -54 265 -54 l 396 -54 q 426 -103 451 -54 z "},"ģ":{"ha":622,"x_min":46,"x_max":582,"o":"m 396 371 q 391 391 396 386 q 371 396 386 396 l 354 396 q 313 406 324 396 q 303 447 303 417 l 303 539 q 313 580 303 569 q 354 590 324 590 l 531 590 q 572 580 561 590 q 582 539 582 569 l 582 292 q 523 54 582 122 q 314 -14 464 -14 q 105 54 164 -14 q 46 292 46 122 l 46 750 q 105 988 46 919 q 314 1056 164 1056 q 522 988 464 1056 q 579 750 579 919 l 579 743 q 569 702 579 713 q 528 692 558 692 l 439 692 q 398 702 408 692 q 388 743 388 713 l 388 783 q 315 861 388 861 q 243 783 243 861 l 243 258 q 319 181 243 181 q 378 199 360 181 q 396 258 396 217 l 396 371 m 426 -103 l 357 -243 q 337 -268 347 -262 q 300 -274 326 -274 l 228 -274 q 195 -264 203 -274 q 194 -231 188 -254 l 229 -103 q 251 -64 238 -74 q 296 -54 265 -54 l 396 -54 q 426 -103 451 -54 z "},"Ĥ":{"ha":667,"x_min":60,"x_max":607,"o":"m 310 1306 l 413 1306 q 447 1301 438 1306 q 471 1278 457 1296 l 576 1135 q 589 1111 589 1117 q 568 1096 589 1096 l 458 1096 q 421 1114 435 1096 l 372 1183 q 361 1190 367 1190 q 350 1183 356 1190 l 301 1114 q 264 1096 288 1096 l 154 1096 q 133 1111 133 1096 q 146 1135 133 1117 l 251 1278 q 275 1301 265 1296 q 310 1306 285 1306 m 415 51 l 415 426 q 410 447 415 442 q 390 451 406 451 l 276 451 q 256 447 261 451 q 251 426 251 442 l 251 51 q 241 10 251 21 q 200 0 231 0 l 111 0 q 70 10 81 0 q 60 51 60 21 l 60 990 q 70 1031 60 1021 q 111 1042 81 1042 l 200 1042 q 241 1031 231 1042 q 251 990 251 1021 l 251 671 q 276 646 251 646 l 390 646 q 415 671 415 646 l 415 990 q 426 1031 415 1021 q 467 1042 436 1042 l 556 1042 q 597 1031 586 1042 q 607 990 607 1021 l 607 51 q 597 10 607 21 q 556 0 586 0 l 467 0 q 426 10 436 0 q 415 51 415 21 z "},"ĥ":{"ha":667,"x_min":60,"x_max":607,"o":"m 310 1306 l 413 1306 q 447 1301 438 1306 q 471 1278 457 1296 l 576 1135 q 589 1111 589 1117 q 568 1096 589 1096 l 458 1096 q 421 1114 435 1096 l 372 1183 q 361 1190 367 1190 q 350 1183 356 1190 l 301 1114 q 264 1096 288 1096 l 154 1096 q 133 1111 133 1096 q 146 1135 133 1117 l 251 1278 q 275 1301 265 1296 q 310 1306 285 1306 m 415 51 l 415 426 q 410 447 415 442 q 390 451 406 451 l 276 451 q 256 447 261 451 q 251 426 251 442 l 251 51 q 241 10 251 21 q 200 0 231 0 l 111 0 q 70 10 81 0 q 60 51 60 21 l 60 990 q 70 1031 60 1021 q 111 1042 81 1042 l 200 1042 q 241 1031 231 1042 q 251 990 251 1021 l 251 671 q 276 646 251 646 l 390 646 q 415 671 415 646 l 415 990 q 426 1031 415 1021 q 467 1042 436 1042 l 556 1042 q 597 1031 586 1042 q 607 990 607 1021 l 607 51 q 597 10 607 21 q 556 0 586 0 l 467 0 q 426 10 436 0 q 415 51 415 21 z "},"Ħ":{"ha":758,"x_min":4,"x_max":754,"o":"m 601 1042 q 642 1031 632 1042 q 653 990 653 1021 l 653 951 q 671 933 653 933 l 703 933 q 744 923 733 933 q 754 882 754 913 l 754 801 q 744 760 754 771 q 706 750 733 750 l 671 750 q 653 732 653 750 l 653 51 q 642 10 653 21 q 601 0 632 0 l 513 0 q 472 10 482 0 q 461 51 461 21 l 461 426 q 456 447 461 442 q 436 451 450 451 l 322 451 q 303 447 308 451 q 297 426 297 442 l 297 51 q 287 10 297 21 q 246 0 276 0 l 157 0 q 116 10 126 0 q 106 51 106 21 l 106 732 q 88 750 106 750 l 53 750 q 15 760 25 750 q 4 801 4 771 l 4 882 q 15 923 4 913 q 56 933 25 933 l 88 933 q 106 951 106 933 l 106 990 q 116 1031 106 1021 q 157 1042 126 1042 l 246 1042 q 287 1031 276 1042 q 297 990 297 1021 l 297 958 q 322 933 297 933 l 436 933 q 461 958 461 933 l 461 990 q 472 1031 461 1021 q 513 1042 482 1042 l 601 1042 m 322 750 q 297 725 297 750 l 297 671 q 322 646 297 646 l 436 646 q 461 671 461 646 l 461 725 q 436 750 461 750 l 322 750 z "},"ħ":{"ha":758,"x_min":4,"x_max":754,"o":"m 601 1042 q 642 1031 632 1042 q 653 990 653 1021 l 653 951 q 671 933 653 933 l 703 933 q 744 923 733 933 q 754 882 754 913 l 754 801 q 744 760 754 771 q 706 750 733 750 l 671 750 q 653 732 653 750 l 653 51 q 642 10 653 21 q 601 0 632 0 l 513 0 q 472 10 482 0 q 461 51 461 21 l 461 426 q 456 447 461 442 q 436 451 450 451 l 322 451 q 303 447 308 451 q 297 426 297 442 l 297 51 q 287 10 297 21 q 246 0 276 0 l 157 0 q 116 10 126 0 q 106 51 106 21 l 106 732 q 88 750 106 750 l 53 750 q 15 760 25 750 q 4 801 4 771 l 4 882 q 15 923 4 913 q 56 933 25 933 l 88 933 q 106 951 106 933 l 106 990 q 116 1031 106 1021 q 157 1042 126 1042 l 246 1042 q 287 1031 276 1042 q 297 990 297 1021 l 297 958 q 322 933 297 933 l 436 933 q 461 958 461 933 l 461 990 q 472 1031 461 1021 q 513 1042 482 1042 l 601 1042 m 322 750 q 297 725 297 750 l 297 671 q 322 646 297 646 l 436 646 q 461 671 461 646 l 461 725 q 436 750 461 750 l 322 750 z "},"Ĩ":{"ha":311,"x_min":-71,"x_max":382,"o":"m 107 1146 q 69 1115 83 1146 q 39 1096 60 1096 l -44 1096 q -67 1102 -61 1096 q -71 1125 -72 1108 q -23 1251 -60 1211 q 82 1290 14 1290 q 154 1265 119 1290 q 204 1240 189 1240 q 242 1272 229 1240 q 272 1290 251 1290 l 356 1290 q 378 1284 372 1290 q 382 1261 383 1278 q 229 1096 363 1096 q 156 1121 192 1096 q 107 1146 121 1146 m 251 990 l 251 51 q 241 10 251 21 q 200 0 231 0 l 111 0 q 70 10 81 0 q 60 51 60 21 l 60 990 q 70 1031 60 1021 q 111 1042 81 1042 l 200 1042 q 241 1031 231 1042 q 251 990 251 1021 z "},"ĩ":{"ha":311,"x_min":-71,"x_max":382,"o":"m 107 1146 q 69 1115 83 1146 q 39 1096 60 1096 l -44 1096 q -67 1102 -61 1096 q -71 1125 -72 1108 q -23 1251 -60 1211 q 82 1290 14 1290 q 154 1265 119 1290 q 204 1240 189 1240 q 242 1272 229 1240 q 272 1290 251 1290 l 356 1290 q 378 1284 372 1290 q 382 1261 383 1278 q 229 1096 363 1096 q 156 1121 192 1096 q 107 1146 121 1146 m 251 990 l 251 51 q 241 10 251 21 q 200 0 231 0 l 111 0 q 70 10 81 0 q 60 51 60 21 l 60 990 q 70 1031 60 1021 q 111 1042 81 1042 l 200 1042 q 241 1031 231 1042 q 251 990 251 1021 z "},"Ī":{"ha":311,"x_min":-39,"x_max":350,"o":"m 350 1149 q 340 1108 350 1118 q 301 1097 329 1097 l 10 1097 q -28 1108 -18 1097 q -39 1149 -39 1118 l -39 1206 q -28 1247 -39 1236 q 13 1257 -18 1257 l 299 1257 q 340 1247 329 1257 q 350 1206 350 1236 l 350 1149 m 251 990 l 251 51 q 241 10 251 21 q 200 0 231 0 l 111 0 q 70 10 81 0 q 60 51 60 21 l 60 990 q 70 1031 60 1021 q 111 1042 81 1042 l 200 1042 q 241 1031 231 1042 q 251 990 251 1021 z "},"ī":{"ha":311,"x_min":-39,"x_max":350,"o":"m 350 1149 q 340 1108 350 1118 q 301 1097 329 1097 l 10 1097 q -28 1108 -18 1097 q -39 1149 -39 1118 l -39 1206 q -28 1247 -39 1236 q 13 1257 -18 1257 l 299 1257 q 340 1247 329 1257 q 350 1206 350 1236 l 350 1149 m 251 990 l 251 51 q 241 10 251 21 q 200 0 231 0 l 111 0 q 70 10 81 0 q 60 51 60 21 l 60 990 q 70 1031 60 1021 q 111 1042 81 1042 l 200 1042 q 241 1031 231 1042 q 251 990 251 1021 z "},"Ĭ":{"ha":311,"x_min":-58,"x_max":368,"o":"m 143 1089 q -58 1264 -58 1089 q -53 1288 -58 1282 q -32 1294 -47 1294 l 74 1294 q 94 1290 89 1294 q 100 1269 100 1285 q 149 1211 100 1211 l 161 1211 q 210 1269 210 1211 q 236 1294 210 1294 l 344 1294 q 363 1288 358 1294 q 368 1264 368 1282 q 167 1089 368 1089 l 143 1089 m 251 990 l 251 51 q 241 10 251 21 q 200 0 231 0 l 111 0 q 70 10 81 0 q 60 51 60 21 l 60 990 q 70 1031 60 1021 q 111 1042 81 1042 l 200 1042 q 241 1031 231 1042 q 251 990 251 1021 z "},"ĭ":{"ha":311,"x_min":-58,"x_max":368,"o":"m 143 1089 q -58 1264 -58 1089 q -53 1288 -58 1282 q -32 1294 -47 1294 l 74 1294 q 94 1290 89 1294 q 100 1269 100 1285 q 149 1211 100 1211 l 161 1211 q 210 1269 210 1211 q 236 1294 210 1294 l 344 1294 q 363 1288 358 1294 q 368 1264 368 1282 q 167 1089 368 1089 l 143 1089 m 251 990 l 251 51 q 241 10 251 21 q 200 0 231 0 l 111 0 q 70 10 81 0 q 60 51 60 21 l 60 990 q 70 1031 60 1021 q 111 1042 81 1042 l 200 1042 q 241 1031 231 1042 q 251 990 251 1021 z "},"Į":{"ha":311,"x_min":3,"x_max":308,"o":"m 308 -112 q 275 -226 308 -194 q 156 -258 242 -258 q 3 -129 3 -258 q 11 -77 3 -96 q 46 -40 19 -58 l 86 -11 q 83 3 99 -1 q 60 49 60 10 l 60 990 q 70 1031 60 1021 q 111 1042 81 1042 l 200 1042 q 241 1031 231 1042 q 251 990 251 1021 l 251 51 q 244 13 251 25 q 218 0 238 1 q 183 -18 204 -1 l 153 -44 q 131 -72 135 -60 q 126 -112 126 -83 q 157 -144 126 -144 q 189 -117 189 -144 l 189 -110 q 194 -90 189 -94 q 213 -85 199 -85 l 283 -85 q 303 -90 297 -85 q 308 -110 308 -94 l 308 -112 z "},"į":{"ha":311,"x_min":3,"x_max":308,"o":"m 308 -112 q 275 -226 308 -194 q 156 -258 242 -258 q 3 -129 3 -258 q 11 -77 3 -96 q 46 -40 19 -58 l 86 -11 q 83 3 99 -1 q 60 49 60 10 l 60 990 q 70 1031 60 1021 q 111 1042 81 1042 l 200 1042 q 241 1031 231 1042 q 251 990 251 1021 l 251 51 q 244 13 251 25 q 218 0 238 1 q 183 -18 204 -1 l 153 -44 q 131 -72 135 -60 q 126 -112 126 -83 q 157 -144 126 -144 q 189 -117 189 -144 l 189 -110 q 194 -90 189 -94 q 213 -85 199 -85 l 283 -85 q 303 -90 297 -85 q 308 -110 308 -94 l 308 -112 z "},"İ":{"ha":311,"x_min":53,"x_max":258,"o":"m 258 1225 l 258 1189 q 174 1104 258 1104 l 138 1104 q 53 1189 53 1104 l 53 1225 q 138 1310 53 1310 l 174 1310 q 258 1225 258 1310 m 251 990 l 251 51 q 241 10 251 21 q 200 0 231 0 l 111 0 q 70 10 81 0 q 60 51 60 21 l 60 990 q 70 1031 60 1021 q 111 1042 81 1042 l 200 1042 q 241 1031 231 1042 q 251 990 251 1021 z "},"Ĳ":{"ha":725,"x_min":60,"x_max":672,"o":"m 251 990 l 251 51 q 241 10 251 21 q 200 0 231 0 l 111 0 q 70 10 81 0 q 60 51 60 21 l 60 990 q 70 1031 60 1021 q 111 1042 81 1042 l 200 1042 q 241 1031 231 1042 q 251 990 251 1021 m 407 0 l 342 0 q 301 10 311 0 q 290 51 290 21 l 290 143 q 301 184 290 174 q 342 194 311 194 l 410 194 q 464 213 447 194 q 481 272 481 231 l 481 829 q 475 849 481 844 q 456 854 469 854 l 388 854 q 347 865 357 854 q 336 906 336 875 l 336 990 q 347 1031 336 1021 q 388 1042 357 1042 l 621 1042 q 662 1031 651 1042 q 672 990 672 1021 l 672 306 q 614 69 672 138 q 407 0 556 0 z "},"ĳ":{"ha":636,"x_min":53,"x_max":583,"o":"m 244 990 l 244 524 q 234 483 244 493 q 193 472 224 472 l 104 472 q 63 483 74 472 q 53 524 53 493 l 53 990 q 63 1031 53 1021 q 104 1042 74 1042 l 193 1042 q 234 1031 224 1042 q 244 990 244 1021 m 392 258 l 392 990 q 402 1031 392 1021 q 443 1042 413 1042 l 532 1042 q 573 1031 563 1042 q 583 990 583 1021 l 583 292 q 524 54 583 122 q 317 -14 465 -14 q 111 55 169 -14 q 53 292 53 124 l 53 333 q 66 374 56 364 q 104 385 76 385 l 193 385 q 236 374 225 385 q 244 333 247 364 l 244 258 q 317 181 249 181 q 374 199 356 181 q 392 258 392 217 z "},"Ĵ":{"ha":442,"x_min":-6,"x_max":450,"o":"m 171 1306 l 274 1306 q 308 1301 299 1306 q 332 1278 318 1296 l 438 1135 q 450 1111 450 1117 q 429 1096 450 1096 l 319 1096 q 282 1114 296 1096 l 233 1183 q 222 1190 228 1190 q 211 1183 217 1190 l 163 1114 q 125 1096 149 1096 l 15 1096 q -6 1111 -6 1096 q 7 1135 -6 1117 l 113 1278 q 136 1301 126 1296 q 171 1306 146 1306 m 124 0 l 58 0 q 17 10 28 0 q 7 51 7 21 l 7 143 q 17 184 7 174 q 58 194 28 194 l 126 194 q 181 213 164 194 q 197 272 197 231 l 197 829 q 192 849 197 844 q 172 854 186 854 l 104 854 q 63 865 74 854 q 53 906 53 875 l 53 990 q 63 1031 53 1021 q 104 1042 74 1042 l 338 1042 q 378 1031 368 1042 q 389 990 389 1021 l 389 306 q 331 69 389 138 q 124 0 272 0 z "},"ĵ":{"ha":593,"x_min":10,"x_max":671,"o":"m 392 1306 l 494 1306 q 529 1301 519 1306 q 553 1278 539 1296 l 658 1135 q 671 1111 671 1117 q 650 1096 671 1096 l 540 1096 q 503 1114 517 1096 l 454 1183 q 443 1190 449 1190 q 432 1183 438 1190 l 383 1114 q 346 1096 369 1096 l 236 1096 q 215 1111 215 1096 q 228 1135 215 1117 l 333 1278 q 357 1301 347 1296 q 392 1306 367 1306 m 349 258 l 349 990 q 359 1031 349 1021 q 400 1042 369 1042 l 489 1042 q 530 1031 519 1042 q 540 990 540 1021 l 540 292 q 481 54 540 122 q 274 -14 422 -14 q 68 55 126 -14 q 10 292 10 124 l 10 333 q 22 374 11 364 q 61 385 33 385 l 150 385 q 192 374 182 385 q 201 333 203 364 l 201 258 q 274 181 206 181 q 331 199 313 181 q 349 258 349 217 z "},"Ķ":{"ha":651,"x_min":60,"x_max":636,"o":"m 514 581 q 506 550 500 567 l 636 75 q 581 0 657 0 l 513 0 q 468 10 482 0 q 447 46 454 19 l 347 406 q 324 411 342 426 l 268 357 q 251 315 251 342 l 251 51 q 241 10 251 21 q 200 0 231 0 l 111 0 q 70 10 81 0 q 60 51 60 21 l 60 990 q 70 1031 60 1021 q 111 1042 81 1042 l 197 1042 q 238 1031 228 1042 q 249 990 249 1021 l 249 633 q 260 619 249 619 q 281 629 269 619 l 339 682 q 393 749 382 721 q 404 850 404 778 l 404 990 q 415 1031 404 1021 q 456 1042 425 1042 l 544 1042 q 585 1031 575 1042 q 596 990 596 1021 l 596 850 q 583 685 596 729 q 514 581 569 640 m 440 -103 l 371 -243 q 351 -268 361 -262 q 314 -274 340 -274 l 242 -274 q 209 -264 217 -274 q 208 -231 201 -254 l 243 -103 q 265 -64 251 -74 q 310 -54 279 -54 l 410 -54 q 440 -103 465 -54 z "},"ķ":{"ha":639,"x_min":60,"x_max":631,"o":"m 338 419 q 330 428 336 428 q 319 422 324 429 l 260 313 q 251 276 251 296 l 251 51 q 241 10 251 21 q 200 0 231 0 l 111 0 q 70 10 81 0 q 60 51 60 21 l 60 990 q 70 1031 60 1021 q 111 1042 81 1042 l 197 1042 q 238 1031 228 1042 q 249 990 249 1021 l 249 693 q 260 679 249 679 q 274 690 269 679 l 417 990 q 447 1033 433 1025 q 501 1042 461 1042 l 588 1042 q 619 988 647 1042 l 458 667 q 456 628 449 649 l 631 58 q 592 0 647 0 l 507 0 q 463 10 476 0 q 440 49 449 21 l 338 419 m 433 -103 l 364 -243 q 344 -268 354 -262 q 307 -274 333 -274 l 235 -274 q 202 -264 210 -274 q 201 -231 194 -254 l 236 -103 q 258 -64 244 -74 q 303 -54 272 -54 l 403 -54 q 433 -103 458 -54 z "},"Ĺ":{"ha":504,"x_min":60,"x_max":501,"o":"m 83 1132 l 161 1278 q 177 1296 169 1292 q 206 1300 185 1300 l 339 1300 q 364 1286 364 1300 q 354 1264 364 1276 l 253 1117 q 233 1097 243 1101 q 201 1093 224 1093 l 100 1093 q 75 1110 75 1093 q 83 1132 75 1115 m 251 217 q 276 194 251 194 l 450 194 q 491 184 481 194 q 501 143 501 174 l 501 51 q 491 10 501 21 q 450 0 481 0 l 111 0 q 70 10 81 0 q 60 51 60 21 l 60 990 q 70 1031 60 1021 q 111 1042 81 1042 l 200 1042 q 241 1031 231 1042 q 251 990 251 1021 l 251 217 z "},"ĺ":{"ha":504,"x_min":60,"x_max":501,"o":"m 83 1132 l 161 1278 q 177 1296 169 1292 q 206 1300 185 1300 l 339 1300 q 364 1286 364 1300 q 354 1264 364 1276 l 253 1117 q 233 1097 243 1101 q 201 1093 224 1093 l 100 1093 q 75 1110 75 1093 q 83 1132 75 1115 m 251 217 q 276 194 251 194 l 450 194 q 491 184 481 194 q 501 143 501 174 l 501 51 q 491 10 501 21 q 450 0 481 0 l 111 0 q 70 10 81 0 q 60 51 60 21 l 60 990 q 70 1031 60 1021 q 111 1042 81 1042 l 200 1042 q 241 1031 231 1042 q 251 990 251 1021 l 251 217 z "},"Ļ":{"ha":504,"x_min":60,"x_max":501,"o":"m 251 217 q 276 194 251 194 l 450 194 q 491 184 481 194 q 501 143 501 174 l 501 51 q 491 10 501 21 q 450 0 481 0 l 111 0 q 70 10 81 0 q 60 51 60 21 l 60 990 q 70 1031 60 1021 q 111 1042 81 1042 l 200 1042 q 241 1031 231 1042 q 251 990 251 1021 l 251 217 m 381 -103 l 311 -243 q 291 -268 301 -262 q 254 -274 281 -274 l 182 -274 q 149 -264 157 -274 q 149 -231 142 -254 l 183 -103 q 206 -64 192 -74 q 250 -54 219 -54 l 350 -54 q 381 -103 406 -54 z "},"ļ":{"ha":504,"x_min":60,"x_max":501,"o":"m 251 217 q 276 194 251 194 l 450 194 q 491 184 481 194 q 501 143 501 174 l 501 51 q 491 10 501 21 q 450 0 481 0 l 111 0 q 70 10 81 0 q 60 51 60 21 l 60 990 q 70 1031 60 1021 q 111 1042 81 1042 l 200 1042 q 241 1031 231 1042 q 251 990 251 1021 l 251 217 m 381 -103 l 311 -243 q 291 -268 301 -262 q 254 -274 281 -274 l 182 -274 q 149 -264 157 -274 q 149 -231 142 -254 l 183 -103 q 206 -64 192 -74 q 250 -54 219 -54 l 350 -54 q 381 -103 406 -54 z "},"Ľ":{"ha":514,"x_min":60,"x_max":501,"o":"m 251 217 q 276 194 251 194 l 450 194 q 491 184 481 194 q 501 143 501 174 l 501 51 q 491 10 501 21 q 450 0 481 0 l 111 0 q 70 10 81 0 q 60 51 60 21 l 60 990 q 70 1031 60 1021 q 111 1042 81 1042 l 200 1042 q 241 1031 231 1042 q 251 990 251 1021 l 251 217 m 475 988 l 461 829 q 449 791 458 800 q 410 782 439 782 l 357 782 q 318 791 328 782 q 306 829 308 800 l 292 988 q 299 1031 289 1019 q 338 1042 310 1042 l 429 1042 q 467 1031 457 1042 q 475 988 478 1019 z "},"ľ":{"ha":514,"x_min":60,"x_max":501,"o":"m 251 217 q 276 194 251 194 l 450 194 q 491 184 481 194 q 501 143 501 174 l 501 51 q 491 10 501 21 q 450 0 481 0 l 111 0 q 70 10 81 0 q 60 51 60 21 l 60 990 q 70 1031 60 1021 q 111 1042 81 1042 l 200 1042 q 241 1031 231 1042 q 251 990 251 1021 l 251 217 m 475 988 l 461 829 q 449 791 458 800 q 410 782 439 782 l 357 782 q 318 791 328 782 q 306 829 308 800 l 292 988 q 299 1031 289 1019 q 338 1042 310 1042 l 429 1042 q 467 1031 457 1042 q 475 988 478 1019 z "},"Ŀ":{"ha":518,"x_min":60,"x_max":503,"o":"m 251 217 q 276 194 251 194 l 450 194 q 491 184 481 194 q 501 143 501 174 l 501 51 q 491 10 501 21 q 450 0 481 0 l 111 0 q 70 10 81 0 q 60 51 60 21 l 60 990 q 70 1031 60 1021 q 111 1042 81 1042 l 200 1042 q 241 1031 231 1042 q 251 990 251 1021 l 251 217 m 503 643 l 503 607 q 418 522 503 522 l 382 522 q 297 607 297 522 l 297 643 q 382 728 297 728 l 418 728 q 503 643 503 728 z "},"ŀ":{"ha":518,"x_min":60,"x_max":503,"o":"m 251 217 q 276 194 251 194 l 450 194 q 491 184 481 194 q 501 143 501 174 l 501 51 q 491 10 501 21 q 450 0 481 0 l 111 0 q 70 10 81 0 q 60 51 60 21 l 60 990 q 70 1031 60 1021 q 111 1042 81 1042 l 200 1042 q 241 1031 231 1042 q 251 990 251 1021 l 251 217 m 503 643 l 503 607 q 418 522 503 522 l 382 522 q 297 607 297 522 l 297 643 q 382 728 297 728 l 418 728 q 503 643 503 728 z "},"Ł":{"ha":529,"x_min":6,"x_max":526,"o":"m 288 704 l 360 742 q 393 753 382 753 q 414 719 414 753 l 414 594 q 392 551 414 564 l 293 501 q 276 474 276 493 l 276 217 q 301 194 276 194 l 475 194 q 516 184 506 194 q 526 143 526 174 l 526 51 q 516 10 526 21 q 475 0 506 0 l 136 0 q 95 10 106 0 q 85 51 85 21 l 85 385 q 74 392 85 399 l 60 385 q 26 374 39 374 q 6 403 6 374 l 6 526 q 28 569 6 557 l 68 590 q 85 618 85 599 l 85 990 q 95 1031 85 1021 q 136 1042 106 1042 l 225 1042 q 266 1031 256 1042 q 276 990 276 1021 l 276 711 q 288 704 276 697 z "},"ł":{"ha":529,"x_min":6,"x_max":526,"o":"m 288 704 l 360 742 q 393 753 382 753 q 414 719 414 753 l 414 594 q 392 551 414 564 l 293 501 q 276 474 276 493 l 276 217 q 301 194 276 194 l 475 194 q 516 184 506 194 q 526 143 526 174 l 526 51 q 516 10 526 21 q 475 0 506 0 l 136 0 q 95 10 106 0 q 85 51 85 21 l 85 385 q 74 392 85 399 l 60 385 q 26 374 39 374 q 6 403 6 374 l 6 526 q 28 569 6 557 l 68 590 q 85 618 85 599 l 85 990 q 95 1031 85 1021 q 136 1042 106 1042 l 225 1042 q 266 1031 256 1042 q 276 990 276 1021 l 276 711 q 288 704 276 697 z "},"Ń":{"ha":686,"x_min":60,"x_max":626,"o":"m 257 1132 l 335 1278 q 351 1296 343 1292 q 379 1300 358 1300 l 513 1300 q 538 1286 538 1300 q 528 1264 538 1276 l 426 1117 q 407 1097 417 1101 q 375 1093 397 1093 l 274 1093 q 249 1110 249 1093 q 257 1132 249 1115 m 410 699 q 428 683 418 683 q 439 697 439 683 l 439 990 q 449 1031 439 1021 q 490 1042 460 1042 l 575 1042 q 616 1031 606 1042 q 626 990 626 1021 l 626 51 q 616 10 626 21 q 575 0 606 0 l 490 0 q 449 10 460 0 q 439 51 439 21 l 439 242 q 406 375 439 313 l 276 615 q 258 631 268 631 q 247 617 247 631 l 247 51 q 237 10 247 21 q 196 0 226 0 l 111 0 q 70 10 81 0 q 60 51 60 21 l 60 990 q 70 1031 60 1021 q 111 1042 81 1042 l 165 1042 q 225 1030 206 1042 q 265 976 244 1018 l 410 699 z "},"ń":{"ha":681,"x_min":60,"x_max":621,"o":"m 257 1132 l 335 1278 q 351 1296 343 1292 q 379 1300 358 1300 l 513 1300 q 538 1286 538 1300 q 528 1264 538 1276 l 426 1117 q 407 1097 417 1101 q 375 1093 397 1093 l 274 1093 q 249 1110 249 1093 q 257 1132 249 1115 m 440 538 l 440 990 q 451 1031 440 1021 q 492 1042 461 1042 l 569 1042 q 610 1031 600 1042 q 621 990 621 1021 l 621 51 q 610 10 621 21 q 569 0 600 0 l 506 0 q 460 9 474 0 q 436 47 447 18 l 263 507 q 249 519 257 519 q 239 504 239 519 l 239 51 q 228 10 239 21 q 188 0 218 0 l 111 0 q 70 10 81 0 q 60 51 60 21 l 60 990 q 70 1031 60 1021 q 111 1042 81 1042 l 174 1042 q 218 1035 206 1042 q 240 1006 231 1029 l 417 535 q 431 522 422 522 q 440 538 440 522 z "},"Ņ":{"ha":686,"x_min":60,"x_max":626,"o":"m 410 699 q 428 683 418 683 q 439 697 439 683 l 439 990 q 449 1031 439 1021 q 490 1042 460 1042 l 575 1042 q 616 1031 606 1042 q 626 990 626 1021 l 626 51 q 616 10 626 21 q 575 0 606 0 l 490 0 q 449 10 460 0 q 439 51 439 21 l 439 242 q 406 375 439 313 l 276 615 q 258 631 268 631 q 247 617 247 631 l 247 51 q 237 10 247 21 q 196 0 226 0 l 111 0 q 70 10 81 0 q 60 51 60 21 l 60 990 q 70 1031 60 1021 q 111 1042 81 1042 l 165 1042 q 225 1030 206 1042 q 265 976 244 1018 l 410 699 m 451 -103 l 382 -243 q 362 -268 372 -262 q 325 -274 351 -274 l 253 -274 q 220 -264 228 -274 q 219 -231 213 -254 l 254 -103 q 276 -64 263 -74 q 321 -54 290 -54 l 421 -54 q 451 -103 476 -54 z "},"ņ":{"ha":681,"x_min":60,"x_max":621,"o":"m 440 538 l 440 990 q 451 1031 440 1021 q 492 1042 461 1042 l 569 1042 q 610 1031 600 1042 q 621 990 621 1021 l 621 51 q 610 10 621 21 q 569 0 600 0 l 506 0 q 460 9 474 0 q 436 47 447 18 l 263 507 q 249 519 257 519 q 239 504 239 519 l 239 51 q 228 10 239 21 q 188 0 218 0 l 111 0 q 70 10 81 0 q 60 51 60 21 l 60 990 q 70 1031 60 1021 q 111 1042 81 1042 l 174 1042 q 218 1035 206 1042 q 240 1006 231 1029 l 417 535 q 431 522 422 522 q 440 538 440 522 m 451 -103 l 382 -243 q 362 -268 372 -262 q 325 -274 351 -274 l 253 -274 q 220 -264 228 -274 q 219 -231 213 -254 l 254 -103 q 276 -64 263 -74 q 321 -54 290 -54 l 421 -54 q 451 -103 476 -54 z "},"Ň":{"ha":686,"x_min":60,"x_max":626,"o":"m 288 1096 q 253 1101 263 1096 q 229 1124 243 1106 l 124 1267 q 111 1290 111 1285 q 132 1306 111 1306 l 242 1306 q 279 1288 265 1306 l 328 1218 q 339 1211 333 1211 q 350 1218 344 1211 l 399 1288 q 436 1306 413 1306 l 546 1306 q 567 1290 567 1306 q 554 1267 567 1285 l 449 1124 q 425 1101 435 1106 q 390 1096 415 1096 l 288 1096 m 410 699 q 428 683 418 683 q 439 697 439 683 l 439 990 q 449 1031 439 1021 q 490 1042 460 1042 l 575 1042 q 616 1031 606 1042 q 626 990 626 1021 l 626 51 q 616 10 626 21 q 575 0 606 0 l 490 0 q 449 10 460 0 q 439 51 439 21 l 439 242 q 406 375 439 313 l 276 615 q 258 631 268 631 q 247 617 247 631 l 247 51 q 237 10 247 21 q 196 0 226 0 l 111 0 q 70 10 81 0 q 60 51 60 21 l 60 990 q 70 1031 60 1021 q 111 1042 81 1042 l 165 1042 q 225 1030 206 1042 q 265 976 244 1018 l 410 699 z "},"ň":{"ha":681,"x_min":60,"x_max":621,"o":"m 288 1096 q 253 1101 263 1096 q 229 1124 243 1106 l 124 1267 q 111 1290 111 1285 q 132 1306 111 1306 l 242 1306 q 279 1288 265 1306 l 328 1218 q 339 1211 333 1211 q 350 1218 344 1211 l 399 1288 q 436 1306 413 1306 l 546 1306 q 567 1290 567 1306 q 554 1267 567 1285 l 449 1124 q 425 1101 435 1106 q 390 1096 415 1096 l 288 1096 m 440 538 l 440 990 q 451 1031 440 1021 q 492 1042 461 1042 l 569 1042 q 610 1031 600 1042 q 621 990 621 1021 l 621 51 q 610 10 621 21 q 569 0 600 0 l 506 0 q 460 9 474 0 q 436 47 447 18 l 263 507 q 249 519 257 519 q 239 504 239 519 l 239 51 q 228 10 239 21 q 188 0 218 0 l 111 0 q 70 10 81 0 q 60 51 60 21 l 60 990 q 70 1031 60 1021 q 111 1042 81 1042 l 174 1042 q 218 1035 206 1042 q 240 1006 231 1029 l 417 535 q 431 522 422 522 q 440 538 440 522 z "},"Ō":{"ha":628,"x_min":46,"x_max":582,"o":"m 508 1149 q 498 1108 508 1118 q 460 1097 488 1097 l 168 1097 q 130 1108 140 1097 q 119 1149 119 1118 l 119 1206 q 130 1247 119 1236 q 171 1257 140 1257 l 457 1257 q 498 1247 488 1257 q 508 1206 508 1236 l 508 1149 m 582 306 q 523 57 582 128 q 314 -14 464 -14 q 105 57 164 -14 q 46 306 46 128 l 46 736 q 105 984 46 913 q 314 1056 164 1056 q 523 984 464 1056 q 582 736 582 913 l 582 306 m 243 258 q 260 199 243 217 q 314 181 276 181 q 368 199 351 181 q 385 258 385 217 l 385 776 q 368 842 385 822 q 314 861 351 861 q 260 842 276 861 q 243 776 243 822 l 243 258 z "},"ō":{"ha":628,"x_min":46,"x_max":582,"o":"m 508 1149 q 498 1108 508 1118 q 460 1097 488 1097 l 168 1097 q 130 1108 140 1097 q 119 1149 119 1118 l 119 1206 q 130 1247 119 1236 q 171 1257 140 1257 l 457 1257 q 498 1247 488 1257 q 508 1206 508 1236 l 508 1149 m 582 306 q 523 57 582 128 q 314 -14 464 -14 q 105 57 164 -14 q 46 306 46 128 l 46 736 q 105 984 46 913 q 314 1056 164 1056 q 523 984 464 1056 q 582 736 582 913 l 582 306 m 243 258 q 260 199 243 217 q 314 181 276 181 q 368 199 351 181 q 385 258 385 217 l 385 776 q 368 842 385 822 q 314 861 351 861 q 260 842 276 861 q 243 776 243 822 l 243 258 z "},"Ŏ":{"ha":628,"x_min":46,"x_max":582,"o":"m 301 1089 q 100 1264 100 1089 q 106 1288 100 1282 q 126 1294 111 1294 l 232 1294 q 253 1290 247 1294 q 258 1269 258 1285 q 307 1211 258 1211 l 319 1211 q 368 1269 368 1211 q 394 1294 368 1294 l 503 1294 q 522 1288 517 1294 q 526 1264 526 1282 q 325 1089 526 1089 l 301 1089 m 582 306 q 523 57 582 128 q 314 -14 464 -14 q 105 57 164 -14 q 46 306 46 128 l 46 736 q 105 984 46 913 q 314 1056 164 1056 q 523 984 464 1056 q 582 736 582 913 l 582 306 m 243 258 q 260 199 243 217 q 314 181 276 181 q 368 199 351 181 q 385 258 385 217 l 385 776 q 368 842 385 822 q 314 861 351 861 q 260 842 276 861 q 243 776 243 822 l 243 258 z "},"ŏ":{"ha":628,"x_min":46,"x_max":582,"o":"m 301 1089 q 100 1264 100 1089 q 106 1288 100 1282 q 126 1294 111 1294 l 232 1294 q 253 1290 247 1294 q 258 1269 258 1285 q 307 1211 258 1211 l 319 1211 q 368 1269 368 1211 q 394 1294 368 1294 l 503 1294 q 522 1288 517 1294 q 526 1264 526 1282 q 325 1089 526 1089 l 301 1089 m 582 306 q 523 57 582 128 q 314 -14 464 -14 q 105 57 164 -14 q 46 306 46 128 l 46 736 q 105 984 46 913 q 314 1056 164 1056 q 523 984 464 1056 q 582 736 582 913 l 582 306 m 243 258 q 260 199 243 217 q 314 181 276 181 q 368 199 351 181 q 385 258 385 217 l 385 776 q 368 842 385 822 q 314 861 351 861 q 260 842 276 861 q 243 776 243 822 l 243 258 z "},"Ő":{"ha":628,"x_min":46,"x_max":642,"o":"m 122 1125 l 206 1265 q 220 1283 214 1279 q 243 1286 226 1286 l 376 1286 q 394 1274 394 1286 q 385 1253 394 1267 l 282 1108 q 239 1089 268 1089 l 133 1089 q 114 1103 114 1089 q 122 1125 114 1110 m 353 1125 l 436 1265 q 451 1283 444 1279 q 474 1286 457 1286 l 624 1286 q 642 1274 642 1286 q 632 1253 642 1264 l 513 1108 q 494 1092 501 1094 q 469 1089 488 1089 l 364 1089 q 344 1103 344 1089 q 353 1125 344 1110 m 582 306 q 523 57 582 128 q 314 -14 464 -14 q 105 57 164 -14 q 46 306 46 128 l 46 736 q 105 984 46 913 q 314 1056 164 1056 q 523 984 464 1056 q 582 736 582 913 l 582 306 m 243 258 q 260 199 243 217 q 314 181 276 181 q 368 199 351 181 q 385 258 385 217 l 385 776 q 368 842 385 822 q 314 861 351 861 q 260 842 276 861 q 243 776 243 822 l 243 258 z "},"ő":{"ha":628,"x_min":46,"x_max":642,"o":"m 122 1125 l 206 1265 q 220 1283 214 1279 q 243 1286 226 1286 l 376 1286 q 394 1274 394 1286 q 385 1253 394 1267 l 282 1108 q 239 1089 268 1089 l 133 1089 q 114 1103 114 1089 q 122 1125 114 1110 m 353 1125 l 436 1265 q 451 1283 444 1279 q 474 1286 457 1286 l 624 1286 q 642 1274 642 1286 q 632 1253 642 1264 l 513 1108 q 494 1092 501 1094 q 469 1089 488 1089 l 364 1089 q 344 1103 344 1089 q 353 1125 344 1110 m 582 306 q 523 57 582 128 q 314 -14 464 -14 q 105 57 164 -14 q 46 306 46 128 l 46 736 q 105 984 46 913 q 314 1056 164 1056 q 523 984 464 1056 q 582 736 582 913 l 582 306 m 243 258 q 260 199 243 217 q 314 181 276 181 q 368 199 351 181 q 385 258 385 217 l 385 776 q 368 842 385 822 q 314 861 351 861 q 260 842 276 861 q 243 776 243 822 l 243 258 z "},"Œ":{"ha":832,"x_min":46,"x_max":803,"o":"m 314 1042 l 751 1042 q 792 1031 782 1042 q 803 990 803 1021 l 803 899 q 792 858 803 868 q 751 847 782 847 l 600 847 q 581 842 586 847 q 575 822 575 836 l 575 667 q 600 642 575 642 l 735 642 q 776 631 765 642 q 786 590 786 621 l 786 499 q 776 458 786 468 q 738 447 765 447 l 600 447 q 581 442 586 447 q 575 422 575 436 l 575 219 q 600 188 575 188 l 751 188 q 793 178 783 188 q 803 136 803 169 l 803 44 q 792 6 803 18 q 751 -7 781 -7 l 314 -7 q 106 63 165 -7 q 46 299 46 133 l 46 736 q 105 974 46 906 q 314 1042 164 1042 m 314 174 l 360 174 q 380 178 375 174 q 385 199 385 183 l 385 836 q 380 856 385 850 q 360 861 375 861 l 314 861 q 260 842 276 861 q 243 776 243 822 l 243 258 q 314 174 243 174 z "},"œ":{"ha":829,"x_min":46,"x_max":803,"o":"m 314 1042 l 751 1042 q 792 1031 782 1042 q 803 990 803 1021 l 803 899 q 792 858 803 868 q 751 847 782 847 l 600 847 q 581 842 586 847 q 575 822 575 836 l 575 667 q 600 642 575 642 l 735 642 q 776 631 765 642 q 786 590 786 621 l 786 499 q 776 458 786 468 q 738 447 765 447 l 600 447 q 581 442 586 447 q 575 422 575 436 l 575 219 q 600 188 575 188 l 751 188 q 793 178 783 188 q 803 136 803 169 l 803 44 q 792 6 803 18 q 751 -7 781 -7 l 314 -7 q 106 63 165 -7 q 46 299 46 133 l 46 736 q 105 974 46 906 q 314 1042 164 1042 m 314 174 l 360 174 q 380 178 375 174 q 385 199 385 183 l 385 836 q 380 856 385 850 q 360 861 375 861 l 314 861 q 260 842 276 861 q 243 776 243 822 l 243 258 q 314 174 243 174 z "},"Ŕ":{"ha":643,"x_min":60,"x_max":601,"o":"m 222 1132 l 300 1278 q 316 1296 308 1292 q 344 1300 324 1300 l 478 1300 q 503 1286 503 1300 q 493 1264 503 1276 l 392 1117 q 372 1097 382 1101 q 340 1093 363 1093 l 239 1093 q 214 1110 214 1093 q 222 1132 214 1115 m 407 51 l 407 214 q 383 315 407 272 l 350 375 q 330 399 339 393 q 301 404 321 404 l 276 404 q 256 399 261 404 q 251 379 251 394 l 251 51 q 241 10 251 21 q 200 0 231 0 l 111 0 q 70 10 81 0 q 60 51 60 21 l 60 990 q 70 1031 60 1021 q 111 1042 81 1042 l 294 1042 q 528 983 454 1042 q 601 792 601 924 l 601 692 q 585 563 601 613 q 529 481 569 514 q 521 468 521 475 q 526 453 521 463 l 565 382 q 593 315 588 342 q 599 232 599 288 l 599 51 q 588 10 599 21 q 547 0 578 0 l 458 0 q 417 10 428 0 q 407 51 407 21 m 251 829 l 251 619 q 256 600 251 606 q 276 594 261 594 l 306 594 q 404 690 404 594 l 404 763 q 381 833 404 811 q 306 854 357 854 l 276 854 q 256 849 261 854 q 251 829 251 844 z "},"ŕ":{"ha":642,"x_min":60,"x_max":624,"o":"m 222 1132 l 300 1278 q 316 1296 308 1292 q 344 1300 324 1300 l 478 1300 q 503 1286 503 1300 q 493 1264 503 1276 l 392 1117 q 372 1097 382 1101 q 340 1093 363 1093 l 239 1093 q 214 1110 214 1093 q 222 1132 214 1115 m 426 39 l 315 376 q 282 401 307 401 l 276 401 q 256 397 261 401 q 251 376 251 392 l 251 51 q 241 10 251 21 q 200 0 231 0 l 111 0 q 70 10 81 0 q 60 51 60 21 l 60 990 q 70 1031 60 1021 q 111 1042 81 1042 l 294 1042 q 528 983 454 1042 q 601 792 601 924 l 601 692 q 582 545 601 594 q 507 449 563 496 q 497 433 497 442 q 501 415 497 431 l 624 53 q 586 0 642 0 l 485 0 q 445 7 456 0 q 426 39 435 14 m 251 829 l 251 615 q 256 595 251 600 q 276 590 261 590 l 306 590 q 404 686 404 590 l 404 763 q 381 833 404 811 q 306 854 357 854 l 276 854 q 256 849 261 854 q 251 829 251 844 z "},"Ŗ":{"ha":643,"x_min":60,"x_max":601,"o":"m 407 51 l 407 214 q 383 315 407 272 l 350 375 q 330 399 339 393 q 301 404 321 404 l 276 404 q 256 399 261 404 q 251 379 251 394 l 251 51 q 241 10 251 21 q 200 0 231 0 l 111 0 q 70 10 81 0 q 60 51 60 21 l 60 990 q 70 1031 60 1021 q 111 1042 81 1042 l 294 1042 q 528 983 454 1042 q 601 792 601 924 l 601 692 q 585 563 601 613 q 529 481 569 514 q 521 468 521 475 q 526 453 521 463 l 565 382 q 593 315 588 342 q 599 232 599 288 l 599 51 q 588 10 599 21 q 547 0 578 0 l 458 0 q 417 10 428 0 q 407 51 407 21 m 251 829 l 251 619 q 256 600 251 606 q 276 594 261 594 l 306 594 q 404 690 404 594 l 404 763 q 381 833 404 811 q 306 854 357 854 l 276 854 q 256 849 261 854 q 251 829 251 844 m 426 -103 l 357 -243 q 337 -268 347 -262 q 300 -274 326 -274 l 228 -274 q 195 -264 203 -274 q 194 -231 188 -254 l 229 -103 q 251 -64 238 -74 q 296 -54 265 -54 l 396 -54 q 426 -103 451 -54 z "},"ŗ":{"ha":642,"x_min":60,"x_max":624,"o":"m 426 39 l 315 376 q 282 401 307 401 l 276 401 q 256 397 261 401 q 251 376 251 392 l 251 51 q 241 10 251 21 q 200 0 231 0 l 111 0 q 70 10 81 0 q 60 51 60 21 l 60 990 q 70 1031 60 1021 q 111 1042 81 1042 l 294 1042 q 528 983 454 1042 q 601 792 601 924 l 601 692 q 582 545 601 594 q 507 449 563 496 q 497 433 497 442 q 501 415 497 431 l 624 53 q 586 0 642 0 l 485 0 q 445 7 456 0 q 426 39 435 14 m 251 829 l 251 615 q 256 595 251 600 q 276 590 261 590 l 306 590 q 404 686 404 590 l 404 763 q 381 833 404 811 q 306 854 357 854 l 276 854 q 256 849 261 854 q 251 829 251 844 m 426 -103 l 357 -243 q 337 -268 347 -262 q 300 -274 326 -274 l 228 -274 q 195 -264 203 -274 q 194 -231 188 -254 l 229 -103 q 251 -64 238 -74 q 296 -54 265 -54 l 396 -54 q 426 -103 451 -54 z "},"Ř":{"ha":643,"x_min":60,"x_max":601,"o":"m 263 1096 q 228 1101 238 1096 q 204 1124 218 1106 l 99 1267 q 86 1290 86 1285 q 107 1306 86 1306 l 217 1306 q 254 1288 240 1306 l 303 1218 q 314 1211 308 1211 q 325 1218 319 1211 l 374 1288 q 411 1306 388 1306 l 521 1306 q 542 1290 542 1306 q 529 1267 542 1285 l 424 1124 q 400 1101 410 1106 q 365 1096 390 1096 l 263 1096 m 407 51 l 407 214 q 383 315 407 272 l 350 375 q 330 399 339 393 q 301 404 321 404 l 276 404 q 256 399 261 404 q 251 379 251 394 l 251 51 q 241 10 251 21 q 200 0 231 0 l 111 0 q 70 10 81 0 q 60 51 60 21 l 60 990 q 70 1031 60 1021 q 111 1042 81 1042 l 294 1042 q 528 983 454 1042 q 601 792 601 924 l 601 692 q 585 563 601 613 q 529 481 569 514 q 521 468 521 475 q 526 453 521 463 l 565 382 q 593 315 588 342 q 599 232 599 288 l 599 51 q 588 10 599 21 q 547 0 578 0 l 458 0 q 417 10 428 0 q 407 51 407 21 m 251 829 l 251 619 q 256 600 251 606 q 276 594 261 594 l 306 594 q 404 690 404 594 l 404 763 q 381 833 404 811 q 306 854 357 854 l 276 854 q 256 849 261 854 q 251 829 251 844 z "},"ř":{"ha":642,"x_min":60,"x_max":624,"o":"m 263 1096 q 228 1101 238 1096 q 204 1124 218 1106 l 99 1267 q 86 1290 86 1285 q 107 1306 86 1306 l 217 1306 q 254 1288 240 1306 l 303 1218 q 314 1211 308 1211 q 325 1218 319 1211 l 374 1288 q 411 1306 388 1306 l 521 1306 q 542 1290 542 1306 q 529 1267 542 1285 l 424 1124 q 400 1101 410 1106 q 365 1096 390 1096 l 263 1096 m 426 39 l 315 376 q 282 401 307 401 l 276 401 q 256 397 261 401 q 251 376 251 392 l 251 51 q 241 10 251 21 q 200 0 231 0 l 111 0 q 70 10 81 0 q 60 51 60 21 l 60 990 q 70 1031 60 1021 q 111 1042 81 1042 l 294 1042 q 528 983 454 1042 q 601 792 601 924 l 601 692 q 582 545 601 594 q 507 449 563 496 q 497 433 497 442 q 501 415 497 431 l 624 53 q 586 0 642 0 l 485 0 q 445 7 456 0 q 426 39 435 14 m 251 829 l 251 615 q 256 595 251 600 q 276 590 261 590 l 306 590 q 404 686 404 590 l 404 763 q 381 833 404 811 q 306 854 357 854 l 276 854 q 256 849 261 854 q 251 829 251 844 z "},"Ś":{"ha":597,"x_min":31,"x_max":567,"o":"m 224 1132 l 301 1278 q 317 1296 310 1292 q 346 1300 325 1300 l 479 1300 q 504 1286 504 1300 q 494 1264 504 1276 l 393 1117 q 374 1097 383 1101 q 342 1093 364 1093 l 240 1093 q 215 1110 215 1093 q 224 1132 215 1115 m 275 671 l 453 510 q 544 402 521 449 q 567 283 567 356 l 567 258 q 506 53 567 121 q 299 -14 444 -14 q 90 54 149 -14 q 31 292 31 122 l 31 319 q 41 360 31 350 q 82 371 51 371 l 176 371 q 217 360 207 371 q 228 319 228 350 l 228 258 q 244 199 228 217 q 299 181 261 181 q 369 251 369 181 l 369 278 q 358 328 369 308 q 310 382 347 349 l 143 531 q 53 635 75 590 q 31 753 31 681 l 31 783 q 92 988 31 921 q 299 1056 153 1056 q 508 988 449 1056 q 567 750 567 919 l 567 722 q 556 681 567 692 q 515 671 546 671 l 421 671 q 380 681 390 671 q 369 722 369 692 l 369 783 q 353 843 369 825 q 299 861 336 861 q 228 790 228 861 l 228 767 q 237 717 228 736 q 275 671 246 697 z "},"ś":{"ha":597,"x_min":31,"x_max":567,"o":"m 224 1132 l 301 1278 q 317 1296 310 1292 q 346 1300 325 1300 l 479 1300 q 504 1286 504 1300 q 494 1264 504 1276 l 393 1117 q 374 1097 383 1101 q 342 1093 364 1093 l 240 1093 q 215 1110 215 1093 q 224 1132 215 1115 m 275 671 l 453 510 q 544 402 521 449 q 567 283 567 356 l 567 258 q 506 53 567 121 q 299 -14 444 -14 q 90 54 149 -14 q 31 292 31 122 l 31 319 q 41 360 31 350 q 82 371 51 371 l 176 371 q 217 360 207 371 q 228 319 228 350 l 228 258 q 244 199 228 217 q 299 181 261 181 q 369 251 369 181 l 369 278 q 358 328 369 308 q 310 382 347 349 l 143 531 q 53 635 75 590 q 31 753 31 681 l 31 783 q 92 988 31 921 q 299 1056 153 1056 q 508 988 449 1056 q 567 750 567 919 l 567 722 q 556 681 567 692 q 515 671 546 671 l 421 671 q 380 681 390 671 q 369 722 369 692 l 369 783 q 353 843 369 825 q 299 861 336 861 q 228 790 228 861 l 228 767 q 237 717 228 736 q 275 671 246 697 z "},"Ŝ":{"ha":597,"x_min":31,"x_max":567,"o":"m 247 1306 l 350 1306 q 385 1301 375 1306 q 408 1278 394 1296 l 514 1135 q 526 1111 526 1117 q 506 1096 526 1096 l 396 1096 q 358 1114 372 1096 l 310 1183 q 299 1190 304 1190 q 288 1183 293 1190 l 239 1114 q 201 1096 225 1096 l 92 1096 q 71 1111 71 1096 q 83 1135 71 1117 l 189 1278 q 213 1301 203 1296 q 247 1306 222 1306 m 275 671 l 453 510 q 544 402 521 449 q 567 283 567 356 l 567 258 q 506 53 567 121 q 299 -14 444 -14 q 90 54 149 -14 q 31 292 31 122 l 31 319 q 41 360 31 350 q 82 371 51 371 l 176 371 q 217 360 207 371 q 228 319 228 350 l 228 258 q 244 199 228 217 q 299 181 261 181 q 369 251 369 181 l 369 278 q 358 328 369 308 q 310 382 347 349 l 143 531 q 53 635 75 590 q 31 753 31 681 l 31 783 q 92 988 31 921 q 299 1056 153 1056 q 508 988 449 1056 q 567 750 567 919 l 567 722 q 556 681 567 692 q 515 671 546 671 l 421 671 q 380 681 390 671 q 369 722 369 692 l 369 783 q 353 843 369 825 q 299 861 336 861 q 228 790 228 861 l 228 767 q 237 717 228 736 q 275 671 246 697 z "},"ŝ":{"ha":597,"x_min":31,"x_max":567,"o":"m 247 1306 l 350 1306 q 385 1301 375 1306 q 408 1278 394 1296 l 514 1135 q 526 1111 526 1117 q 506 1096 526 1096 l 396 1096 q 358 1114 372 1096 l 310 1183 q 299 1190 304 1190 q 288 1183 293 1190 l 239 1114 q 201 1096 225 1096 l 92 1096 q 71 1111 71 1096 q 83 1135 71 1117 l 189 1278 q 213 1301 203 1296 q 247 1306 222 1306 m 275 671 l 453 510 q 544 402 521 449 q 567 283 567 356 l 567 258 q 506 53 567 121 q 299 -14 444 -14 q 90 54 149 -14 q 31 292 31 122 l 31 319 q 41 360 31 350 q 82 371 51 371 l 176 371 q 217 360 207 371 q 228 319 228 350 l 228 258 q 244 199 228 217 q 299 181 261 181 q 369 251 369 181 l 369 278 q 358 328 369 308 q 310 382 347 349 l 143 531 q 53 635 75 590 q 31 753 31 681 l 31 783 q 92 988 31 921 q 299 1056 153 1056 q 508 988 449 1056 q 567 750 567 919 l 567 722 q 556 681 567 692 q 515 671 546 671 l 421 671 q 380 681 390 671 q 369 722 369 692 l 369 783 q 353 843 369 825 q 299 861 336 861 q 228 790 228 861 l 228 767 q 237 717 228 736 q 275 671 246 697 z "},"Ş":{"ha":597,"x_min":31,"x_max":567,"o":"m 221 -12 q 71 73 111 4 q 31 292 31 142 l 31 319 q 41 360 31 350 q 82 371 51 371 l 176 371 q 217 360 207 371 q 228 319 228 350 l 228 258 q 246 199 228 217 q 303 181 264 181 q 369 258 369 181 l 369 288 q 364 325 369 313 q 338 356 358 338 l 140 532 q 52 638 74 592 q 31 753 31 683 l 31 778 q 92 987 31 918 q 299 1056 153 1056 q 508 988 449 1056 q 567 750 567 919 l 567 722 q 556 681 567 692 q 515 671 546 671 l 421 671 q 380 681 390 671 q 369 722 369 692 l 369 783 q 353 843 369 825 q 299 861 336 861 q 244 843 261 861 q 228 783 228 825 l 228 754 q 256 689 228 714 l 458 504 q 545 401 524 446 q 567 289 567 356 l 567 264 q 521 70 567 136 q 360 -8 475 4 q 344 -26 344 -10 q 349 -45 344 -40 q 367 -53 353 -50 q 464 -185 464 -78 q 317 -335 464 -335 q 168 -211 182 -335 l 167 -199 q 189 -176 165 -176 l 260 -176 q 274 -178 269 -176 q 279 -185 278 -181 q 282 -199 281 -189 q 317 -226 286 -226 q 346 -183 346 -226 q 337 -152 346 -161 q 304 -140 328 -143 q 249 -121 264 -137 q 235 -62 235 -104 l 235 -32 q 221 -12 235 -14 z "},"ş":{"ha":597,"x_min":31,"x_max":567,"o":"m 221 -12 q 71 73 111 4 q 31 292 31 142 l 31 319 q 41 360 31 350 q 82 371 51 371 l 176 371 q 217 360 207 371 q 228 319 228 350 l 228 258 q 246 199 228 217 q 303 181 264 181 q 369 258 369 181 l 369 288 q 364 325 369 313 q 338 356 358 338 l 140 532 q 52 638 74 592 q 31 753 31 683 l 31 778 q 92 987 31 918 q 299 1056 153 1056 q 508 988 449 1056 q 567 750 567 919 l 567 722 q 556 681 567 692 q 515 671 546 671 l 421 671 q 380 681 390 671 q 369 722 369 692 l 369 783 q 353 843 369 825 q 299 861 336 861 q 244 843 261 861 q 228 783 228 825 l 228 754 q 256 689 228 714 l 458 504 q 545 401 524 446 q 567 289 567 356 l 567 264 q 521 70 567 136 q 360 -8 475 4 q 344 -26 344 -10 q 349 -45 344 -40 q 367 -53 353 -50 q 464 -185 464 -78 q 317 -335 464 -335 q 168 -211 182 -335 l 167 -199 q 189 -176 165 -176 l 260 -176 q 274 -178 269 -176 q 279 -185 278 -181 q 282 -199 281 -189 q 317 -226 286 -226 q 346 -183 346 -226 q 337 -152 346 -161 q 304 -140 328 -143 q 249 -121 264 -137 q 235 -62 235 -104 l 235 -32 q 221 -12 235 -14 z "},"Š":{"ha":597,"x_min":31,"x_max":567,"o":"m 247 1096 q 213 1101 222 1096 q 189 1124 203 1106 l 83 1267 q 71 1290 71 1285 q 92 1306 71 1306 l 201 1306 q 239 1288 225 1306 l 288 1218 q 299 1211 293 1211 q 310 1218 304 1211 l 358 1288 q 396 1306 372 1306 l 506 1306 q 526 1290 526 1306 q 514 1267 526 1285 l 408 1124 q 385 1101 394 1106 q 350 1096 375 1096 l 247 1096 m 275 671 l 453 510 q 544 402 521 449 q 567 283 567 356 l 567 258 q 506 53 567 121 q 299 -14 444 -14 q 90 54 149 -14 q 31 292 31 122 l 31 319 q 41 360 31 350 q 82 371 51 371 l 176 371 q 217 360 207 371 q 228 319 228 350 l 228 258 q 244 199 228 217 q 299 181 261 181 q 369 251 369 181 l 369 278 q 358 328 369 308 q 310 382 347 349 l 143 531 q 53 635 75 590 q 31 753 31 681 l 31 783 q 92 988 31 921 q 299 1056 153 1056 q 508 988 449 1056 q 567 750 567 919 l 567 722 q 556 681 567 692 q 515 671 546 671 l 421 671 q 380 681 390 671 q 369 722 369 692 l 369 783 q 353 843 369 825 q 299 861 336 861 q 228 790 228 861 l 228 767 q 237 717 228 736 q 275 671 246 697 z "},"š":{"ha":597,"x_min":31,"x_max":567,"o":"m 247 1096 q 213 1101 222 1096 q 189 1124 203 1106 l 83 1267 q 71 1290 71 1285 q 92 1306 71 1306 l 201 1306 q 239 1288 225 1306 l 288 1218 q 299 1211 293 1211 q 310 1218 304 1211 l 358 1288 q 396 1306 372 1306 l 506 1306 q 526 1290 526 1306 q 514 1267 526 1285 l 408 1124 q 385 1101 394 1106 q 350 1096 375 1096 l 247 1096 m 275 671 l 453 510 q 544 402 521 449 q 567 283 567 356 l 567 258 q 506 53 567 121 q 299 -14 444 -14 q 90 54 149 -14 q 31 292 31 122 l 31 319 q 41 360 31 350 q 82 371 51 371 l 176 371 q 217 360 207 371 q 228 319 228 350 l 228 258 q 244 199 228 217 q 299 181 261 181 q 369 251 369 181 l 369 278 q 358 328 369 308 q 310 382 347 349 l 143 531 q 53 635 75 590 q 31 753 31 681 l 31 783 q 92 988 31 921 q 299 1056 153 1056 q 508 988 449 1056 q 567 750 567 919 l 567 722 q 556 681 567 692 q 515 671 546 671 l 421 671 q 380 681 390 671 q 369 722 369 692 l 369 783 q 353 843 369 825 q 299 861 336 861 q 228 790 228 861 l 228 767 q 237 717 228 736 q 275 671 246 697 z "},"Ţ":{"ha":525,"x_min":4,"x_max":521,"o":"m 469 847 l 383 847 q 364 842 369 847 q 358 822 358 836 l 358 51 q 348 10 358 21 q 307 0 338 0 l 218 0 q 177 10 188 0 q 167 51 167 21 l 167 822 q 161 842 167 836 q 142 847 156 847 l 56 847 q 15 858 25 847 q 4 899 4 868 l 4 990 q 15 1031 4 1021 q 56 1042 25 1042 l 469 1042 q 510 1031 500 1042 q 521 990 521 1021 l 521 899 q 510 858 521 868 q 469 847 500 847 m 363 -103 l 293 -243 q 273 -268 283 -262 q 236 -274 263 -274 l 164 -274 q 131 -264 139 -274 q 131 -231 124 -254 l 165 -103 q 188 -64 174 -74 q 232 -54 201 -54 l 332 -54 q 363 -103 388 -54 z "},"ţ":{"ha":525,"x_min":4,"x_max":521,"o":"m 469 847 l 383 847 q 364 842 369 847 q 358 822 358 836 l 358 51 q 348 10 358 21 q 307 0 338 0 l 218 0 q 177 10 188 0 q 167 51 167 21 l 167 822 q 161 842 167 836 q 142 847 156 847 l 56 847 q 15 858 25 847 q 4 899 4 868 l 4 990 q 15 1031 4 1021 q 56 1042 25 1042 l 469 1042 q 510 1031 500 1042 q 521 990 521 1021 l 521 899 q 510 858 521 868 q 469 847 500 847 m 363 -103 l 293 -243 q 273 -268 283 -262 q 236 -274 263 -274 l 164 -274 q 131 -264 139 -274 q 131 -231 124 -254 l 165 -103 q 188 -64 174 -74 q 232 -54 201 -54 l 332 -54 q 363 -103 388 -54 z "},"Ť":{"ha":525,"x_min":4,"x_max":521,"o":"m 210 1096 q 175 1101 185 1096 q 151 1124 165 1106 l 46 1267 q 33 1290 33 1285 q 54 1306 33 1306 l 164 1306 q 201 1288 188 1306 l 250 1218 q 261 1211 256 1211 q 272 1218 267 1211 l 321 1288 q 358 1306 335 1306 l 468 1306 q 489 1290 489 1306 q 476 1267 489 1285 l 371 1124 q 347 1101 357 1106 q 313 1096 338 1096 l 210 1096 m 469 847 l 383 847 q 364 842 369 847 q 358 822 358 836 l 358 51 q 348 10 358 21 q 307 0 338 0 l 218 0 q 177 10 188 0 q 167 51 167 21 l 167 822 q 161 842 167 836 q 142 847 156 847 l 56 847 q 15 858 25 847 q 4 899 4 868 l 4 990 q 15 1031 4 1021 q 56 1042 25 1042 l 469 1042 q 510 1031 500 1042 q 521 990 521 1021 l 521 899 q 510 858 521 868 q 469 847 500 847 z "},"ť":{"ha":525,"x_min":4,"x_max":521,"o":"m 210 1096 q 175 1101 185 1096 q 151 1124 165 1106 l 46 1267 q 33 1290 33 1285 q 54 1306 33 1306 l 164 1306 q 201 1288 188 1306 l 250 1218 q 261 1211 256 1211 q 272 1218 267 1211 l 321 1288 q 358 1306 335 1306 l 468 1306 q 489 1290 489 1306 q 476 1267 489 1285 l 371 1124 q 347 1101 357 1106 q 313 1096 338 1096 l 210 1096 m 469 847 l 383 847 q 364 842 369 847 q 358 822 358 836 l 358 51 q 348 10 358 21 q 307 0 338 0 l 218 0 q 177 10 188 0 q 167 51 167 21 l 167 822 q 161 842 167 836 q 142 847 156 847 l 56 847 q 15 858 25 847 q 4 899 4 868 l 4 990 q 15 1031 4 1021 q 56 1042 25 1042 l 469 1042 q 510 1031 500 1042 q 521 990 521 1021 l 521 899 q 510 858 521 868 q 469 847 500 847 z "},"Ŧ":{"ha":536,"x_min":10,"x_max":526,"o":"m 389 847 q 369 842 375 847 q 364 822 364 836 l 364 646 q 382 628 364 628 l 442 628 q 483 617 472 628 q 493 576 493 607 l 493 492 q 483 451 493 461 q 444 440 472 440 l 382 440 q 364 422 364 440 l 364 51 q 353 10 364 21 q 313 0 343 0 l 224 0 q 183 10 193 0 q 172 51 172 21 l 172 422 q 154 440 172 440 l 92 440 q 53 451 64 440 q 43 492 43 461 l 43 576 q 53 617 43 607 q 94 628 64 628 l 154 628 q 172 646 172 628 l 172 822 q 167 842 172 836 q 147 847 161 847 l 61 847 q 20 858 31 847 q 10 899 10 868 l 10 990 q 20 1031 10 1021 q 61 1042 31 1042 l 475 1042 q 516 1031 506 1042 q 526 990 526 1021 l 526 899 q 516 858 526 868 q 475 847 506 847 l 389 847 z "},"ŧ":{"ha":536,"x_min":10,"x_max":526,"o":"m 389 847 q 369 842 375 847 q 364 822 364 836 l 364 646 q 382 628 364 628 l 442 628 q 483 617 472 628 q 493 576 493 607 l 493 492 q 483 451 493 461 q 444 440 472 440 l 382 440 q 364 422 364 440 l 364 51 q 353 10 364 21 q 313 0 343 0 l 224 0 q 183 10 193 0 q 172 51 172 21 l 172 422 q 154 440 172 440 l 92 440 q 53 451 64 440 q 43 492 43 461 l 43 576 q 53 617 43 607 q 94 628 64 628 l 154 628 q 172 646 172 628 l 172 822 q 167 842 172 836 q 147 847 161 847 l 61 847 q 20 858 31 847 q 10 899 10 868 l 10 990 q 20 1031 10 1021 q 61 1042 31 1042 l 475 1042 q 516 1031 506 1042 q 526 990 526 1021 l 526 899 q 516 858 526 868 q 475 847 506 847 l 389 847 z "},"Ũ":{"ha":642,"x_min":53,"x_max":589,"o":"m 268 1146 q 231 1115 244 1146 q 200 1096 221 1096 l 117 1096 q 94 1102 100 1096 q 90 1125 89 1108 q 138 1251 101 1211 q 243 1290 175 1290 q 315 1265 281 1290 q 365 1240 350 1240 q 403 1272 390 1240 q 433 1290 413 1290 l 517 1290 q 539 1284 533 1290 q 543 1261 544 1278 q 390 1096 524 1096 q 317 1121 353 1096 q 268 1146 282 1146 m 397 990 q 408 1031 397 1021 q 449 1042 418 1042 l 538 1042 q 578 1031 568 1042 q 589 990 589 1021 l 589 292 q 530 54 589 122 q 321 -14 471 -14 q 112 54 171 -14 q 53 292 53 122 l 53 990 q 63 1031 53 1021 q 104 1042 74 1042 l 193 1042 q 234 1031 224 1042 q 244 990 244 1021 l 244 258 q 263 199 244 217 q 321 181 281 181 q 397 258 397 181 l 397 990 z "},"ũ":{"ha":642,"x_min":53,"x_max":589,"o":"m 268 1146 q 231 1115 244 1146 q 200 1096 221 1096 l 117 1096 q 94 1102 100 1096 q 90 1125 89 1108 q 138 1251 101 1211 q 243 1290 175 1290 q 315 1265 281 1290 q 365 1240 350 1240 q 403 1272 390 1240 q 433 1290 413 1290 l 517 1290 q 539 1284 533 1290 q 543 1261 544 1278 q 390 1096 524 1096 q 317 1121 353 1096 q 268 1146 282 1146 m 397 990 q 408 1031 397 1021 q 449 1042 418 1042 l 538 1042 q 578 1031 568 1042 q 589 990 589 1021 l 589 292 q 530 54 589 122 q 321 -14 471 -14 q 112 54 171 -14 q 53 292 53 122 l 53 990 q 63 1031 53 1021 q 104 1042 74 1042 l 193 1042 q 234 1031 224 1042 q 244 990 244 1021 l 244 258 q 263 199 244 217 q 321 181 281 181 q 397 258 397 181 l 397 990 z "},"Ū":{"ha":642,"x_min":53,"x_max":589,"o":"m 511 1149 q 501 1108 511 1118 q 463 1097 490 1097 l 171 1097 q 133 1108 143 1097 q 122 1149 122 1118 l 122 1206 q 133 1247 122 1236 q 174 1257 143 1257 l 460 1257 q 501 1247 490 1257 q 511 1206 511 1236 l 511 1149 m 397 990 q 408 1031 397 1021 q 449 1042 418 1042 l 538 1042 q 578 1031 568 1042 q 589 990 589 1021 l 589 292 q 530 54 589 122 q 321 -14 471 -14 q 112 54 171 -14 q 53 292 53 122 l 53 990 q 63 1031 53 1021 q 104 1042 74 1042 l 193 1042 q 234 1031 224 1042 q 244 990 244 1021 l 244 258 q 263 199 244 217 q 321 181 281 181 q 397 258 397 181 l 397 990 z "},"ū":{"ha":642,"x_min":53,"x_max":589,"o":"m 511 1149 q 501 1108 511 1118 q 463 1097 490 1097 l 171 1097 q 133 1108 143 1097 q 122 1149 122 1118 l 122 1206 q 133 1247 122 1236 q 174 1257 143 1257 l 460 1257 q 501 1247 490 1257 q 511 1206 511 1236 l 511 1149 m 397 990 q 408 1031 397 1021 q 449 1042 418 1042 l 538 1042 q 578 1031 568 1042 q 589 990 589 1021 l 589 292 q 530 54 589 122 q 321 -14 471 -14 q 112 54 171 -14 q 53 292 53 122 l 53 990 q 63 1031 53 1021 q 104 1042 74 1042 l 193 1042 q 234 1031 224 1042 q 244 990 244 1021 l 244 258 q 263 199 244 217 q 321 181 281 181 q 397 258 397 181 l 397 990 z "},"Ŭ":{"ha":642,"x_min":53,"x_max":589,"o":"m 304 1089 q 103 1264 103 1089 q 108 1288 103 1282 q 129 1294 114 1294 l 235 1294 q 256 1290 250 1294 q 261 1269 261 1285 q 310 1211 261 1211 l 322 1211 q 371 1269 371 1211 q 397 1294 371 1294 l 506 1294 q 524 1288 519 1294 q 529 1264 529 1282 q 328 1089 529 1089 l 304 1089 m 397 990 q 408 1031 397 1021 q 449 1042 418 1042 l 538 1042 q 578 1031 568 1042 q 589 990 589 1021 l 589 292 q 530 54 589 122 q 321 -14 471 -14 q 112 54 171 -14 q 53 292 53 122 l 53 990 q 63 1031 53 1021 q 104 1042 74 1042 l 193 1042 q 234 1031 224 1042 q 244 990 244 1021 l 244 258 q 263 199 244 217 q 321 181 281 181 q 397 258 397 181 l 397 990 z "},"ŭ":{"ha":642,"x_min":53,"x_max":589,"o":"m 304 1089 q 103 1264 103 1089 q 108 1288 103 1282 q 129 1294 114 1294 l 235 1294 q 256 1290 250 1294 q 261 1269 261 1285 q 310 1211 261 1211 l 322 1211 q 371 1269 371 1211 q 397 1294 371 1294 l 506 1294 q 524 1288 519 1294 q 529 1264 529 1282 q 328 1089 529 1089 l 304 1089 m 397 990 q 408 1031 397 1021 q 449 1042 418 1042 l 538 1042 q 578 1031 568 1042 q 589 990 589 1021 l 589 292 q 530 54 589 122 q 321 -14 471 -14 q 112 54 171 -14 q 53 292 53 122 l 53 990 q 63 1031 53 1021 q 104 1042 74 1042 l 193 1042 q 234 1031 224 1042 q 244 990 244 1021 l 244 258 q 263 199 244 217 q 321 181 281 181 q 397 258 397 181 l 397 990 z "},"Ů":{"ha":642,"x_min":53,"x_max":589,"o":"m 468 1246 l 468 1215 q 332 1078 468 1078 l 301 1078 q 165 1215 165 1078 l 165 1246 q 301 1383 165 1383 l 332 1383 q 468 1246 468 1383 m 324 1172 q 368 1222 368 1172 l 368 1235 q 324 1285 368 1285 l 313 1285 q 268 1235 268 1285 l 268 1222 q 313 1172 268 1172 l 324 1172 m 397 990 q 408 1031 397 1021 q 449 1042 418 1042 l 538 1042 q 578 1031 568 1042 q 589 990 589 1021 l 589 292 q 530 54 589 122 q 321 -14 471 -14 q 112 54 171 -14 q 53 292 53 122 l 53 990 q 63 1031 53 1021 q 104 1042 74 1042 l 193 1042 q 234 1031 224 1042 q 244 990 244 1021 l 244 258 q 263 199 244 217 q 321 181 281 181 q 397 258 397 181 l 397 990 z "},"ů":{"ha":642,"x_min":53,"x_max":589,"o":"m 468 1246 l 468 1215 q 332 1078 468 1078 l 301 1078 q 165 1215 165 1078 l 165 1246 q 301 1383 165 1383 l 332 1383 q 468 1246 468 1383 m 324 1172 q 368 1222 368 1172 l 368 1235 q 324 1285 368 1285 l 313 1285 q 268 1235 268 1285 l 268 1222 q 313 1172 268 1172 l 324 1172 m 397 990 q 408 1031 397 1021 q 449 1042 418 1042 l 538 1042 q 578 1031 568 1042 q 589 990 589 1021 l 589 292 q 530 54 589 122 q 321 -14 471 -14 q 112 54 171 -14 q 53 292 53 122 l 53 990 q 63 1031 53 1021 q 104 1042 74 1042 l 193 1042 q 234 1031 224 1042 q 244 990 244 1021 l 244 258 q 263 199 244 217 q 321 181 281 181 q 397 258 397 181 l 397 990 z "},"Ű":{"ha":642,"x_min":53,"x_max":643,"o":"m 124 1125 l 207 1265 q 222 1283 215 1279 q 244 1286 228 1286 l 378 1286 q 396 1274 396 1286 q 386 1253 396 1267 l 283 1108 q 240 1089 269 1089 l 135 1089 q 115 1103 115 1089 q 124 1125 115 1110 m 354 1125 l 438 1265 q 452 1283 446 1279 q 475 1286 458 1286 l 625 1286 q 643 1274 643 1286 q 633 1253 643 1264 l 514 1108 q 496 1092 503 1094 q 471 1089 489 1089 l 365 1089 q 346 1103 346 1089 q 354 1125 346 1110 m 397 990 q 408 1031 397 1021 q 449 1042 418 1042 l 538 1042 q 578 1031 568 1042 q 589 990 589 1021 l 589 292 q 530 54 589 122 q 321 -14 471 -14 q 112 54 171 -14 q 53 292 53 122 l 53 990 q 63 1031 53 1021 q 104 1042 74 1042 l 193 1042 q 234 1031 224 1042 q 244 990 244 1021 l 244 258 q 263 199 244 217 q 321 181 281 181 q 397 258 397 181 l 397 990 z "},"ű":{"ha":642,"x_min":53,"x_max":643,"o":"m 124 1125 l 207 1265 q 222 1283 215 1279 q 244 1286 228 1286 l 378 1286 q 396 1274 396 1286 q 386 1253 396 1267 l 283 1108 q 240 1089 269 1089 l 135 1089 q 115 1103 115 1089 q 124 1125 115 1110 m 354 1125 l 438 1265 q 452 1283 446 1279 q 475 1286 458 1286 l 625 1286 q 643 1274 643 1286 q 633 1253 643 1264 l 514 1108 q 496 1092 503 1094 q 471 1089 489 1089 l 365 1089 q 346 1103 346 1089 q 354 1125 346 1110 m 397 990 q 408 1031 397 1021 q 449 1042 418 1042 l 538 1042 q 578 1031 568 1042 q 589 990 589 1021 l 589 292 q 530 54 589 122 q 321 -14 471 -14 q 112 54 171 -14 q 53 292 53 122 l 53 990 q 63 1031 53 1021 q 104 1042 74 1042 l 193 1042 q 234 1031 224 1042 q 244 990 244 1021 l 244 258 q 263 199 244 217 q 321 181 281 181 q 397 258 397 181 l 397 990 z "},"Ų":{"ha":642,"x_min":53,"x_max":589,"o":"m 243 -8 q 95 67 138 -3 q 53 292 53 136 l 53 990 q 63 1031 53 1021 q 104 1042 74 1042 l 193 1042 q 234 1031 224 1042 q 244 990 244 1021 l 244 258 q 263 199 244 217 q 321 181 281 181 q 397 258 397 181 l 397 990 q 408 1031 397 1021 q 449 1042 418 1042 l 538 1042 q 578 1031 568 1042 q 589 990 589 1021 l 589 292 q 547 69 589 140 q 411 -8 506 -3 q 353 -32 375 -10 l 322 -62 q 301 -90 304 -81 q 297 -126 297 -100 q 328 -158 297 -158 q 360 -131 360 -158 l 360 -124 q 365 -103 360 -108 q 383 -99 369 -99 l 454 -99 q 474 -103 469 -99 q 479 -124 479 -108 l 479 -126 q 446 -240 479 -208 q 326 -272 413 -272 q 174 -143 174 -272 q 183 -91 174 -110 q 217 -51 192 -72 l 251 -22 q 255 -13 257 -18 q 243 -8 253 -8 z "},"ų":{"ha":642,"x_min":53,"x_max":589,"o":"m 243 -8 q 95 67 138 -3 q 53 292 53 136 l 53 990 q 63 1031 53 1021 q 104 1042 74 1042 l 193 1042 q 234 1031 224 1042 q 244 990 244 1021 l 244 258 q 263 199 244 217 q 321 181 281 181 q 397 258 397 181 l 397 990 q 408 1031 397 1021 q 449 1042 418 1042 l 538 1042 q 578 1031 568 1042 q 589 990 589 1021 l 589 292 q 547 69 589 140 q 411 -8 506 -3 q 353 -32 375 -10 l 322 -62 q 301 -90 304 -81 q 297 -126 297 -100 q 328 -158 297 -158 q 360 -131 360 -158 l 360 -124 q 365 -103 360 -108 q 383 -99 369 -99 l 454 -99 q 474 -103 469 -99 q 479 -124 479 -108 l 479 -126 q 446 -240 479 -208 q 326 -272 413 -272 q 174 -143 174 -272 q 183 -91 174 -110 q 217 -51 192 -72 l 251 -22 q 255 -13 257 -18 q 243 -8 253 -8 z "},"Ŵ":{"ha":908,"x_min":29,"x_max":879,"o":"m 382 1306 l 485 1306 q 519 1301 510 1306 q 543 1278 529 1296 l 649 1135 q 661 1111 661 1117 q 640 1096 661 1096 l 531 1096 q 493 1114 507 1096 l 444 1183 q 433 1190 439 1190 q 422 1183 428 1190 l 374 1114 q 336 1096 360 1096 l 226 1096 q 206 1111 206 1096 q 218 1135 206 1117 l 324 1278 q 347 1301 338 1296 q 382 1306 357 1306 m 410 1042 l 499 1042 q 540 1031 529 1042 q 550 990 550 1021 l 550 693 q 554 635 550 667 l 611 285 q 615 272 613 276 q 620 266 617 268 q 631 264 624 264 q 650 285 649 264 l 683 635 q 685 660 683 639 q 688 693 688 682 l 688 990 q 698 1031 688 1021 q 739 1042 708 1042 l 828 1042 q 869 1031 858 1042 q 879 990 879 1021 l 879 749 q 863 571 879 683 l 789 88 q 758 17 781 33 q 674 0 735 0 l 607 0 q 522 17 546 0 q 492 88 497 35 l 465 299 q 456 306 464 306 q 447 299 449 306 l 417 88 q 386 17 410 35 q 301 0 363 0 l 235 0 q 151 17 174 0 q 119 88 128 33 l 46 571 q 29 749 29 683 l 29 990 q 40 1031 29 1021 q 81 1042 50 1042 l 169 1042 q 210 1031 200 1042 q 221 990 221 1021 l 221 693 q 223 660 221 682 q 225 635 225 639 l 258 285 q 278 264 260 264 q 291 268 288 264 q 297 285 294 272 l 354 635 q 358 693 358 665 l 358 990 q 369 1031 358 1021 q 410 1042 379 1042 z "},"ŵ":{"ha":936,"x_min":21,"x_max":915,"o":"m 417 1306 l 519 1306 q 554 1301 544 1306 q 578 1278 564 1296 l 683 1135 q 696 1111 696 1117 q 675 1096 696 1096 l 565 1096 q 528 1114 542 1096 l 479 1183 q 468 1190 474 1190 q 457 1183 463 1190 l 408 1114 q 371 1096 394 1096 l 261 1096 q 240 1111 240 1096 q 253 1135 240 1117 l 358 1278 q 382 1301 372 1296 q 417 1306 392 1306 m 440 1042 l 496 1042 q 539 1031 526 1042 q 554 990 551 1019 l 635 265 q 649 250 636 250 q 665 265 664 250 l 710 990 q 722 1031 713 1021 q 761 1042 732 1042 l 864 1042 q 906 1031 894 1042 q 915 990 918 1019 l 836 89 q 810 19 832 39 q 735 0 789 0 l 617 0 q 543 19 564 0 q 515 89 522 38 l 479 376 q 468 390 478 390 q 457 376 458 390 l 422 89 q 394 19 415 38 q 321 0 374 0 l 201 0 q 126 19 147 0 q 100 89 104 39 l 21 990 q 30 1031 18 1019 q 72 1042 42 1042 l 175 1042 q 214 1031 204 1042 q 226 990 224 1021 l 269 265 q 286 250 271 250 q 300 265 299 250 l 382 990 q 397 1031 385 1019 q 440 1042 410 1042 z "},"Ŷ":{"ha":572,"x_min":21,"x_max":565,"o":"m 239 1306 l 342 1306 q 376 1301 367 1306 q 400 1278 386 1296 l 506 1135 q 518 1111 518 1117 q 497 1096 518 1096 l 388 1096 q 350 1114 364 1096 l 301 1183 q 290 1190 296 1190 q 279 1183 285 1190 l 231 1114 q 193 1096 217 1096 l 83 1096 q 63 1111 63 1096 q 75 1135 63 1117 l 181 1278 q 204 1301 194 1296 q 239 1306 214 1306 m 336 0 l 250 0 q 209 10 219 0 q 199 51 199 21 l 199 304 q 190 350 199 331 l 57 665 q 27 759 33 719 q 21 881 21 799 l 21 990 q 31 1031 21 1021 q 72 1042 42 1042 l 167 1042 q 208 1031 197 1042 q 218 990 218 1021 l 218 847 q 229 764 218 801 l 276 593 q 293 576 282 576 q 310 593 304 576 l 357 764 q 368 847 368 801 l 368 990 q 378 1031 368 1021 q 419 1042 389 1042 l 514 1042 q 555 1031 544 1042 q 565 990 565 1021 l 565 881 q 559 759 565 799 q 529 665 553 719 l 396 350 q 388 304 388 331 l 388 51 q 377 10 388 21 q 336 0 367 0 z "},"ŷ":{"ha":572,"x_min":4,"x_max":568,"o":"m 228 1306 l 331 1306 q 365 1301 356 1306 q 389 1278 375 1296 l 494 1135 q 507 1111 507 1117 q 486 1096 507 1096 l 376 1096 q 339 1114 353 1096 l 290 1183 q 279 1190 285 1190 q 268 1183 274 1190 l 219 1114 q 182 1096 206 1096 l 72 1096 q 51 1111 51 1096 q 64 1135 51 1117 l 169 1278 q 193 1301 183 1296 q 228 1306 203 1306 m 272 676 q 286 660 275 660 q 300 676 297 660 l 361 990 q 380 1031 367 1021 q 421 1042 393 1042 l 528 1042 q 568 990 585 1042 l 389 394 q 381 321 381 364 l 381 51 q 370 10 381 21 q 329 0 360 0 l 243 0 q 202 10 213 0 q 192 51 192 21 l 192 321 q 183 394 192 364 l 4 990 q 44 1042 -12 1042 l 151 1042 q 192 1031 179 1042 q 211 990 206 1021 l 272 676 z "},"Ÿ":{"ha":572,"x_min":21,"x_max":565,"o":"m 268 1204 l 268 1168 q 183 1083 268 1083 l 147 1083 q 63 1168 63 1083 l 63 1204 q 147 1289 63 1289 l 183 1289 q 268 1204 268 1289 m 510 1204 l 510 1168 q 425 1083 510 1083 l 389 1083 q 304 1168 304 1083 l 304 1204 q 389 1289 304 1289 l 425 1289 q 510 1204 510 1289 m 336 0 l 250 0 q 209 10 219 0 q 199 51 199 21 l 199 304 q 190 350 199 331 l 57 665 q 27 759 33 719 q 21 881 21 799 l 21 990 q 31 1031 21 1021 q 72 1042 42 1042 l 167 1042 q 208 1031 197 1042 q 218 990 218 1021 l 218 847 q 229 764 218 801 l 276 593 q 293 576 282 576 q 310 593 304 576 l 357 764 q 368 847 368 801 l 368 990 q 378 1031 368 1021 q 419 1042 389 1042 l 514 1042 q 555 1031 544 1042 q 565 990 565 1021 l 565 881 q 559 759 565 799 q 529 665 553 719 l 396 350 q 388 304 388 331 l 388 51 q 377 10 388 21 q 336 0 367 0 z "},"Ź":{"ha":515,"x_min":29,"x_max":486,"o":"m 175 1132 l 253 1278 q 269 1296 261 1292 q 297 1300 276 1300 l 431 1300 q 456 1286 456 1300 q 446 1264 456 1276 l 344 1117 q 325 1097 335 1101 q 293 1093 315 1093 l 192 1093 q 167 1110 167 1093 q 175 1132 167 1115 m 92 439 l 261 685 q 288 736 282 715 q 294 799 294 757 l 294 829 q 289 849 294 844 q 269 854 283 854 l 81 854 q 40 865 50 854 q 29 906 29 875 l 29 990 q 40 1031 29 1021 q 81 1042 50 1042 l 435 1042 q 476 1031 465 1042 q 486 990 486 1021 l 486 794 q 475 688 486 722 q 425 597 464 653 l 263 363 q 228 304 236 325 q 221 244 221 283 l 221 213 q 226 192 221 197 q 246 188 231 188 l 435 188 q 476 177 465 188 q 486 136 486 167 l 486 51 q 476 10 486 21 q 435 0 465 0 l 81 0 q 40 10 50 0 q 29 51 29 21 l 29 236 q 40 347 29 313 q 92 439 51 381 z "},"ź":{"ha":524,"x_min":19,"x_max":504,"o":"m 179 1132 l 257 1278 q 273 1296 265 1292 q 301 1300 281 1300 l 435 1300 q 460 1286 460 1300 q 450 1264 460 1276 l 349 1117 q 329 1097 339 1101 q 297 1093 319 1093 l 196 1093 q 171 1110 171 1093 q 179 1132 171 1115 m 239 228 q 257 186 222 186 l 446 186 q 487 176 476 186 q 497 135 497 165 l 497 50 q 487 9 497 19 q 446 -1 476 -1 l 71 -1 q 30 9 40 -1 q 19 50 19 19 l 19 128 q 40 236 19 186 l 286 813 q 268 854 303 854 l 78 854 q 37 865 47 854 q 26 906 26 875 l 26 990 q 37 1031 26 1021 q 78 1042 47 1042 l 453 1042 q 494 1031 483 1042 q 504 990 504 1021 l 504 913 q 483 804 504 854 l 239 228 z "}}}
